M48
; DRILL file {KiCad 6.0.2+dfsg-1} date Wed 31 Aug 2022 21:38:31
; FORMAT={-:-/ absolute / inch / decimal}
; #@! TF.CreationDate,2022-08-31T21:38:31+10:00
; #@! TF.GenerationSoftware,Kicad,Pcbnew,6.0.2+dfsg-1
; #@! TF.FileFunction,Plated,1,4,PTH
FMAT,2
INCH
; #@! TA.AperFunction,Plated,PTH,ViaDrill
T1C0.0118
; #@! TA.AperFunction,Plated,PTH,ComponentDrill
T2C0.0394
; #@! TA.AperFunction,Plated,PTH,ComponentDrill
T3C0.0472
; #@! TA.AperFunction,Plated,PTH,ComponentDrill
T4C0.0630
%
G90
G05
T1
X3.6614Y-5.4508
X3.6772Y-5.5384
X3.7008Y-6.628
X3.7067Y-6.1181
X3.7146Y-4.9252
X3.7165Y-4.3878
X3.7185Y-5.5906
X3.7185Y-5.6526
X3.7215Y-6.4528
X3.7224Y-5.1693
X3.7264Y-5.3051
X3.7283Y-4.6161
X3.7953Y-6.7382
X3.8425Y-5.8858
X3.8514Y-5.3583
X3.8632Y-5.0974
X3.8701Y-5.6703
X3.875Y-5.5098
X3.878Y-5.2913
X3.8789Y-4.5157
X3.8858Y-5.4409
X3.9154Y-5.5394
X3.9488Y-5.439
X3.9587Y-5.185
X3.9616Y-5.6604
X3.9774Y-4.9055
X3.9911Y-6.6969
X4.0089Y-5.8238
X4.0285Y-6.128
X4.0315Y-6.5118
X4.0433Y-4.7402
X4.0522Y-4.999
X4.1142Y-4.435
X4.1152Y-5.7756
X4.1535Y-6.315
X4.1594Y-6.0512
X4.2205Y-5.4409
X4.2224Y-4.7854
X4.2224Y-6.3081
X4.2323Y-4.9902
X4.2953Y-5.8878
X4.3465Y-6.6732
X4.3622Y-5.8228
X4.3819Y-6.4173
X4.3858Y-5.1417
X4.4154Y-6.1614
X4.4264Y-4.0717
X4.4272Y-4.8386
X4.4272Y-4.9764
X4.4567Y-5.1929
X4.4606Y-5.5315
X4.4823Y-5.6693
X4.5079Y-4.3504
X4.5079Y-5.3386
X4.5157Y-6.5079
X4.5197Y-5.1339
X4.5335Y-6.2106
X4.5433Y-5.8701
X4.5768Y-4.9606
X4.6102Y-5.6969
X4.6142Y-4.4724
X4.622Y-4.3858
X4.622Y-5.9488
X4.622Y-6.3386
X4.626Y-5.4567
X4.6654Y-5.0413
X4.6732Y-6.4921
X4.689Y-5.374
X4.6988Y-6.248
X4.7087Y-6.6654
X4.7146Y-4.6752
X4.7185Y-4.9528
X4.7185Y-6.0512
X4.7441Y-4.5669
X4.752Y-5.7323
X4.7559Y-5.5079
X4.7569Y-6.5984
X4.7677Y-5.9134
X4.7913Y-4.3228
X4.7953Y-4.7598
X4.7966Y-4.6049
X4.7972Y-4.8937
X4.7982Y-6.2795
X4.7992Y-4.4961
X4.8002Y-6.3415
X4.8031Y-5.8031
X4.8175Y-4.584
X4.8346Y-4.6811
X4.8504Y-4.5433
X4.8504Y-5.5787
X4.8533Y-5.9843
X4.8661Y-5.2008
X4.878Y-5.0039
X4.8809Y-6.2579
X4.8898Y-6.3425
X4.9134Y-4.7559
X4.9213Y-5.811
X4.9252Y-4.4764
X4.9311Y-4.0591
X4.939Y-6.2579
X4.9409Y-4.6732
X4.9488Y-4.5787
X4.9567Y-5.0984
X4.9587Y-6.1732
X4.9685Y-4.3898
X4.9764Y-5.9055
X4.9783Y-6.5354
X4.9803Y-5.4449
X4.9803Y-6.5984
X4.9843Y-5.6732
X5.0079Y-6.6614
X5.0118Y-6.2717
X5.0276Y-4.7795
X5.0433Y-6.0472
X5.0443Y-6.3967
X5.0472Y-4.8858
X5.0512Y-6.1772
X5.0551Y-6.5827
X5.0728Y-4.6476
X5.0787Y-4.3228
X5.0787Y-4.4646
X5.0807Y-5.1752
X5.0886Y-5.8976
X5.0906Y-5.7047
X5.0945Y-5.9685
X5.1102Y-5.811
X5.1102Y-6.1762
X5.123Y-6.5856
X5.126Y-5.5709
X5.1299Y-6.0669
X5.1339Y-6.4803
X5.1496Y-6.3622
X5.1496Y-6.6614
X5.1811Y-4.3898
X5.2008Y-5.185
X5.2008Y-5.4606
X5.2205Y-4.5866
X5.2224Y-4.9823
X5.2362Y-4.4764
X5.2362Y-4.748
X5.2382Y-6.5886
X5.2441Y-5.752
X5.248Y-5.5748
X5.248Y-6.2756
X5.248Y-6.7323
X5.2559Y-6.4134
X5.2598Y-6.0531
X5.2756Y-5.876
X5.2795Y-4.8228
X5.2795Y-5.0827
X5.2913Y-5.9646
X5.2953Y-4.6732
X5.3031Y-6.3268
X5.315Y-4.5669
X5.315Y-5.9134
X5.3465Y-5.9646
X5.3583Y-4.3268
X5.3622Y-4.6299
X5.3701Y-4.4882
X5.3715Y-4.5892
X5.3923Y-4.5683
X5.3937Y-6.2756
X5.3937Y-6.2756
X5.4055Y-4.6811
X5.4154Y-5.9843
X5.4272Y-4.7795
X5.4291Y-4.5591
X5.4291Y-5.5591
X5.4331Y-5.2402
X5.4409Y-4.9429
X5.4528Y-5.7559
X5.4803Y-4.627
X5.4803Y-4.6565
X5.4961Y-4.6929
X5.5118Y-4.5906
X5.5157Y-6.3819
X5.5315Y-5.0827
X5.5315Y-6.5709
X5.5433Y-5.752
X5.5433Y-6.1732
X5.5512Y-4.3898
X5.5512Y-5.5591
X5.5551Y-4.4803
X5.563Y-6.2953
X5.5827Y-6.6575
X5.5906Y-5.8465
X5.5906Y-6.4291
X5.5945Y-5.3937
X5.5984Y-6.1063
X5.6043Y-6.2126
X5.6063Y-6.5945
X5.6181Y-4.8031
X5.6181Y-5.0276
X5.6417Y-4.6811
X5.6496Y-4.5276
X5.6535Y-5.9961
X5.6614Y-4.2205
X5.6614Y-6.2126
X5.6693Y-6.3819
X5.6929Y-6.1063
X5.7047Y-4.0276
X5.7047Y-6.2598
X5.7087Y-5.9016
X5.7126Y-5.2677
X5.7165Y-4.8031
X5.7165Y-5.5512
X5.7205Y-5.3858
X5.7244Y-5.1575
X5.7323Y-5.9843
X5.748Y-6.6102
X5.7559Y-4.5
X5.7559Y-4.6693
X5.7717Y-5.2047
X5.7756Y-5.3071
X5.7756Y-5.3622
X5.7756Y-5.6063
X5.7795Y-5.0984
X5.7835Y-4.9094
X5.7874Y-5.9094
X5.7913Y-4.2638
X5.7943Y-6.124
X5.7992Y-5.9685
X5.8002Y-6.0364
X5.8071Y-6.3356
X5.8071Y-6.5394
X5.811Y-5.4921
X5.8189Y-6.4547
X5.8268Y-5.3543
X5.8307Y-5.752
X5.8415Y-5.9902
X5.8583Y-4.7835
X5.8622Y-5.1457
X5.8642Y-6.4154
X5.8701Y-5.4094
X5.878Y-4.1024
X5.8858Y-5.3031
X5.8898Y-4.6181
X5.8976Y-5.8583
X5.9016Y-6.3071
X5.9055Y-5.1024
X5.9331Y-6.4272
X5.9449Y-5.7087
X5.9646Y-5.2283
X5.9646Y-6.0276
X5.9724Y-4.5157
X5.9764Y-5.1693
X5.9803Y-5.8819
X5.9843Y-4.6378
X5.9961Y-6.3602
X6.0039Y-5.7323
X6.0079Y-6.7362
X6.0157Y-6.0984
X6.0197Y-6.6654
X6.0315Y-4.8976
X6.0315Y-5.1417
X6.0433Y-4.1417
X6.0512Y-5.4213
X6.0669Y-5.0906
X6.0669Y-6.3012
X6.0669Y-6.4764
X6.0748Y-5.2638
X6.0787Y-4.1969
X6.0787Y-4.4606
X6.0787Y-6.187
X6.0787Y-6.6102
X6.0827Y-4.3268
X6.0827Y-6.5394
X6.0906Y-4.9606
X6.0906Y-5.9646
X6.0919Y-5.3923
X6.0945Y-6.0197
X6.0984Y-5.6772
X6.1063Y-4.811
X6.1063Y-5.5472
X6.1102Y-4.0433
X6.1128Y-5.3715
X6.1339Y-5.0433
X6.1339Y-5.3228
X6.1339Y-6.25
X6.1417Y-4.1811
X6.1654Y-4.5748
X6.1693Y-5.4134
X6.1732Y-4.874
X6.1732Y-6.0945
X6.1969Y-5.8031
X6.2087Y-5.9567
X6.2165Y-4.752
X6.2283Y-6.3327
X6.2323Y-5.122
X6.2343Y-6.4311
X6.2362Y-5.2559
X6.2441Y-4.563
X6.3031Y-5.1969
X6.3071Y-4.2362
X6.3268Y-4.1693
X6.3268Y-4.6811
X6.3268Y-5.4646
X6.3307Y-6.065
X6.3386Y-4.7874
X6.3465Y-5.9961
X6.3504Y-5.252
X6.3543Y-4.8593
X6.3583Y-6.6102
X6.3661Y-5.3898
X6.378Y-4.3189
X6.3976Y-4.5433
X6.4045Y-4.9429
X6.4094Y-5.1654
X6.4094Y-6.1457
X6.4252Y-5.563
X6.4291Y-5.7717
X6.4291Y-6.3425
X6.4331Y-6.5236
X6.437Y-6.626
X6.4449Y-5.2992
X6.4764Y-4.6417
X6.4921Y-4.7323
X6.5118Y-5.8858
X6.5315Y-6.5276
X6.5433Y-4.626
X6.5472Y-5.6339
X6.5512Y-6.2638
X6.5551Y-5.4055
X6.5551Y-6.0669
X6.5591Y-5.4646
X6.5591Y-5.9961
X6.563Y-4.3898
X6.5669Y-4.7205
X6.5837Y-6.122
X6.6132Y-6.122
X6.6378Y-5.0394
X6.6378Y-6.0669
X6.6378Y-6.315
X6.6417Y-5.2047
X6.6417Y-6.0039
X6.6457Y-4.7559
X6.6457Y-5.4075
X6.6457Y-5.4606
X6.6496Y-5.7205
X6.7087Y-4.7283
X6.7126Y-5.374
X6.7165Y-6.0354
X6.7165Y-6.3228
X6.748Y-6.7362
X6.811Y-6.6299
X6.8189Y-6.252
X6.8238Y-4.747
X6.8504Y-4.9528
X6.8858Y-4.0394
X6.8858Y-4.3268
X6.9173Y-5.0354
X6.9252Y-4.937
X6.9291Y-6.252
X6.9488Y-6.3898
X6.9882Y-6.1437
X7.0787Y-5.4213
X7.1398Y-4.9852
X7.1535Y-6.5906
X7.1998Y-4.4469
X7.2234Y-4.9085
X7.2264Y-4.6161
X7.2795Y-4.1594
X7.2825Y-4.4016
X7.2854Y-5.0374
X7.3179Y-4.0226
X7.3415Y-5.9596
X7.373Y-4.2815
X7.373Y-4.565
X7.3848Y-6.7126
X7.3976Y-4.4695
X7.4459Y-6.7421
X7.4498Y-5.4705
X7.4498Y-6.2963
X7.4528Y-5.0108
X7.4557Y-4.626
X7.4577Y-6.6329
X7.4646Y-4.7618
X7.4656Y-5.7972
X7.4675Y-5.8652
X7.5256Y-5.7972
X7.5295Y-4.5325
X7.5295Y-5.0148
X7.5305Y-5.4636
X7.5354Y-6.6339
X7.5394Y-4.249
T2
X3.8189Y-4.0953
X3.8189Y-4.1953
X3.8189Y-4.2953
X4.7539Y-5.0228
X4.7539Y-5.1228
X4.7539Y-5.2228
X4.7539Y-5.3228
X5.3445Y-4.8228
X5.3445Y-4.9228
X5.3445Y-5.0228
X5.3445Y-5.1228
X5.3445Y-5.2228
X5.3445Y-5.3228
X6.5256Y-4.8228
X6.5256Y-4.9228
X6.5256Y-5.0228
X6.5256Y-5.1228
X6.5256Y-5.2228
X6.5256Y-5.3228
T3
X4.1256Y-4.835
X4.1256Y-6.1539
X4.3256Y-4.835
X4.3256Y-6.1539
X6.8872Y-6.1539
X6.8892Y-4.835
X7.2876Y-5.8291
X7.2896Y-4.5102
T4
X4.3256Y-4.685
X4.3256Y-4.985
X4.3256Y-6.0039
X4.3256Y-6.3039
X7.0374Y-6.3039
X7.0394Y-4.985
X7.0624Y-6.0039
X7.0644Y-4.685
T0
M30
