G04 #@! TF.GenerationSoftware,KiCad,Pcbnew,6.0.2+dfsg-1*
G04 #@! TF.CreationDate,2022-08-31T21:38:22+10:00*
G04 #@! TF.ProjectId,AudioInjector.ABS.v1.balanced.preamplifier,41756469-6f49-46e6-9a65-63746f722e41,rev?*
G04 #@! TF.SameCoordinates,Original*
G04 #@! TF.FileFunction,Legend,Top*
G04 #@! TF.FilePolarity,Positive*
%FSLAX45Y45*%
G04 Gerber Fmt 4.5, Leading zero omitted, Abs format (unit mm)*
G04 Created by KiCad (PCBNEW 6.0.2+dfsg-1) date 2022-08-31 21:38:22*
%MOMM*%
%LPD*%
G01*
G04 APERTURE LIST*
%ADD10C,0.150000*%
%ADD11C,0.300000*%
%ADD12C,0.120000*%
G04 APERTURE END LIST*
D10*
X13522361Y-16120000D02*
G75*
G03*
X13522361Y-16120000I-22361J0D01*
G01*
X15628284Y-12910000D02*
G75*
G03*
X15628284Y-12910000I-28284J0D01*
G01*
X12131623Y-16090000D02*
G75*
G03*
X12131623Y-16090000I-31623J0D01*
G01*
X15626055Y-15965000D02*
G75*
G03*
X15626055Y-15965000I-36056J0D01*
G01*
D11*
X16533571Y-17077857D02*
X16533571Y-16927857D01*
X16605000Y-16977857D02*
X16605000Y-17077857D01*
X16605000Y-16992143D02*
X16612143Y-16985000D01*
X16626428Y-16977857D01*
X16647857Y-16977857D01*
X16662143Y-16985000D01*
X16669286Y-16999286D01*
X16669286Y-17077857D01*
X16740714Y-16977857D02*
X16740714Y-17127857D01*
X16740714Y-16985000D02*
X16755000Y-16977857D01*
X16783571Y-16977857D01*
X16797857Y-16985000D01*
X16805000Y-16992143D01*
X16812143Y-17006429D01*
X16812143Y-17049286D01*
X16805000Y-17063571D01*
X16797857Y-17070714D01*
X16783571Y-17077857D01*
X16755000Y-17077857D01*
X16740714Y-17070714D01*
X16940714Y-16977857D02*
X16940714Y-17077857D01*
X16876429Y-16977857D02*
X16876429Y-17056429D01*
X16883571Y-17070714D01*
X16897857Y-17077857D01*
X16919286Y-17077857D01*
X16933571Y-17070714D01*
X16940714Y-17063571D01*
X16990714Y-16977857D02*
X17047857Y-16977857D01*
X17012143Y-16927857D02*
X17012143Y-17056429D01*
X17019286Y-17070714D01*
X17033571Y-17077857D01*
X17047857Y-17077857D01*
X17255000Y-17135000D02*
X17247857Y-17127857D01*
X17233571Y-17106429D01*
X17226429Y-17092143D01*
X17219286Y-17070714D01*
X17212143Y-17035000D01*
X17212143Y-17006429D01*
X17219286Y-16970714D01*
X17226429Y-16949286D01*
X17233571Y-16935000D01*
X17247857Y-16913571D01*
X17255000Y-16906429D01*
X17312143Y-17020714D02*
X17426429Y-17020714D01*
X17576429Y-17077857D02*
X17490714Y-17077857D01*
X17533571Y-17077857D02*
X17533571Y-16927857D01*
X17519286Y-16949286D01*
X17505000Y-16963571D01*
X17490714Y-16970714D01*
X17633571Y-16942143D02*
X17640714Y-16935000D01*
X17655000Y-16927857D01*
X17690714Y-16927857D01*
X17705000Y-16935000D01*
X17712143Y-16942143D01*
X17719286Y-16956429D01*
X17719286Y-16970714D01*
X17712143Y-16992143D01*
X17626429Y-17077857D01*
X17719286Y-17077857D01*
X17783571Y-17063571D02*
X17790714Y-17070714D01*
X17783571Y-17077857D01*
X17776429Y-17070714D01*
X17783571Y-17063571D01*
X17783571Y-17077857D01*
X17876429Y-16992143D02*
X17862143Y-16985000D01*
X17855000Y-16977857D01*
X17847857Y-16963571D01*
X17847857Y-16956429D01*
X17855000Y-16942143D01*
X17862143Y-16935000D01*
X17876429Y-16927857D01*
X17905000Y-16927857D01*
X17919286Y-16935000D01*
X17926429Y-16942143D01*
X17933571Y-16956429D01*
X17933571Y-16963571D01*
X17926429Y-16977857D01*
X17919286Y-16985000D01*
X17905000Y-16992143D01*
X17876429Y-16992143D01*
X17862143Y-16999286D01*
X17855000Y-17006429D01*
X17847857Y-17020714D01*
X17847857Y-17049286D01*
X17855000Y-17063571D01*
X17862143Y-17070714D01*
X17876429Y-17077857D01*
X17905000Y-17077857D01*
X17919286Y-17070714D01*
X17926429Y-17063571D01*
X17933571Y-17049286D01*
X17933571Y-17020714D01*
X17926429Y-17006429D01*
X17919286Y-16999286D01*
X17905000Y-16992143D01*
X18176429Y-17077857D02*
X18176429Y-16927857D01*
X18176429Y-17070714D02*
X18162143Y-17077857D01*
X18133571Y-17077857D01*
X18119286Y-17070714D01*
X18112143Y-17063571D01*
X18105000Y-17049286D01*
X18105000Y-17006429D01*
X18112143Y-16992143D01*
X18119286Y-16985000D01*
X18133571Y-16977857D01*
X18162143Y-16977857D01*
X18176429Y-16985000D01*
X18297857Y-16999286D02*
X18319286Y-17006429D01*
X18326429Y-17013571D01*
X18333571Y-17027857D01*
X18333571Y-17049286D01*
X18326429Y-17063571D01*
X18319286Y-17070714D01*
X18305000Y-17077857D01*
X18247857Y-17077857D01*
X18247857Y-16927857D01*
X18297857Y-16927857D01*
X18312143Y-16935000D01*
X18319286Y-16942143D01*
X18326429Y-16956429D01*
X18326429Y-16970714D01*
X18319286Y-16985000D01*
X18312143Y-16992143D01*
X18297857Y-16999286D01*
X18247857Y-16999286D01*
X18383571Y-17135000D02*
X18390714Y-17127857D01*
X18405000Y-17106429D01*
X18412143Y-17092143D01*
X18419286Y-17070714D01*
X18426429Y-17035000D01*
X18426429Y-17006429D01*
X18419286Y-16970714D01*
X18412143Y-16949286D01*
X18405000Y-16935000D01*
X18390714Y-16913571D01*
X18383571Y-16906429D01*
X11302143Y-12171428D02*
X11302143Y-12100000D01*
X11452143Y-12100000D01*
X11309286Y-12278571D02*
X11302143Y-12264286D01*
X11302143Y-12235714D01*
X11309286Y-12221428D01*
X11323571Y-12214286D01*
X11380714Y-12214286D01*
X11395000Y-12221428D01*
X11402143Y-12235714D01*
X11402143Y-12264286D01*
X11395000Y-12278571D01*
X11380714Y-12285714D01*
X11366428Y-12285714D01*
X11352143Y-12214286D01*
X11402143Y-12328571D02*
X11402143Y-12385714D01*
X11302143Y-12350000D02*
X11430714Y-12350000D01*
X11445000Y-12357143D01*
X11452143Y-12371428D01*
X11452143Y-12385714D01*
X11402143Y-12414286D02*
X11402143Y-12471428D01*
X11452143Y-12435714D02*
X11323571Y-12435714D01*
X11309286Y-12442857D01*
X11302143Y-12457143D01*
X11302143Y-12471428D01*
X16750000Y-10384600D02*
X16703333Y-10384600D01*
X16703333Y-10457933D02*
X16703333Y-10317933D01*
X16770000Y-10317933D01*
X16843333Y-10457933D02*
X16830000Y-10451267D01*
X16823333Y-10437933D01*
X16823333Y-10317933D01*
X16956667Y-10457933D02*
X16956667Y-10384600D01*
X16950000Y-10371267D01*
X16936667Y-10364600D01*
X16910000Y-10364600D01*
X16896667Y-10371267D01*
X16956667Y-10451267D02*
X16943333Y-10457933D01*
X16910000Y-10457933D01*
X16896667Y-10451267D01*
X16890000Y-10437933D01*
X16890000Y-10424600D01*
X16896667Y-10411267D01*
X16910000Y-10404600D01*
X16943333Y-10404600D01*
X16956667Y-10397933D01*
X17003333Y-10364600D02*
X17056667Y-10364600D01*
X17023333Y-10317933D02*
X17023333Y-10437933D01*
X17030000Y-10451267D01*
X17043333Y-10457933D01*
X17056667Y-10457933D01*
X17103333Y-10457933D02*
X17103333Y-10364600D01*
X17103333Y-10377933D02*
X17110000Y-10371267D01*
X17123333Y-10364600D01*
X17143333Y-10364600D01*
X17156667Y-10371267D01*
X17163333Y-10384600D01*
X17163333Y-10457933D01*
X17163333Y-10384600D02*
X17170000Y-10371267D01*
X17183333Y-10364600D01*
X17203333Y-10364600D01*
X17216667Y-10371267D01*
X17223333Y-10384600D01*
X17223333Y-10457933D01*
X17350000Y-10457933D02*
X17350000Y-10384600D01*
X17343333Y-10371267D01*
X17330000Y-10364600D01*
X17303333Y-10364600D01*
X17290000Y-10371267D01*
X17350000Y-10451267D02*
X17336667Y-10457933D01*
X17303333Y-10457933D01*
X17290000Y-10451267D01*
X17283333Y-10437933D01*
X17283333Y-10424600D01*
X17290000Y-10411267D01*
X17303333Y-10404600D01*
X17336667Y-10404600D01*
X17350000Y-10397933D01*
X17403333Y-10457933D02*
X17476667Y-10364600D01*
X17403333Y-10364600D02*
X17476667Y-10457933D01*
X17636667Y-10457933D02*
X17636667Y-10317933D01*
X17696667Y-10451267D02*
X17716667Y-10457933D01*
X17750000Y-10457933D01*
X17763333Y-10451267D01*
X17770000Y-10444600D01*
X17776667Y-10431267D01*
X17776667Y-10417933D01*
X17770000Y-10404600D01*
X17763333Y-10397933D01*
X17750000Y-10391267D01*
X17723333Y-10384600D01*
X17710000Y-10377933D01*
X17703333Y-10371267D01*
X17696667Y-10357933D01*
X17696667Y-10344600D01*
X17703333Y-10331267D01*
X17710000Y-10324600D01*
X17723333Y-10317933D01*
X17756667Y-10317933D01*
X17776667Y-10324600D01*
X17863333Y-10317933D02*
X17890000Y-10317933D01*
X17903333Y-10324600D01*
X17916667Y-10337933D01*
X17923333Y-10364600D01*
X17923333Y-10411267D01*
X17916667Y-10437933D01*
X17903333Y-10451267D01*
X17890000Y-10457933D01*
X17863333Y-10457933D01*
X17850000Y-10451267D01*
X17836667Y-10437933D01*
X17830000Y-10411267D01*
X17830000Y-10364600D01*
X17836667Y-10337933D01*
X17850000Y-10324600D01*
X17863333Y-10317933D01*
X16910000Y-10610000D02*
X16930000Y-10616667D01*
X16936667Y-10623333D01*
X16943333Y-10636667D01*
X16943333Y-10656667D01*
X16936667Y-10670000D01*
X16930000Y-10676667D01*
X16916667Y-10683333D01*
X16863333Y-10683333D01*
X16863333Y-10543333D01*
X16910000Y-10543333D01*
X16923333Y-10550000D01*
X16930000Y-10556667D01*
X16936667Y-10570000D01*
X16936667Y-10583333D01*
X16930000Y-10596667D01*
X16923333Y-10603333D01*
X16910000Y-10610000D01*
X16863333Y-10610000D01*
X17063333Y-10683333D02*
X17063333Y-10610000D01*
X17056667Y-10596667D01*
X17043333Y-10590000D01*
X17016667Y-10590000D01*
X17003333Y-10596667D01*
X17063333Y-10676667D02*
X17050000Y-10683333D01*
X17016667Y-10683333D01*
X17003333Y-10676667D01*
X16996667Y-10663333D01*
X16996667Y-10650000D01*
X17003333Y-10636667D01*
X17016667Y-10630000D01*
X17050000Y-10630000D01*
X17063333Y-10623333D01*
X17150000Y-10683333D02*
X17136667Y-10676667D01*
X17130000Y-10663333D01*
X17130000Y-10543333D01*
X17263333Y-10683333D02*
X17263333Y-10610000D01*
X17256667Y-10596667D01*
X17243333Y-10590000D01*
X17216667Y-10590000D01*
X17203333Y-10596667D01*
X17263333Y-10676667D02*
X17250000Y-10683333D01*
X17216667Y-10683333D01*
X17203333Y-10676667D01*
X17196667Y-10663333D01*
X17196667Y-10650000D01*
X17203333Y-10636667D01*
X17216667Y-10630000D01*
X17250000Y-10630000D01*
X17263333Y-10623333D01*
X17330000Y-10590000D02*
X17330000Y-10683333D01*
X17330000Y-10603333D02*
X17336667Y-10596667D01*
X17350000Y-10590000D01*
X17370000Y-10590000D01*
X17383333Y-10596667D01*
X17390000Y-10610000D01*
X17390000Y-10683333D01*
X17516667Y-10676667D02*
X17503333Y-10683333D01*
X17476667Y-10683333D01*
X17463333Y-10676667D01*
X17456667Y-10670000D01*
X17450000Y-10656667D01*
X17450000Y-10616667D01*
X17456667Y-10603333D01*
X17463333Y-10596667D01*
X17476667Y-10590000D01*
X17503333Y-10590000D01*
X17516667Y-10596667D01*
X17630000Y-10676667D02*
X17616667Y-10683333D01*
X17590000Y-10683333D01*
X17576667Y-10676667D01*
X17570000Y-10663333D01*
X17570000Y-10610000D01*
X17576667Y-10596667D01*
X17590000Y-10590000D01*
X17616667Y-10590000D01*
X17630000Y-10596667D01*
X17636667Y-10610000D01*
X17636667Y-10623333D01*
X17570000Y-10636667D01*
X17756667Y-10683333D02*
X17756667Y-10543333D01*
X17756667Y-10676667D02*
X17743333Y-10683333D01*
X17716667Y-10683333D01*
X17703333Y-10676667D01*
X17696667Y-10670000D01*
X17690000Y-10656667D01*
X17690000Y-10616667D01*
X17696667Y-10603333D01*
X17703333Y-10596667D01*
X17716667Y-10590000D01*
X17743333Y-10590000D01*
X17756667Y-10596667D01*
X16590000Y-10835400D02*
X16610000Y-10842067D01*
X16616667Y-10848733D01*
X16623333Y-10862067D01*
X16623333Y-10882067D01*
X16616667Y-10895400D01*
X16610000Y-10902067D01*
X16596667Y-10908733D01*
X16543333Y-10908733D01*
X16543333Y-10768733D01*
X16590000Y-10768733D01*
X16603333Y-10775400D01*
X16610000Y-10782067D01*
X16616667Y-10795400D01*
X16616667Y-10808733D01*
X16610000Y-10822067D01*
X16603333Y-10828733D01*
X16590000Y-10835400D01*
X16543333Y-10835400D01*
X16683333Y-10908733D02*
X16683333Y-10815400D01*
X16683333Y-10842067D02*
X16690000Y-10828733D01*
X16696667Y-10822067D01*
X16710000Y-10815400D01*
X16723333Y-10815400D01*
X16823333Y-10902067D02*
X16810000Y-10908733D01*
X16783333Y-10908733D01*
X16770000Y-10902067D01*
X16763333Y-10888733D01*
X16763333Y-10835400D01*
X16770000Y-10822067D01*
X16783333Y-10815400D01*
X16810000Y-10815400D01*
X16823333Y-10822067D01*
X16830000Y-10835400D01*
X16830000Y-10848733D01*
X16763333Y-10862067D01*
X16950000Y-10908733D02*
X16950000Y-10835400D01*
X16943333Y-10822067D01*
X16930000Y-10815400D01*
X16903333Y-10815400D01*
X16890000Y-10822067D01*
X16950000Y-10902067D02*
X16936667Y-10908733D01*
X16903333Y-10908733D01*
X16890000Y-10902067D01*
X16883333Y-10888733D01*
X16883333Y-10875400D01*
X16890000Y-10862067D01*
X16903333Y-10855400D01*
X16936667Y-10855400D01*
X16950000Y-10848733D01*
X17016667Y-10908733D02*
X17016667Y-10768733D01*
X17030000Y-10855400D02*
X17070000Y-10908733D01*
X17070000Y-10815400D02*
X17016667Y-10868733D01*
X17150000Y-10908733D02*
X17136667Y-10902067D01*
X17130000Y-10895400D01*
X17123333Y-10882067D01*
X17123333Y-10842067D01*
X17130000Y-10828733D01*
X17136667Y-10822067D01*
X17150000Y-10815400D01*
X17170000Y-10815400D01*
X17183333Y-10822067D01*
X17190000Y-10828733D01*
X17196667Y-10842067D01*
X17196667Y-10882067D01*
X17190000Y-10895400D01*
X17183333Y-10902067D01*
X17170000Y-10908733D01*
X17150000Y-10908733D01*
X17316667Y-10815400D02*
X17316667Y-10908733D01*
X17256667Y-10815400D02*
X17256667Y-10888733D01*
X17263333Y-10902067D01*
X17276667Y-10908733D01*
X17296667Y-10908733D01*
X17310000Y-10902067D01*
X17316667Y-10895400D01*
X17363333Y-10815400D02*
X17416667Y-10815400D01*
X17383333Y-10768733D02*
X17383333Y-10888733D01*
X17390000Y-10902067D01*
X17403333Y-10908733D01*
X17416667Y-10908733D01*
X17556667Y-10815400D02*
X17590000Y-10908733D01*
X17623333Y-10815400D01*
X17750000Y-10908733D02*
X17670000Y-10908733D01*
X17710000Y-10908733D02*
X17710000Y-10768733D01*
X17696667Y-10788733D01*
X17683333Y-10802067D01*
X17670000Y-10808733D01*
X17810000Y-10895400D02*
X17816667Y-10902067D01*
X17810000Y-10908733D01*
X17803333Y-10902067D01*
X17810000Y-10895400D01*
X17810000Y-10908733D01*
X17950000Y-10908733D02*
X17870000Y-10908733D01*
X17910000Y-10908733D02*
X17910000Y-10768733D01*
X17896667Y-10788733D01*
X17883333Y-10802067D01*
X17870000Y-10808733D01*
X18076667Y-10768733D02*
X18010000Y-10768733D01*
X18003333Y-10835400D01*
X18010000Y-10828733D01*
X18023333Y-10822067D01*
X18056667Y-10822067D01*
X18070000Y-10828733D01*
X18076667Y-10835400D01*
X18083333Y-10848733D01*
X18083333Y-10882067D01*
X18076667Y-10895400D01*
X18070000Y-10902067D01*
X18056667Y-10908733D01*
X18023333Y-10908733D01*
X18010000Y-10902067D01*
X18003333Y-10895400D01*
X17157857Y-12356071D02*
X17157857Y-12427500D01*
X17007857Y-12427500D01*
X17150714Y-12248928D02*
X17157857Y-12263214D01*
X17157857Y-12291786D01*
X17150714Y-12306071D01*
X17136429Y-12313214D01*
X17079286Y-12313214D01*
X17065000Y-12306071D01*
X17057857Y-12291786D01*
X17057857Y-12263214D01*
X17065000Y-12248928D01*
X17079286Y-12241786D01*
X17093571Y-12241786D01*
X17107857Y-12313214D01*
X17057857Y-12198928D02*
X17057857Y-12141786D01*
X17157857Y-12177500D02*
X17029286Y-12177500D01*
X17015000Y-12170357D01*
X17007857Y-12156071D01*
X17007857Y-12141786D01*
X17057857Y-12113214D02*
X17057857Y-12056071D01*
X17007857Y-12091786D02*
X17136429Y-12091786D01*
X17150714Y-12084643D01*
X17157857Y-12070357D01*
X17157857Y-12056071D01*
X9911429Y-16937857D02*
X9940000Y-16937857D01*
X9954286Y-16945000D01*
X9968571Y-16959286D01*
X9975714Y-16987857D01*
X9975714Y-17037857D01*
X9968571Y-17066429D01*
X9954286Y-17080714D01*
X9940000Y-17087857D01*
X9911429Y-17087857D01*
X9897143Y-17080714D01*
X9882857Y-17066429D01*
X9875714Y-17037857D01*
X9875714Y-16987857D01*
X9882857Y-16959286D01*
X9897143Y-16945000D01*
X9911429Y-16937857D01*
X10104286Y-16987857D02*
X10104286Y-17087857D01*
X10040000Y-16987857D02*
X10040000Y-17066429D01*
X10047143Y-17080714D01*
X10061429Y-17087857D01*
X10082857Y-17087857D01*
X10097143Y-17080714D01*
X10104286Y-17073571D01*
X10154286Y-16987857D02*
X10211429Y-16987857D01*
X10175714Y-16937857D02*
X10175714Y-17066429D01*
X10182857Y-17080714D01*
X10197143Y-17087857D01*
X10211429Y-17087857D01*
X10261429Y-16987857D02*
X10261429Y-17137857D01*
X10261429Y-16995000D02*
X10275714Y-16987857D01*
X10304286Y-16987857D01*
X10318571Y-16995000D01*
X10325714Y-17002143D01*
X10332857Y-17016429D01*
X10332857Y-17059286D01*
X10325714Y-17073571D01*
X10318571Y-17080714D01*
X10304286Y-17087857D01*
X10275714Y-17087857D01*
X10261429Y-17080714D01*
X10461429Y-16987857D02*
X10461429Y-17087857D01*
X10397143Y-16987857D02*
X10397143Y-17066429D01*
X10404286Y-17080714D01*
X10418571Y-17087857D01*
X10440000Y-17087857D01*
X10454286Y-17080714D01*
X10461429Y-17073571D01*
X10511429Y-16987857D02*
X10568571Y-16987857D01*
X10532857Y-16937857D02*
X10532857Y-17066429D01*
X10540000Y-17080714D01*
X10554286Y-17087857D01*
X10568571Y-17087857D01*
X10775714Y-17145000D02*
X10768571Y-17137857D01*
X10754286Y-17116429D01*
X10747143Y-17102143D01*
X10740000Y-17080714D01*
X10732857Y-17045000D01*
X10732857Y-17016429D01*
X10740000Y-16980714D01*
X10747143Y-16959286D01*
X10754286Y-16945000D01*
X10768571Y-16923571D01*
X10775714Y-16916429D01*
X10911429Y-17087857D02*
X10825714Y-17087857D01*
X10868571Y-17087857D02*
X10868571Y-16937857D01*
X10854286Y-16959286D01*
X10840000Y-16973571D01*
X10825714Y-16980714D01*
X10961429Y-16937857D02*
X11054286Y-16937857D01*
X11004286Y-16995000D01*
X11025714Y-16995000D01*
X11040000Y-17002143D01*
X11047143Y-17009286D01*
X11054286Y-17023571D01*
X11054286Y-17059286D01*
X11047143Y-17073571D01*
X11040000Y-17080714D01*
X11025714Y-17087857D01*
X10982857Y-17087857D01*
X10968571Y-17080714D01*
X10961429Y-17073571D01*
X11297143Y-17087857D02*
X11297143Y-16937857D01*
X11297143Y-17080714D02*
X11282857Y-17087857D01*
X11254286Y-17087857D01*
X11240000Y-17080714D01*
X11232857Y-17073571D01*
X11225714Y-17059286D01*
X11225714Y-17016429D01*
X11232857Y-17002143D01*
X11240000Y-16995000D01*
X11254286Y-16987857D01*
X11282857Y-16987857D01*
X11297143Y-16995000D01*
X11418571Y-17009286D02*
X11440000Y-17016429D01*
X11447143Y-17023571D01*
X11454286Y-17037857D01*
X11454286Y-17059286D01*
X11447143Y-17073571D01*
X11440000Y-17080714D01*
X11425714Y-17087857D01*
X11368571Y-17087857D01*
X11368571Y-16937857D01*
X11418571Y-16937857D01*
X11432857Y-16945000D01*
X11440000Y-16952143D01*
X11447143Y-16966429D01*
X11447143Y-16980714D01*
X11440000Y-16995000D01*
X11432857Y-17002143D01*
X11418571Y-17009286D01*
X11368571Y-17009286D01*
X11504286Y-17145000D02*
X11511428Y-17137857D01*
X11525714Y-17116429D01*
X11532857Y-17102143D01*
X11540000Y-17080714D01*
X11547143Y-17045000D01*
X11547143Y-17016429D01*
X11540000Y-16980714D01*
X11532857Y-16959286D01*
X11525714Y-16945000D01*
X11511428Y-16923571D01*
X11504286Y-16916429D01*
X11307143Y-15572143D02*
X11378571Y-15522143D01*
X11307143Y-15486428D02*
X11457143Y-15486428D01*
X11457143Y-15543571D01*
X11450000Y-15557857D01*
X11442857Y-15565000D01*
X11428571Y-15572143D01*
X11407143Y-15572143D01*
X11392857Y-15565000D01*
X11385714Y-15557857D01*
X11378571Y-15543571D01*
X11378571Y-15486428D01*
X11307143Y-15636428D02*
X11407143Y-15636428D01*
X11457143Y-15636428D02*
X11450000Y-15629286D01*
X11442857Y-15636428D01*
X11450000Y-15643571D01*
X11457143Y-15636428D01*
X11442857Y-15636428D01*
X11407143Y-15772143D02*
X11285714Y-15772143D01*
X11271428Y-15765000D01*
X11264286Y-15757857D01*
X11257143Y-15743571D01*
X11257143Y-15722143D01*
X11264286Y-15707857D01*
X11314286Y-15772143D02*
X11307143Y-15757857D01*
X11307143Y-15729286D01*
X11314286Y-15715000D01*
X11321428Y-15707857D01*
X11335714Y-15700714D01*
X11378571Y-15700714D01*
X11392857Y-15707857D01*
X11400000Y-15715000D01*
X11407143Y-15729286D01*
X11407143Y-15757857D01*
X11400000Y-15772143D01*
X11307143Y-15843571D02*
X11457143Y-15843571D01*
X11307143Y-15907857D02*
X11385714Y-15907857D01*
X11400000Y-15900714D01*
X11407143Y-15886428D01*
X11407143Y-15865000D01*
X11400000Y-15850714D01*
X11392857Y-15843571D01*
X11407143Y-15957857D02*
X11407143Y-16015000D01*
X11457143Y-15979286D02*
X11328571Y-15979286D01*
X11314286Y-15986428D01*
X11307143Y-16000714D01*
X11307143Y-16015000D01*
X17147857Y-15815357D02*
X17076429Y-15865357D01*
X17147857Y-15901071D02*
X16997857Y-15901071D01*
X16997857Y-15843928D01*
X17005000Y-15829643D01*
X17012143Y-15822500D01*
X17026429Y-15815357D01*
X17047857Y-15815357D01*
X17062143Y-15822500D01*
X17069286Y-15829643D01*
X17076429Y-15843928D01*
X17076429Y-15901071D01*
X17147857Y-15751071D02*
X17047857Y-15751071D01*
X16997857Y-15751071D02*
X17005000Y-15758214D01*
X17012143Y-15751071D01*
X17005000Y-15743928D01*
X16997857Y-15751071D01*
X17012143Y-15751071D01*
X17047857Y-15615357D02*
X17169286Y-15615357D01*
X17183571Y-15622500D01*
X17190714Y-15629643D01*
X17197857Y-15643928D01*
X17197857Y-15665357D01*
X17190714Y-15679643D01*
X17140714Y-15615357D02*
X17147857Y-15629643D01*
X17147857Y-15658214D01*
X17140714Y-15672500D01*
X17133571Y-15679643D01*
X17119286Y-15686786D01*
X17076429Y-15686786D01*
X17062143Y-15679643D01*
X17055000Y-15672500D01*
X17047857Y-15658214D01*
X17047857Y-15629643D01*
X17055000Y-15615357D01*
X17147857Y-15543928D02*
X16997857Y-15543928D01*
X17147857Y-15479643D02*
X17069286Y-15479643D01*
X17055000Y-15486786D01*
X17047857Y-15501071D01*
X17047857Y-15522500D01*
X17055000Y-15536786D01*
X17062143Y-15543928D01*
X17047857Y-15429643D02*
X17047857Y-15372500D01*
X16997857Y-15408214D02*
X17126429Y-15408214D01*
X17140714Y-15401071D01*
X17147857Y-15386786D01*
X17147857Y-15372500D01*
D10*
X14824762Y-16996667D02*
X14872381Y-16996667D01*
X14815238Y-17025238D02*
X14848571Y-16925238D01*
X14881905Y-17025238D01*
X14915238Y-17025238D02*
X14915238Y-16925238D01*
X14962857Y-16987143D02*
X15039048Y-16987143D01*
X15081905Y-16996667D02*
X15129524Y-16996667D01*
X15072381Y-17025238D02*
X15105714Y-16925238D01*
X15139048Y-17025238D01*
X15205714Y-16972857D02*
X15220000Y-16977619D01*
X15224762Y-16982381D01*
X15229524Y-16991905D01*
X15229524Y-17006190D01*
X15224762Y-17015714D01*
X15220000Y-17020476D01*
X15210476Y-17025238D01*
X15172381Y-17025238D01*
X15172381Y-16925238D01*
X15205714Y-16925238D01*
X15215238Y-16930000D01*
X15220000Y-16934762D01*
X15224762Y-16944286D01*
X15224762Y-16953810D01*
X15220000Y-16963333D01*
X15215238Y-16968095D01*
X15205714Y-16972857D01*
X15172381Y-16972857D01*
X15267619Y-17020476D02*
X15281905Y-17025238D01*
X15305714Y-17025238D01*
X15315238Y-17020476D01*
X15320000Y-17015714D01*
X15324762Y-17006190D01*
X15324762Y-16996667D01*
X15320000Y-16987143D01*
X15315238Y-16982381D01*
X15305714Y-16977619D01*
X15286667Y-16972857D01*
X15277143Y-16968095D01*
X15272381Y-16963333D01*
X15267619Y-16953810D01*
X15267619Y-16944286D01*
X15272381Y-16934762D01*
X15277143Y-16930000D01*
X15286667Y-16925238D01*
X15310476Y-16925238D01*
X15324762Y-16930000D01*
X15434286Y-16958571D02*
X15458095Y-17025238D01*
X15481905Y-16958571D01*
X15572381Y-17025238D02*
X15515238Y-17025238D01*
X15543809Y-17025238D02*
X15543809Y-16925238D01*
X15534286Y-16939524D01*
X15524762Y-16949048D01*
X15515238Y-16953810D01*
X15615238Y-17015714D02*
X15620000Y-17020476D01*
X15615238Y-17025238D01*
X15610476Y-17020476D01*
X15615238Y-17015714D01*
X15615238Y-17025238D01*
X15681905Y-16925238D02*
X15691428Y-16925238D01*
X15700952Y-16930000D01*
X15705714Y-16934762D01*
X15710476Y-16944286D01*
X15715238Y-16963333D01*
X15715238Y-16987143D01*
X15710476Y-17006190D01*
X15705714Y-17015714D01*
X15700952Y-17020476D01*
X15691428Y-17025238D01*
X15681905Y-17025238D01*
X15672381Y-17020476D01*
X15667619Y-17015714D01*
X15662857Y-17006190D01*
X15658095Y-16987143D01*
X15658095Y-16963333D01*
X15662857Y-16944286D01*
X15667619Y-16934762D01*
X15672381Y-16930000D01*
X15681905Y-16925238D01*
D11*
X14427857Y-14052857D02*
X14349286Y-14052857D01*
X14335000Y-14060000D01*
X14327857Y-14074286D01*
X14327857Y-14102857D01*
X14335000Y-14117143D01*
X14420714Y-14052857D02*
X14427857Y-14067143D01*
X14427857Y-14102857D01*
X14420714Y-14117143D01*
X14406428Y-14124286D01*
X14392143Y-14124286D01*
X14377857Y-14117143D01*
X14370714Y-14102857D01*
X14370714Y-14067143D01*
X14363571Y-14052857D01*
X14327857Y-13917143D02*
X14427857Y-13917143D01*
X14327857Y-13981428D02*
X14406428Y-13981428D01*
X14420714Y-13974286D01*
X14427857Y-13960000D01*
X14427857Y-13938571D01*
X14420714Y-13924286D01*
X14413571Y-13917143D01*
X14427857Y-13781428D02*
X14277857Y-13781428D01*
X14420714Y-13781428D02*
X14427857Y-13795714D01*
X14427857Y-13824286D01*
X14420714Y-13838571D01*
X14413571Y-13845714D01*
X14399286Y-13852857D01*
X14356428Y-13852857D01*
X14342143Y-13845714D01*
X14335000Y-13838571D01*
X14327857Y-13824286D01*
X14327857Y-13795714D01*
X14335000Y-13781428D01*
X14427857Y-13710000D02*
X14327857Y-13710000D01*
X14277857Y-13710000D02*
X14285000Y-13717143D01*
X14292143Y-13710000D01*
X14285000Y-13702857D01*
X14277857Y-13710000D01*
X14292143Y-13710000D01*
X14427857Y-13617143D02*
X14420714Y-13631428D01*
X14413571Y-13638571D01*
X14399286Y-13645714D01*
X14356428Y-13645714D01*
X14342143Y-13638571D01*
X14335000Y-13631428D01*
X14327857Y-13617143D01*
X14327857Y-13595714D01*
X14335000Y-13581428D01*
X14342143Y-13574286D01*
X14356428Y-13567143D01*
X14399286Y-13567143D01*
X14413571Y-13574286D01*
X14420714Y-13581428D01*
X14427857Y-13595714D01*
X14427857Y-13617143D01*
X14427857Y-13502857D02*
X14327857Y-13502857D01*
X14277857Y-13502857D02*
X14285000Y-13510000D01*
X14292143Y-13502857D01*
X14285000Y-13495714D01*
X14277857Y-13502857D01*
X14292143Y-13502857D01*
X14327857Y-13431428D02*
X14427857Y-13431428D01*
X14342143Y-13431428D02*
X14335000Y-13424286D01*
X14327857Y-13410000D01*
X14327857Y-13388571D01*
X14335000Y-13374286D01*
X14349286Y-13367143D01*
X14427857Y-13367143D01*
X14327857Y-13295714D02*
X14456428Y-13295714D01*
X14470714Y-13302857D01*
X14477857Y-13317143D01*
X14477857Y-13324286D01*
X14277857Y-13295714D02*
X14285000Y-13302857D01*
X14292143Y-13295714D01*
X14285000Y-13288571D01*
X14277857Y-13295714D01*
X14292143Y-13295714D01*
X14420714Y-13167143D02*
X14427857Y-13181428D01*
X14427857Y-13210000D01*
X14420714Y-13224286D01*
X14406428Y-13231428D01*
X14349286Y-13231428D01*
X14335000Y-13224286D01*
X14327857Y-13210000D01*
X14327857Y-13181428D01*
X14335000Y-13167143D01*
X14349286Y-13160000D01*
X14363571Y-13160000D01*
X14377857Y-13231428D01*
X14420714Y-13031428D02*
X14427857Y-13045714D01*
X14427857Y-13074286D01*
X14420714Y-13088571D01*
X14413571Y-13095714D01*
X14399286Y-13102857D01*
X14356428Y-13102857D01*
X14342143Y-13095714D01*
X14335000Y-13088571D01*
X14327857Y-13074286D01*
X14327857Y-13045714D01*
X14335000Y-13031428D01*
X14327857Y-12988571D02*
X14327857Y-12931428D01*
X14277857Y-12967143D02*
X14406428Y-12967143D01*
X14420714Y-12960000D01*
X14427857Y-12945714D01*
X14427857Y-12931428D01*
X14427857Y-12860000D02*
X14420714Y-12874286D01*
X14413571Y-12881428D01*
X14399286Y-12888571D01*
X14356428Y-12888571D01*
X14342143Y-12881428D01*
X14335000Y-12874286D01*
X14327857Y-12860000D01*
X14327857Y-12838571D01*
X14335000Y-12824286D01*
X14342143Y-12817143D01*
X14356428Y-12810000D01*
X14399286Y-12810000D01*
X14413571Y-12817143D01*
X14420714Y-12824286D01*
X14427857Y-12838571D01*
X14427857Y-12860000D01*
X14427857Y-12745714D02*
X14327857Y-12745714D01*
X14356428Y-12745714D02*
X14342143Y-12738571D01*
X14335000Y-12731428D01*
X14327857Y-12717143D01*
X14327857Y-12702857D01*
X14413571Y-12652857D02*
X14420714Y-12645714D01*
X14427857Y-12652857D01*
X14420714Y-12660000D01*
X14413571Y-12652857D01*
X14427857Y-12652857D01*
X14327857Y-12581428D02*
X14427857Y-12581428D01*
X14342143Y-12581428D02*
X14335000Y-12574286D01*
X14327857Y-12560000D01*
X14327857Y-12538571D01*
X14335000Y-12524286D01*
X14349286Y-12517143D01*
X14427857Y-12517143D01*
X14420714Y-12388571D02*
X14427857Y-12402857D01*
X14427857Y-12431428D01*
X14420714Y-12445714D01*
X14406428Y-12452857D01*
X14349286Y-12452857D01*
X14335000Y-12445714D01*
X14327857Y-12431428D01*
X14327857Y-12402857D01*
X14335000Y-12388571D01*
X14349286Y-12381428D01*
X14363571Y-12381428D01*
X14377857Y-12452857D01*
X14327857Y-12338571D02*
X14327857Y-12281428D01*
X14277857Y-12317143D02*
X14406428Y-12317143D01*
X14420714Y-12310000D01*
X14427857Y-12295714D01*
X14427857Y-12281428D01*
D10*
X15297500Y-12982500D02*
X15297500Y-12968000D01*
X15712500Y-12982500D02*
X15297500Y-12982500D01*
X15297500Y-12467500D02*
X15297500Y-12482000D01*
X15712500Y-12467500D02*
X15297500Y-12467500D01*
X15712500Y-12977500D02*
X15852500Y-12977500D01*
X15712500Y-12467500D02*
X15712500Y-12482000D01*
X15712500Y-12982500D02*
X15712500Y-12977500D01*
D12*
X15754000Y-12298722D02*
X15754000Y-12331278D01*
X15856000Y-12298722D02*
X15856000Y-12331278D01*
X15083257Y-13133867D02*
X15060237Y-13156888D01*
X15011132Y-13061743D02*
X14988112Y-13084763D01*
X15509972Y-13039000D02*
X15542528Y-13039000D01*
X15509972Y-13141000D02*
X15542528Y-13141000D01*
X15809972Y-13166000D02*
X15842528Y-13166000D01*
X15809972Y-13064000D02*
X15842528Y-13064000D01*
X15367528Y-13291000D02*
X15334972Y-13291000D01*
X15367528Y-13189000D02*
X15334972Y-13189000D01*
X16006000Y-12585028D02*
X16006000Y-12552472D01*
X15904000Y-12585028D02*
X15904000Y-12552472D01*
X15106000Y-12427528D02*
X15106000Y-12394972D01*
X15004000Y-12427528D02*
X15004000Y-12394972D01*
X15004000Y-12748722D02*
X15004000Y-12781278D01*
X15106000Y-12748722D02*
X15106000Y-12781278D01*
X16006000Y-12873722D02*
X16006000Y-12906278D01*
X15904000Y-12873722D02*
X15904000Y-12906278D01*
X15671278Y-13214000D02*
X15638722Y-13214000D01*
X15671278Y-13316000D02*
X15638722Y-13316000D01*
D10*
X13956500Y-10637500D02*
X13306500Y-10637500D01*
X13956500Y-11587500D02*
X13306500Y-11587500D01*
X12515500Y-11587500D02*
X11865500Y-11587500D01*
X12515500Y-10637500D02*
X11865500Y-10637500D01*
D12*
X9197000Y-13543000D02*
X9691000Y-13543000D01*
X9197000Y-10989000D02*
X9691000Y-10989000D01*
X11081000Y-12441000D02*
X11081000Y-12481000D01*
X9691000Y-13393000D02*
X11081000Y-13393000D01*
X9197000Y-11169000D02*
X9197000Y-10989000D01*
X9197000Y-13393000D02*
X8927000Y-13393000D01*
X9691000Y-11169000D02*
X11081000Y-11169000D01*
X9197000Y-13543000D02*
X9197000Y-13393000D01*
X9197000Y-11169000D02*
X8927000Y-11169000D01*
X9691000Y-10989000D02*
X9691000Y-11169000D01*
X11081000Y-12121000D02*
X11081000Y-12081000D01*
X8927000Y-13393000D02*
X8927000Y-11169000D01*
X11081000Y-11721000D02*
X11081000Y-11169000D01*
X11081000Y-13393000D02*
X11081000Y-12841000D01*
X9691000Y-13393000D02*
X9691000Y-13543000D01*
X14159000Y-11124972D02*
X14159000Y-11157528D01*
X14261000Y-11124972D02*
X14261000Y-11157528D01*
X14261000Y-11544972D02*
X14261000Y-11577528D01*
X14159000Y-11544972D02*
X14159000Y-11577528D01*
X12999000Y-11142472D02*
X12999000Y-11175028D01*
X13101000Y-11142472D02*
X13101000Y-11175028D01*
X12999000Y-11542472D02*
X12999000Y-11575028D01*
X13101000Y-11542472D02*
X13101000Y-11575028D01*
X12689000Y-11142472D02*
X12689000Y-11175028D01*
X12791000Y-11142472D02*
X12791000Y-11175028D01*
X12791000Y-11524972D02*
X12791000Y-11557528D01*
X12689000Y-11524972D02*
X12689000Y-11557528D01*
X11671000Y-11144972D02*
X11671000Y-11177528D01*
X11569000Y-11144972D02*
X11569000Y-11177528D01*
X11671000Y-11524972D02*
X11671000Y-11557528D01*
X11569000Y-11524972D02*
X11569000Y-11557528D01*
X11504000Y-10598000D02*
X11720000Y-10598000D01*
X11504000Y-10282000D02*
X11650000Y-10282000D01*
X11504000Y-10598000D02*
X11504000Y-10505000D01*
X11504000Y-10282000D02*
X11504000Y-10375000D01*
X12661000Y-10385028D02*
X12661000Y-10352472D01*
X12559000Y-10385028D02*
X12559000Y-10352472D01*
X11371000Y-10457528D02*
X11371000Y-10424972D01*
X11269000Y-10457528D02*
X11269000Y-10424972D01*
X13380000Y-10560000D02*
X13770000Y-10560000D01*
X13380000Y-10360000D02*
X13770000Y-10360000D01*
X13380000Y-10360000D02*
X13380000Y-10560000D01*
X11950000Y-10360000D02*
X12340000Y-10360000D01*
X11950000Y-10560000D02*
X12340000Y-10560000D01*
X11950000Y-10360000D02*
X11950000Y-10560000D01*
X15804972Y-16236000D02*
X15837528Y-16236000D01*
X15804972Y-16134000D02*
X15837528Y-16134000D01*
X15894000Y-15938722D02*
X15894000Y-15971278D01*
X15996000Y-15938722D02*
X15996000Y-15971278D01*
X15067573Y-16189552D02*
X15044552Y-16212573D01*
X14995448Y-16117427D02*
X14972427Y-16140448D01*
X14994000Y-15804972D02*
X14994000Y-15837528D01*
X15096000Y-15804972D02*
X15096000Y-15837528D01*
X15502472Y-16196000D02*
X15535028Y-16196000D01*
X15502472Y-16094000D02*
X15535028Y-16094000D01*
X15656278Y-16274000D02*
X15623722Y-16274000D01*
X15656278Y-16376000D02*
X15623722Y-16376000D01*
X15744000Y-15344972D02*
X15744000Y-15377528D01*
X15846000Y-15344972D02*
X15846000Y-15377528D01*
D10*
X15702500Y-15527500D02*
X15287500Y-15527500D01*
X15702500Y-16037500D02*
X15842500Y-16037500D01*
X15702500Y-16042500D02*
X15287500Y-16042500D01*
X15702500Y-16042500D02*
X15702500Y-16037500D01*
X15702500Y-15527500D02*
X15702500Y-15542000D01*
X15287500Y-15527500D02*
X15287500Y-15542000D01*
X15287500Y-16042500D02*
X15287500Y-16028000D01*
D12*
X14989000Y-15480028D02*
X14989000Y-15447472D01*
X15091000Y-15480028D02*
X15091000Y-15447472D01*
X15335028Y-16336000D02*
X15302472Y-16336000D01*
X15335028Y-16234000D02*
X15302472Y-16234000D01*
X15991000Y-15642528D02*
X15991000Y-15609972D01*
X15889000Y-15642528D02*
X15889000Y-15609972D01*
X12946000Y-10302000D02*
X12730000Y-10302000D01*
X12946000Y-10302000D02*
X12946000Y-10395000D01*
X12946000Y-10618000D02*
X12800000Y-10618000D01*
X12946000Y-10618000D02*
X12946000Y-10525000D01*
X12589000Y-16386278D02*
X12589000Y-16353722D01*
X12691000Y-16386278D02*
X12691000Y-16353722D01*
X11899000Y-15636278D02*
X11899000Y-15603722D01*
X12001000Y-15636278D02*
X12001000Y-15603722D01*
X12584972Y-15556000D02*
X12617528Y-15556000D01*
X12584972Y-15454000D02*
X12617528Y-15454000D01*
X12402472Y-16394000D02*
X12435028Y-16394000D01*
X12402472Y-16496000D02*
X12435028Y-16496000D01*
X12311278Y-15571000D02*
X12278722Y-15571000D01*
X12311278Y-15469000D02*
X12278722Y-15469000D01*
X12131278Y-16496000D02*
X12098722Y-16496000D01*
X12131278Y-16394000D02*
X12098722Y-16394000D01*
X18731500Y-13393000D02*
X17251500Y-13393000D01*
X18731500Y-13573000D02*
X18731500Y-13393000D01*
X19225500Y-11019000D02*
X18731500Y-11019000D01*
X19225500Y-13393000D02*
X19495500Y-13393000D01*
X19225500Y-11019000D02*
X19225500Y-11169000D01*
X17251500Y-11169000D02*
X17251500Y-13393000D01*
X19495500Y-11169000D02*
X19495500Y-13393000D01*
X18731500Y-11169000D02*
X18731500Y-11019000D01*
X19225500Y-13573000D02*
X18731500Y-13573000D01*
X19225500Y-13393000D02*
X19225500Y-13573000D01*
X18731500Y-11169000D02*
X17251500Y-11169000D01*
X19225500Y-11169000D02*
X19495500Y-11169000D01*
X12198500Y-14199142D02*
X12198500Y-14250858D01*
X12056500Y-14199142D02*
X12056500Y-14250858D01*
X9554000Y-14076278D02*
X9554000Y-14043722D01*
X9656000Y-14076278D02*
X9656000Y-14043722D01*
X9706278Y-13774000D02*
X9673722Y-13774000D01*
X9706278Y-13876000D02*
X9673722Y-13876000D01*
X12603778Y-13201500D02*
X12571222Y-13201500D01*
X12603778Y-13303500D02*
X12571222Y-13303500D01*
X12968500Y-14176000D02*
X12733500Y-14176000D01*
X12862056Y-13494000D02*
X12733500Y-13494000D01*
X12851625Y-13430625D02*
X12772875Y-13430625D01*
X12812250Y-13391250D02*
X12812250Y-13470000D01*
X12392944Y-13494000D02*
X12286500Y-13600444D01*
X12286500Y-14176000D02*
X12521500Y-14176000D01*
X12968500Y-13600444D02*
X12968500Y-14176000D01*
X12862056Y-13494000D02*
X12968500Y-13600444D01*
X12392944Y-13494000D02*
X12521500Y-13494000D01*
X12286500Y-13600444D02*
X12286500Y-14176000D01*
X11386500Y-14232528D02*
X11386500Y-14199972D01*
X11488500Y-14232528D02*
X11488500Y-14199972D01*
X11774556Y-13209000D02*
X11881000Y-13315444D01*
X11881000Y-13891000D02*
X11646000Y-13891000D01*
X11305444Y-13209000D02*
X11434000Y-13209000D01*
X11881000Y-13315444D02*
X11881000Y-13891000D01*
X11764125Y-13145625D02*
X11685375Y-13145625D01*
X11199000Y-13315444D02*
X11199000Y-13891000D01*
X11774556Y-13209000D02*
X11646000Y-13209000D01*
X11305444Y-13209000D02*
X11199000Y-13315444D01*
X11724750Y-13106250D02*
X11724750Y-13185000D01*
X11199000Y-13891000D02*
X11434000Y-13891000D01*
X12571222Y-13051500D02*
X12603778Y-13051500D01*
X12571222Y-13153500D02*
X12603778Y-13153500D01*
X11853722Y-14026000D02*
X11886278Y-14026000D01*
X11853722Y-13924000D02*
X11886278Y-13924000D01*
D10*
X12032500Y-15782500D02*
X12047000Y-15782500D01*
X12547500Y-16197500D02*
X12547500Y-15782500D01*
X12032500Y-16197500D02*
X12032500Y-15782500D01*
X12032500Y-16197500D02*
X12037500Y-16197500D01*
X12037500Y-16197500D02*
X12037500Y-16337500D01*
X12547500Y-15782500D02*
X12533000Y-15782500D01*
X12547500Y-16197500D02*
X12533000Y-16197500D01*
D12*
X11684500Y-14149000D02*
X11777500Y-14149000D01*
X12000500Y-14149000D02*
X12000500Y-14295000D01*
X12000500Y-14149000D02*
X11907500Y-14149000D01*
X11684500Y-14149000D02*
X11684500Y-14365000D01*
X12531500Y-13010500D02*
X12531500Y-12917500D01*
X12531500Y-13010500D02*
X12747500Y-13010500D01*
X12531500Y-12694500D02*
X12531500Y-12787500D01*
X12531500Y-12694500D02*
X12677500Y-12694500D01*
X12408500Y-12957528D02*
X12408500Y-12924972D01*
X12306500Y-12957528D02*
X12306500Y-12924972D01*
X12551642Y-12481500D02*
X12603358Y-12481500D01*
X12551642Y-12623500D02*
X12603358Y-12623500D01*
X11536500Y-14208722D02*
X11536500Y-14241278D01*
X11638500Y-14208722D02*
X11638500Y-14241278D01*
X13998722Y-15494000D02*
X14031278Y-15494000D01*
X13998722Y-15596000D02*
X14031278Y-15596000D01*
X13284000Y-15681278D02*
X13284000Y-15648722D01*
X13386000Y-15681278D02*
X13386000Y-15648722D01*
X13712528Y-15494000D02*
X13679972Y-15494000D01*
X13712528Y-15596000D02*
X13679972Y-15596000D01*
X14286000Y-15983722D02*
X14286000Y-16016278D01*
X14184000Y-15983722D02*
X14184000Y-16016278D01*
X14329000Y-15983722D02*
X14329000Y-16016278D01*
X14431000Y-15983722D02*
X14431000Y-16016278D01*
X13797472Y-16394000D02*
X13830028Y-16394000D01*
X13797472Y-16496000D02*
X13830028Y-16496000D01*
X13532528Y-16394000D02*
X13499972Y-16394000D01*
X13532528Y-16496000D02*
X13499972Y-16496000D01*
X14184000Y-15717528D02*
X14184000Y-15684972D01*
X14286000Y-15717528D02*
X14286000Y-15684972D01*
X14431000Y-15717528D02*
X14431000Y-15684972D01*
X14329000Y-15717528D02*
X14329000Y-15684972D01*
D10*
X13437500Y-16202500D02*
X13442500Y-16202500D01*
X13437500Y-15787500D02*
X13452000Y-15787500D01*
X13442500Y-16202500D02*
X13442500Y-16342500D01*
X13952500Y-15787500D02*
X13938000Y-15787500D01*
X13437500Y-16202500D02*
X13437500Y-15787500D01*
X13952500Y-16202500D02*
X13952500Y-15787500D01*
X13952500Y-16202500D02*
X13938000Y-16202500D01*
D12*
X13031000Y-15893722D02*
X13031000Y-15926278D01*
X12929000Y-15893722D02*
X12929000Y-15926278D01*
X12779000Y-15889972D02*
X12779000Y-15922528D01*
X12881000Y-15889972D02*
X12881000Y-15922528D01*
X12881000Y-15627528D02*
X12881000Y-15594972D01*
X12779000Y-15627528D02*
X12779000Y-15594972D01*
X12929000Y-15625028D02*
X12929000Y-15592472D01*
X13031000Y-15625028D02*
X13031000Y-15592472D01*
X14101000Y-16456278D02*
X14101000Y-16423722D01*
X13999000Y-16456278D02*
X13999000Y-16423722D01*
X13271000Y-15105028D02*
X13271000Y-15072472D01*
X13169000Y-15105028D02*
X13169000Y-15072472D01*
X13019000Y-15106278D02*
X13019000Y-15073722D01*
X13121000Y-15106278D02*
X13121000Y-15073722D01*
X12718722Y-14519000D02*
X12751278Y-14519000D01*
X12718722Y-14621000D02*
X12751278Y-14621000D01*
X12720222Y-14665500D02*
X12752778Y-14665500D01*
X12720222Y-14767500D02*
X12752778Y-14767500D01*
X19490500Y-14519000D02*
X19490500Y-16743000D01*
X19220500Y-14369000D02*
X19220500Y-14519000D01*
X19220500Y-16743000D02*
X19220500Y-16923000D01*
X19220500Y-14369000D02*
X18726500Y-14369000D01*
X18726500Y-16743000D02*
X17246500Y-16743000D01*
X18726500Y-14519000D02*
X17246500Y-14519000D01*
X19220500Y-16923000D02*
X18726500Y-16923000D01*
X18726500Y-16923000D02*
X18726500Y-16743000D01*
X18726500Y-14519000D02*
X18726500Y-14369000D01*
X19220500Y-14519000D02*
X19490500Y-14519000D01*
X19220500Y-16743000D02*
X19490500Y-16743000D01*
X17246500Y-14519000D02*
X17246500Y-16743000D01*
X9691000Y-14339000D02*
X9691000Y-14519000D01*
X8927000Y-16743000D02*
X8927000Y-14519000D01*
X9197000Y-14339000D02*
X9691000Y-14339000D01*
X9197000Y-16893000D02*
X9197000Y-16743000D01*
X9197000Y-16893000D02*
X9691000Y-16893000D01*
X11081000Y-15071000D02*
X11081000Y-14519000D01*
X11081000Y-15791000D02*
X11081000Y-15831000D01*
X11081000Y-16743000D02*
X11081000Y-16191000D01*
X9691000Y-16743000D02*
X9691000Y-16893000D01*
X11081000Y-15471000D02*
X11081000Y-15431000D01*
X9197000Y-16743000D02*
X8927000Y-16743000D01*
X9197000Y-14519000D02*
X8927000Y-14519000D01*
X9197000Y-14519000D02*
X9197000Y-14339000D01*
X9691000Y-16743000D02*
X11081000Y-16743000D01*
X9691000Y-14519000D02*
X11081000Y-14519000D01*
X16039000Y-15632108D02*
X16039000Y-15580392D01*
X16181000Y-15632108D02*
X16181000Y-15580392D01*
X14801500Y-15469608D02*
X14801500Y-15417892D01*
X14943500Y-15469608D02*
X14943500Y-15417892D01*
X16183500Y-15947892D02*
X16183500Y-15999608D01*
X16041500Y-15947892D02*
X16041500Y-15999608D01*
X14806500Y-15815392D02*
X14806500Y-15867108D01*
X14948500Y-15815392D02*
X14948500Y-15867108D01*
X16051500Y-12574608D02*
X16051500Y-12522892D01*
X16193500Y-12574608D02*
X16193500Y-12522892D01*
X14814000Y-12418358D02*
X14814000Y-12366642D01*
X14956000Y-12418358D02*
X14956000Y-12366642D01*
X16051500Y-12884142D02*
X16051500Y-12935858D01*
X16193500Y-12884142D02*
X16193500Y-12935858D01*
X14956000Y-12755392D02*
X14956000Y-12807108D01*
X14814000Y-12755392D02*
X14814000Y-12807108D01*
X12592892Y-15266500D02*
X12644608Y-15266500D01*
X12592892Y-15408500D02*
X12644608Y-15408500D01*
X14005392Y-15446000D02*
X14057108Y-15446000D01*
X14005392Y-15304000D02*
X14057108Y-15304000D01*
X13782892Y-16544000D02*
X13834608Y-16544000D01*
X13782892Y-16686000D02*
X13834608Y-16686000D01*
X13719608Y-15304000D02*
X13667892Y-15304000D01*
X13719608Y-15446000D02*
X13667892Y-15446000D01*
X13497108Y-16686000D02*
X13445392Y-16686000D01*
X13497108Y-16544000D02*
X13445392Y-16544000D01*
X12411642Y-16541500D02*
X12463358Y-16541500D01*
X12411642Y-16683500D02*
X12463358Y-16683500D01*
X12312108Y-15408500D02*
X12260392Y-15408500D01*
X12312108Y-15266500D02*
X12260392Y-15266500D01*
X12122108Y-16544000D02*
X12070392Y-16544000D01*
X12122108Y-16686000D02*
X12070392Y-16686000D01*
X15861000Y-13782472D02*
X15861000Y-13815028D01*
X15759000Y-13782472D02*
X15759000Y-13815028D01*
X14951132Y-14616743D02*
X14928112Y-14639763D01*
X15023257Y-14688867D02*
X15000237Y-14711888D01*
X14961000Y-13982108D02*
X14961000Y-13930392D01*
X14819000Y-13982108D02*
X14819000Y-13930392D01*
X16059000Y-14417892D02*
X16059000Y-14469608D01*
X16201000Y-14417892D02*
X16201000Y-14469608D01*
X14961000Y-14307892D02*
X14961000Y-14359608D01*
X14819000Y-14307892D02*
X14819000Y-14359608D01*
X15403722Y-14671000D02*
X15436278Y-14671000D01*
X15403722Y-14569000D02*
X15436278Y-14569000D01*
X15712472Y-14569000D02*
X15745028Y-14569000D01*
X15712472Y-14671000D02*
X15745028Y-14671000D01*
X16011000Y-14116278D02*
X16011000Y-14083722D01*
X15909000Y-14116278D02*
X15909000Y-14083722D01*
X15009000Y-13997528D02*
X15009000Y-13964972D01*
X15111000Y-13997528D02*
X15111000Y-13964972D01*
X16011000Y-14403722D02*
X16011000Y-14436278D01*
X15909000Y-14403722D02*
X15909000Y-14436278D01*
X15111000Y-14293722D02*
X15111000Y-14326278D01*
X15009000Y-14293722D02*
X15009000Y-14326278D01*
X15147528Y-13811000D02*
X15114972Y-13811000D01*
X15147528Y-13709000D02*
X15114972Y-13709000D01*
X16011000Y-13782472D02*
X16011000Y-13815028D01*
X15909000Y-13782472D02*
X15909000Y-13815028D01*
X15305028Y-13869000D02*
X15272472Y-13869000D01*
X15305028Y-13971000D02*
X15272472Y-13971000D01*
X15572472Y-13869000D02*
X15605028Y-13869000D01*
X15572472Y-13971000D02*
X15605028Y-13971000D01*
X15579000Y-15235028D02*
X15579000Y-15202472D01*
X15681000Y-15235028D02*
X15681000Y-15202472D01*
X15510000Y-14526000D02*
X15315000Y-14526000D01*
X15510000Y-14526000D02*
X15855000Y-14526000D01*
X15510000Y-14014000D02*
X15315000Y-14014000D01*
X15510000Y-14014000D02*
X15705000Y-14014000D01*
X16201000Y-14112108D02*
X16201000Y-14060392D01*
X16059000Y-14112108D02*
X16059000Y-14060392D01*
X14921132Y-11466743D02*
X14898112Y-11489763D01*
X14993257Y-11538867D02*
X14970237Y-11561888D01*
X16141000Y-10989608D02*
X16141000Y-10937892D01*
X15999000Y-10989608D02*
X15999000Y-10937892D01*
X14911000Y-10862108D02*
X14911000Y-10810392D01*
X14769000Y-10862108D02*
X14769000Y-10810392D01*
X16141000Y-11294142D02*
X16141000Y-11345858D01*
X15999000Y-11294142D02*
X15999000Y-11345858D01*
X14911000Y-11177892D02*
X14911000Y-11229608D01*
X14769000Y-11177892D02*
X14769000Y-11229608D01*
X15205028Y-14719000D02*
X15172472Y-14719000D01*
X15205028Y-14821000D02*
X15172472Y-14821000D01*
X15701000Y-12135028D02*
X15701000Y-12102472D01*
X15599000Y-12135028D02*
X15599000Y-12102472D01*
X15361000Y-12136278D02*
X15361000Y-12103722D01*
X15259000Y-12136278D02*
X15259000Y-12103722D01*
X15654972Y-11449000D02*
X15687528Y-11449000D01*
X15654972Y-11551000D02*
X15687528Y-11551000D01*
X15475028Y-11599000D02*
X15442472Y-11599000D01*
X15475028Y-11701000D02*
X15442472Y-11701000D01*
X15175028Y-11599000D02*
X15142472Y-11599000D01*
X15175028Y-11701000D02*
X15142472Y-11701000D01*
X15951000Y-11005028D02*
X15951000Y-10972472D01*
X15849000Y-11005028D02*
X15849000Y-10972472D01*
X14959000Y-10876278D02*
X14959000Y-10843722D01*
X15061000Y-10876278D02*
X15061000Y-10843722D01*
X15849000Y-11282472D02*
X15849000Y-11315028D01*
X15951000Y-11282472D02*
X15951000Y-11315028D01*
X14959000Y-11164972D02*
X14959000Y-11197528D01*
X15061000Y-11164972D02*
X15061000Y-11197528D01*
X15951000Y-10674972D02*
X15951000Y-10707528D01*
X15849000Y-10674972D02*
X15849000Y-10707528D01*
X15246278Y-10851000D02*
X15213722Y-10851000D01*
X15246278Y-10749000D02*
X15213722Y-10749000D01*
X15457500Y-10891500D02*
X15652500Y-10891500D01*
X15457500Y-11403500D02*
X15802500Y-11403500D01*
X15457500Y-11403500D02*
X15262500Y-11403500D01*
X15457500Y-10891500D02*
X15262500Y-10891500D01*
X15801000Y-10682472D02*
X15801000Y-10715028D01*
X15699000Y-10682472D02*
X15699000Y-10715028D01*
X15516278Y-14719000D02*
X15483722Y-14719000D01*
X15516278Y-14821000D02*
X15483722Y-14821000D01*
X15512472Y-10851000D02*
X15545028Y-10851000D01*
X15512472Y-10749000D02*
X15545028Y-10749000D01*
X15249000Y-15237528D02*
X15249000Y-15204972D01*
X15351000Y-15237528D02*
X15351000Y-15204972D01*
X15167528Y-10691000D02*
X15134972Y-10691000D01*
X15167528Y-10589000D02*
X15134972Y-10589000D01*
X15354972Y-11551000D02*
X15387528Y-11551000D01*
X15354972Y-11449000D02*
X15387528Y-11449000D01*
X15510858Y-15026000D02*
X15459142Y-15026000D01*
X15510858Y-14884000D02*
X15459142Y-14884000D01*
X15490858Y-11921500D02*
X15439142Y-11921500D01*
X15490858Y-11779500D02*
X15439142Y-11779500D01*
X13944142Y-14431000D02*
X13995858Y-14431000D01*
X13944142Y-14289000D02*
X13995858Y-14289000D01*
X13164142Y-14451000D02*
X13215858Y-14451000D01*
X13164142Y-14309000D02*
X13215858Y-14309000D01*
M02*
