G04 #@! TF.GenerationSoftware,KiCad,Pcbnew,6.0.2+dfsg-1*
G04 #@! TF.CreationDate,2022-08-31T21:38:22+10:00*
G04 #@! TF.ProjectId,AudioInjector.ABS.v1.balanced.preamplifier,41756469-6f49-46e6-9a65-63746f722e41,rev?*
G04 #@! TF.SameCoordinates,Original*
G04 #@! TF.FileFunction,Legend,Bot*
G04 #@! TF.FilePolarity,Positive*
%FSLAX45Y45*%
G04 Gerber Fmt 4.5, Leading zero omitted, Abs format (unit mm)*
G04 Created by KiCad (PCBNEW 6.0.2+dfsg-1) date 2022-08-31 21:38:22*
%MOMM*%
%LPD*%
G01*
G04 APERTURE LIST*
%ADD10C,0.120000*%
G04 APERTURE END LIST*
D10*
X16708000Y-12117000D02*
X16575000Y-12117000D01*
X16708000Y-13653000D02*
X16442000Y-13653000D01*
X16708000Y-12377000D02*
X16442000Y-12377000D01*
X16442000Y-12377000D02*
X16442000Y-13653000D01*
X16708000Y-12377000D02*
X16708000Y-13653000D01*
X16708000Y-12250000D02*
X16708000Y-12117000D01*
X9833000Y-10402000D02*
X9833000Y-10269000D01*
X9567000Y-10529000D02*
X9567000Y-11043000D01*
X9833000Y-10529000D02*
X9833000Y-11043000D01*
X9833000Y-10269000D02*
X9700000Y-10269000D01*
X9833000Y-10529000D02*
X9567000Y-10529000D01*
X9833000Y-11043000D02*
X9567000Y-11043000D01*
X12208000Y-12885000D02*
X12208000Y-13653000D01*
X11942000Y-12885000D02*
X11942000Y-13653000D01*
X12208000Y-12885000D02*
X11942000Y-12885000D01*
X12208000Y-13653000D02*
X11942000Y-13653000D01*
X12208000Y-12758000D02*
X12208000Y-12625000D01*
X12208000Y-12625000D02*
X12075000Y-12625000D01*
X13708000Y-13653000D02*
X13442000Y-13653000D01*
X13708000Y-12250000D02*
X13708000Y-12117000D01*
X13708000Y-12377000D02*
X13442000Y-12377000D01*
X13442000Y-12377000D02*
X13442000Y-13653000D01*
X13708000Y-12377000D02*
X13708000Y-13653000D01*
X13708000Y-12117000D02*
X13575000Y-12117000D01*
M02*
