G04 #@! TF.GenerationSoftware,KiCad,Pcbnew,6.0.2+dfsg-1*
G04 #@! TF.CreationDate,2022-08-31T21:38:21+10:00*
G04 #@! TF.ProjectId,AudioInjector.ABS.v1.balanced.preamplifier,41756469-6f49-46e6-9a65-63746f722e41,rev?*
G04 #@! TF.SameCoordinates,Original*
G04 #@! TF.FileFunction,Copper,L3,Inr*
G04 #@! TF.FilePolarity,Positive*
%FSLAX45Y45*%
G04 Gerber Fmt 4.5, Leading zero omitted, Abs format (unit mm)*
G04 Created by KiCad (PCBNEW 6.0.2+dfsg-1) date 2022-08-31 21:38:21*
%MOMM*%
%LPD*%
G01*
G04 APERTURE LIST*
G04 #@! TA.AperFunction,ComponentPad*
%ADD10C,3.400000*%
G04 #@! TD*
G04 #@! TA.AperFunction,ComponentPad*
%ADD11C,2.900000*%
G04 #@! TD*
G04 #@! TA.AperFunction,ComponentPad*
%ADD12R,1.700000X1.700000*%
G04 #@! TD*
G04 #@! TA.AperFunction,ComponentPad*
%ADD13O,1.700000X1.700000*%
G04 #@! TD*
G04 #@! TA.AperFunction,ViaPad*
%ADD14C,0.500000*%
G04 #@! TD*
G04 APERTURE END LIST*
D10*
X10987000Y-11900000D03*
X10987000Y-12662000D03*
D11*
X10987000Y-12281000D03*
X10479000Y-12281000D03*
D10*
X17943500Y-11900000D03*
X17880000Y-12662000D03*
D11*
X17498500Y-12281000D03*
X18515500Y-11456000D03*
D10*
X17938500Y-15250000D03*
X17875000Y-16012000D03*
D11*
X17493500Y-15631000D03*
X18510500Y-14806000D03*
D10*
X10987000Y-15250000D03*
X10987000Y-16012000D03*
D11*
X10987000Y-15631000D03*
X10479000Y-15631000D03*
D12*
X16575000Y-12250000D03*
D13*
X16575000Y-12504000D03*
X16575000Y-12758000D03*
X16575000Y-13012000D03*
X16575000Y-13266000D03*
X16575000Y-13520000D03*
D12*
X9700000Y-10402000D03*
D13*
X9700000Y-10656000D03*
X9700000Y-10910000D03*
D12*
X12075000Y-12758000D03*
D13*
X12075000Y-13012000D03*
X12075000Y-13266000D03*
X12075000Y-13520000D03*
D12*
X13575000Y-12250000D03*
D13*
X13575000Y-12504000D03*
X13575000Y-12758000D03*
X13575000Y-13012000D03*
X13575000Y-13266000D03*
X13575000Y-13520000D03*
D14*
X13360000Y-15375000D03*
X13755000Y-15200000D03*
X14330000Y-11890000D03*
X14050000Y-12910000D03*
X13610000Y-10990000D03*
X18930000Y-12727500D03*
X13020000Y-14150000D03*
X13080000Y-16920000D03*
X12660000Y-14410000D03*
X16320000Y-14130000D03*
X17570000Y-12790000D03*
X11910000Y-13650000D03*
X14100000Y-11150000D03*
X17400000Y-12580000D03*
X15230000Y-16155000D03*
X16890000Y-14530000D03*
X15350000Y-10520000D03*
X14760000Y-13950000D03*
X18922500Y-15992500D03*
X12885000Y-11805000D03*
X18587500Y-10217500D03*
X9440000Y-11145000D03*
X14717500Y-15555000D03*
X17600000Y-15880000D03*
X17490000Y-10990000D03*
X13700000Y-15940000D03*
X18355000Y-11725000D03*
X11975000Y-11875000D03*
X14710000Y-10830000D03*
X15840000Y-13350000D03*
X19125000Y-11512500D03*
X15440000Y-16790000D03*
X14930000Y-10420000D03*
X10240000Y-16540000D03*
X10565000Y-15370000D03*
X14837500Y-15215000D03*
X15680000Y-12380000D03*
X13700000Y-15940000D03*
X12180000Y-12090000D03*
X13320000Y-14610000D03*
X14670000Y-13480000D03*
X17140000Y-17110000D03*
X10750000Y-12675000D03*
X13265000Y-12655000D03*
X18497500Y-11180000D03*
X15290000Y-16930000D03*
X17590000Y-12540000D03*
X12812500Y-16247500D03*
X13040000Y-16460000D03*
X11450000Y-11050000D03*
X11130000Y-16300000D03*
X12545000Y-15895000D03*
X12397500Y-15895000D03*
X11215000Y-15650000D03*
X12170000Y-10980000D03*
X9300000Y-13845000D03*
X14400000Y-16210000D03*
X11850000Y-12805000D03*
X18962500Y-14725000D03*
X16020000Y-10760000D03*
X10550000Y-16040000D03*
X18287500Y-11295000D03*
X16880000Y-12080000D03*
X15670000Y-13750000D03*
X14200000Y-16330000D03*
X16870000Y-15250000D03*
X11985000Y-12580000D03*
X14380000Y-10720000D03*
X16120000Y-15230000D03*
X13330000Y-15940000D03*
X13640000Y-11400000D03*
X16150000Y-16790000D03*
X9812500Y-12947500D03*
X14270000Y-12200000D03*
X14500000Y-14990000D03*
X11245000Y-12290000D03*
X9640000Y-17115000D03*
X18347500Y-12467500D03*
X14080000Y-14610000D03*
X13300000Y-12060000D03*
X12390000Y-12710000D03*
X9842500Y-13995000D03*
X18727500Y-10875000D03*
X13450000Y-11870000D03*
X14880000Y-12150000D03*
X11385000Y-14400000D03*
X11740000Y-16100000D03*
X9455000Y-13130000D03*
X16130000Y-13340000D03*
X11480000Y-13040000D03*
X14670000Y-14240000D03*
X12589999Y-12950001D03*
X15150000Y-15310000D03*
X13330000Y-17100000D03*
X14050000Y-16690000D03*
X14210000Y-13700000D03*
X10452500Y-14670000D03*
X11080000Y-14790000D03*
X16370000Y-13460000D03*
X15370000Y-13770000D03*
X14960000Y-11730000D03*
X13470000Y-16070000D03*
X14180000Y-16910000D03*
X16100000Y-12160000D03*
X12720000Y-16920000D03*
X13330000Y-14160000D03*
X11540000Y-14910000D03*
X16010000Y-13200000D03*
X14130000Y-15990000D03*
X16670000Y-11150000D03*
X19150000Y-10792500D03*
X14690000Y-12470000D03*
X16490000Y-12020000D03*
X12570000Y-11630000D03*
X13030000Y-15410000D03*
X18135000Y-12662500D03*
X9445000Y-14357500D03*
X18505000Y-12795000D03*
X9760000Y-14950000D03*
X13820000Y-12555000D03*
X11470000Y-16530000D03*
X19115000Y-14725000D03*
X16640000Y-15910000D03*
X13850000Y-14620000D03*
X10910000Y-14955000D03*
X11450000Y-13560000D03*
X10137500Y-17010000D03*
X12070000Y-14560000D03*
X16070000Y-10590000D03*
X14780000Y-16395000D03*
X14980000Y-14880000D03*
X10725000Y-16022500D03*
X14270000Y-12770000D03*
X18647500Y-15137500D03*
X9340000Y-14067500D03*
X13400000Y-14925000D03*
X15820000Y-16085000D03*
X18937500Y-11750000D03*
X13960000Y-11920000D03*
X12200000Y-14740000D03*
X9400000Y-16835000D03*
X16267500Y-12555000D03*
X16880000Y-13870000D03*
X15320000Y-13060000D03*
X13350000Y-16290000D03*
X13800000Y-13310000D03*
X17750000Y-15605000D03*
X14080000Y-15680000D03*
X10720000Y-13820000D03*
X9852500Y-11470000D03*
X14620000Y-11430000D03*
X10055000Y-13170000D03*
X13410000Y-12910000D03*
X15150000Y-13280000D03*
X12810000Y-15360000D03*
X15000000Y-12960000D03*
X12360000Y-13210000D03*
X15510000Y-14090000D03*
X12820000Y-12410000D03*
X9850000Y-13440000D03*
X14100000Y-14120000D03*
X15680000Y-15480000D03*
X11750000Y-13860000D03*
X15170000Y-11470000D03*
X14110000Y-11380000D03*
X15480000Y-15290000D03*
X14810000Y-14610000D03*
X14600000Y-16790000D03*
X16860000Y-15410000D03*
X12905000Y-13145000D03*
X13790000Y-11580000D03*
X15070000Y-16325000D03*
X12930000Y-14490000D03*
X12050000Y-11600000D03*
X16880000Y-13735000D03*
X14350000Y-11500000D03*
X16860000Y-16040000D03*
X17300000Y-16840000D03*
X15250000Y-14560000D03*
X9452500Y-16390000D03*
X16080000Y-15405000D03*
X18170000Y-16740000D03*
X13160000Y-11150000D03*
X14540000Y-13100000D03*
X13305000Y-16735000D03*
X12480000Y-12080000D03*
X14360000Y-15230000D03*
X16660000Y-15230000D03*
X14732500Y-15332500D03*
X16330000Y-16110000D03*
X12620000Y-11150000D03*
X10450000Y-11265000D03*
X15440000Y-11330000D03*
X14520000Y-14100000D03*
X15790000Y-12070000D03*
X12650000Y-16760000D03*
X13730000Y-11890000D03*
X15180000Y-13130000D03*
X16540000Y-14950000D03*
X12187500Y-15950000D03*
X11935000Y-15870000D03*
X15860000Y-11590000D03*
X15835000Y-16335000D03*
X10232500Y-15565000D03*
X16250000Y-11540000D03*
X12320000Y-14170000D03*
X14700000Y-15010000D03*
X13620000Y-11760000D03*
X16200000Y-10970000D03*
X15440000Y-15715000D03*
X16170000Y-13690000D03*
X9465000Y-13475000D03*
X17040000Y-12010000D03*
X11320000Y-13190000D03*
X18967500Y-14897500D03*
X11140000Y-13060000D03*
X17060000Y-15330000D03*
X12650000Y-13830000D03*
X12510000Y-11370000D03*
X16280000Y-13120000D03*
X16070000Y-11890000D03*
X19127500Y-13877500D03*
X13260000Y-11650000D03*
X16630000Y-14310000D03*
X10102500Y-12460000D03*
X14460000Y-15510000D03*
X11040000Y-16950000D03*
X13210000Y-13170000D03*
X17060000Y-16060000D03*
X12420000Y-16110000D03*
X13790000Y-14120000D03*
X16140000Y-12342500D03*
X15510000Y-12220000D03*
X14730000Y-15160000D03*
X13080000Y-16160000D03*
X13500000Y-15020000D03*
X12645000Y-16600000D03*
X13785000Y-12140000D03*
X14000000Y-11660000D03*
X14490000Y-10230000D03*
X15410000Y-16450000D03*
X18922500Y-13895000D03*
X11710000Y-14470000D03*
X12940000Y-15160000D03*
X15520000Y-10270000D03*
X15470000Y-15150000D03*
X12640000Y-15000000D03*
X17332500Y-12057500D03*
X16860000Y-12800000D03*
X12550000Y-11870000D03*
X16280000Y-15610000D03*
X10292500Y-12697500D03*
X12500000Y-14760000D03*
X12082500Y-16760000D03*
X14800000Y-13600000D03*
X14220000Y-15510000D03*
X15660000Y-11620000D03*
X16070000Y-13880000D03*
X14990000Y-16020000D03*
X12925000Y-14980000D03*
X10182500Y-14792500D03*
X14240000Y-16750000D03*
X17650000Y-16230000D03*
X14750000Y-16092500D03*
X10270000Y-12040000D03*
X14530000Y-13680000D03*
X15490000Y-14420000D03*
X12190000Y-11420000D03*
X11740000Y-15110000D03*
X16650000Y-15410000D03*
X18942500Y-16847500D03*
X18757500Y-17050000D03*
X9470000Y-11725000D03*
X14520000Y-12200000D03*
X12110000Y-15020000D03*
X14660000Y-13220000D03*
X12900000Y-10980000D03*
X16340000Y-16570000D03*
X14560000Y-15200000D03*
X14910000Y-13740000D03*
X15580000Y-13520000D03*
X12730000Y-15930000D03*
X16590000Y-16580000D03*
X15470000Y-12600000D03*
X16650000Y-13730000D03*
X11625000Y-12600000D03*
X14895000Y-16295000D03*
X15580000Y-12810000D03*
X15200000Y-11780000D03*
X14010000Y-16210000D03*
X12280000Y-11890000D03*
X14950000Y-13470000D03*
X17490000Y-10260000D03*
X15580000Y-15875000D03*
X16870000Y-13220000D03*
X14510000Y-13380000D03*
X19140000Y-16850000D03*
X15450000Y-10990000D03*
X15830000Y-13010000D03*
X9782500Y-13610000D03*
X16620000Y-11750000D03*
X15260000Y-17110000D03*
X18912500Y-17125000D03*
X17980000Y-13770000D03*
X12900000Y-11340000D03*
X15410000Y-12930000D03*
X14200000Y-14850000D03*
X13012500Y-16727500D03*
X15320000Y-12440000D03*
X11870000Y-16490000D03*
X16450000Y-11790000D03*
X18727500Y-11595000D03*
X10725000Y-12155000D03*
X16330000Y-14660000D03*
X17050000Y-13650000D03*
X10030000Y-13815000D03*
X12980000Y-14760000D03*
X15600000Y-10620000D03*
X15410000Y-16005000D03*
X11720000Y-11360000D03*
X11330000Y-14050000D03*
X13500000Y-11600000D03*
X12080000Y-13990000D03*
X10062500Y-14377500D03*
X12840000Y-16720000D03*
X14890000Y-13070000D03*
X15280000Y-15490000D03*
X15450000Y-16610000D03*
X11245000Y-12640000D03*
X11740000Y-11140000D03*
X15430000Y-13370000D03*
X13300000Y-11370000D03*
X11960000Y-16930000D03*
X17320000Y-15880000D03*
X16680000Y-11990000D03*
X11985000Y-15370000D03*
X14750000Y-16610000D03*
X15770000Y-15130000D03*
X13410000Y-12250000D03*
X12192500Y-16107500D03*
X15740000Y-14740000D03*
X12595000Y-15680000D03*
X16660000Y-13880000D03*
X13210000Y-13870000D03*
X9830000Y-14402500D03*
X19125000Y-12737500D03*
X18960000Y-12095000D03*
X12320000Y-11540000D03*
X15100000Y-14500000D03*
X14490000Y-15900000D03*
X18790000Y-11352500D03*
X14680000Y-12950000D03*
X16350000Y-16830000D03*
X13580000Y-15150000D03*
X14670000Y-13620000D03*
X12327500Y-15200000D03*
X9435000Y-12510000D03*
X13440000Y-15150000D03*
X15190000Y-14940000D03*
X12770000Y-12140000D03*
X12185000Y-12430000D03*
X11515000Y-15775000D03*
X15440000Y-10660000D03*
X18490000Y-10565000D03*
X14620000Y-11860000D03*
X9415000Y-15540000D03*
X16797500Y-15550000D03*
X16722500Y-15550000D03*
X12980000Y-15687500D03*
X14235000Y-15780000D03*
X12830000Y-15690000D03*
X14380000Y-15780000D03*
X15526517Y-13643483D03*
X12236517Y-11643483D03*
X12183483Y-11696517D03*
X15473483Y-13696517D03*
X13696517Y-11603483D03*
X13920000Y-11752500D03*
X13643483Y-11656517D03*
X13920000Y-11827500D03*
X11243000Y-10342000D03*
X12525000Y-10310000D03*
X9445000Y-14200000D03*
X9870000Y-13820000D03*
X9945000Y-14070000D03*
G04 #@! TA.AperFunction,Conductor*
G36*
X18801322Y-10181891D02*
G01*
X18804918Y-10186841D01*
X18804918Y-10192959D01*
X18801322Y-10197909D01*
X18798273Y-10199405D01*
X18771603Y-10207178D01*
X18771603Y-10207178D01*
X18771334Y-10207257D01*
X18738861Y-10220874D01*
X18738615Y-10221011D01*
X18738615Y-10221012D01*
X18735293Y-10222872D01*
X18708138Y-10238079D01*
X18679561Y-10258652D01*
X18653495Y-10282328D01*
X18653310Y-10282539D01*
X18653310Y-10282540D01*
X18639652Y-10298113D01*
X18630278Y-10308802D01*
X18610207Y-10337735D01*
X18593540Y-10368753D01*
X18593436Y-10369014D01*
X18593436Y-10369014D01*
X18583881Y-10392963D01*
X18580492Y-10401459D01*
X18580418Y-10401729D01*
X18580418Y-10401729D01*
X18571765Y-10433468D01*
X18571230Y-10435432D01*
X18571187Y-10435708D01*
X18571187Y-10435708D01*
X18566440Y-10466551D01*
X18565873Y-10470235D01*
X18565862Y-10470514D01*
X18565862Y-10470514D01*
X18564616Y-10502237D01*
X18564491Y-10505420D01*
X18564512Y-10505700D01*
X18567080Y-10540257D01*
X18567080Y-10540258D01*
X18567100Y-10540536D01*
X18573668Y-10575130D01*
X18584110Y-10608759D01*
X18598292Y-10640990D01*
X18598433Y-10641232D01*
X18598434Y-10641232D01*
X18608765Y-10658947D01*
X18616031Y-10671408D01*
X18637100Y-10699622D01*
X18661227Y-10725270D01*
X18688102Y-10748021D01*
X18717381Y-10767585D01*
X18717629Y-10767713D01*
X18717630Y-10767713D01*
X18739523Y-10778989D01*
X18748685Y-10783708D01*
X18748948Y-10783807D01*
X18748949Y-10783807D01*
X18781351Y-10796083D01*
X18781352Y-10796084D01*
X18781614Y-10796183D01*
X18815743Y-10804851D01*
X18850634Y-10809599D01*
X18850870Y-10809609D01*
X18850870Y-10809609D01*
X18862013Y-10810046D01*
X18862015Y-10810046D01*
X18862108Y-10810050D01*
X18883920Y-10810050D01*
X18903422Y-10808943D01*
X18909876Y-10808576D01*
X18909876Y-10808576D01*
X18910156Y-10808560D01*
X18910432Y-10808513D01*
X18910433Y-10808513D01*
X18944583Y-10802645D01*
X18944584Y-10802645D01*
X18944860Y-10802597D01*
X18945129Y-10802519D01*
X18945129Y-10802519D01*
X18978397Y-10792822D01*
X18978397Y-10792822D01*
X18978666Y-10792743D01*
X19011139Y-10779126D01*
X19041862Y-10761921D01*
X19070440Y-10741348D01*
X19096505Y-10717672D01*
X19097228Y-10716847D01*
X19119537Y-10691409D01*
X19119537Y-10691409D01*
X19119722Y-10691198D01*
X19139793Y-10662265D01*
X19156460Y-10631247D01*
X19165432Y-10608759D01*
X19169404Y-10598801D01*
X19169508Y-10598541D01*
X19170549Y-10594725D01*
X19173903Y-10589608D01*
X19179625Y-10587440D01*
X19185528Y-10589049D01*
X19189358Y-10593821D01*
X19190000Y-10597329D01*
X19190000Y-16881604D01*
X19189748Y-16883823D01*
X19189486Y-16884964D01*
X19189732Y-16886052D01*
X19189730Y-16886976D01*
X19189833Y-16888184D01*
X19188274Y-16917931D01*
X19188166Y-16918961D01*
X19184832Y-16940013D01*
X19182054Y-16945464D01*
X19181526Y-16945955D01*
X18884893Y-17202138D01*
X18878941Y-17204531D01*
X18874548Y-17204762D01*
X18873236Y-17204830D01*
X18872167Y-17204737D01*
X18871122Y-17204736D01*
X18870036Y-17204486D01*
X18868949Y-17204732D01*
X18868948Y-17204732D01*
X18868842Y-17204756D01*
X18866657Y-17205000D01*
X9553396Y-17205000D01*
X9551177Y-17204748D01*
X9550036Y-17204486D01*
X9548948Y-17204732D01*
X9548024Y-17204730D01*
X9546816Y-17204833D01*
X9544172Y-17204695D01*
X9542579Y-17204611D01*
X9536867Y-17202419D01*
X9536261Y-17201886D01*
X9261918Y-16940013D01*
X9234199Y-16913554D01*
X9231295Y-16908168D01*
X9231148Y-16906911D01*
X9231092Y-16905827D01*
X9230171Y-16888261D01*
X9230354Y-16886179D01*
X9230323Y-16886175D01*
X9230388Y-16885618D01*
X9230514Y-16885072D01*
X9230514Y-16885000D01*
X9230248Y-16883832D01*
X9230000Y-16881630D01*
X9230000Y-16011263D01*
X9484444Y-16011263D01*
X9484960Y-16016929D01*
X9485886Y-16027106D01*
X9486311Y-16031780D01*
X9492128Y-16051543D01*
X9501673Y-16069800D01*
X9503240Y-16071749D01*
X9513558Y-16084582D01*
X9514582Y-16085855D01*
X9514953Y-16086167D01*
X9514953Y-16086167D01*
X9521549Y-16091702D01*
X9530363Y-16099098D01*
X9530788Y-16099331D01*
X9530788Y-16099331D01*
X9533528Y-16100837D01*
X9548416Y-16109022D01*
X9548878Y-16109169D01*
X9548878Y-16109169D01*
X9565460Y-16114429D01*
X9568053Y-16115252D01*
X9568534Y-16115306D01*
X9568535Y-16115306D01*
X9583811Y-16117019D01*
X9583811Y-16117019D01*
X9584086Y-16117050D01*
X9595184Y-16117050D01*
X9595424Y-16117026D01*
X9595424Y-16117026D01*
X9610022Y-16115595D01*
X9610022Y-16115595D01*
X9610503Y-16115548D01*
X9610966Y-16115408D01*
X9610966Y-16115408D01*
X9627803Y-16110325D01*
X9630225Y-16109593D01*
X9648415Y-16099922D01*
X9664380Y-16086901D01*
X9672941Y-16076553D01*
X9677204Y-16071400D01*
X9677204Y-16071400D01*
X9677512Y-16071027D01*
X9684545Y-16058020D01*
X9687080Y-16053331D01*
X9687080Y-16053331D01*
X9687310Y-16052905D01*
X9689267Y-16046585D01*
X9693259Y-16033687D01*
X9693259Y-16033687D01*
X9693402Y-16033225D01*
X9693506Y-16032244D01*
X9695505Y-16013218D01*
X9695505Y-16013218D01*
X9695556Y-16012737D01*
X9694944Y-16006015D01*
X10796559Y-16006015D01*
X10796572Y-16006364D01*
X10796572Y-16006365D01*
X10796804Y-16012253D01*
X10797615Y-16032908D01*
X10798660Y-16038627D01*
X10802201Y-16058020D01*
X10802451Y-16059384D01*
X10802561Y-16059716D01*
X10802561Y-16059716D01*
X10810614Y-16083852D01*
X10810968Y-16084915D01*
X10811125Y-16085228D01*
X10811125Y-16085228D01*
X10811961Y-16086901D01*
X10822998Y-16108990D01*
X10838300Y-16131131D01*
X10856570Y-16150894D01*
X10856841Y-16151115D01*
X10856841Y-16151115D01*
X10877170Y-16167666D01*
X10877441Y-16167887D01*
X10900499Y-16181768D01*
X10925282Y-16192263D01*
X10951297Y-16199161D01*
X10951645Y-16199202D01*
X10951645Y-16199202D01*
X10972181Y-16201632D01*
X10978025Y-16202324D01*
X10978373Y-16202316D01*
X10978374Y-16202316D01*
X10990634Y-16202027D01*
X11004931Y-16201690D01*
X11031480Y-16197271D01*
X11031813Y-16197166D01*
X11031813Y-16197165D01*
X11041437Y-16194122D01*
X11057141Y-16189155D01*
X11057457Y-16189004D01*
X11057457Y-16189004D01*
X11081087Y-16177657D01*
X11081087Y-16177656D01*
X11081403Y-16177505D01*
X11103781Y-16162553D01*
X11104041Y-16162319D01*
X11104042Y-16162319D01*
X11123568Y-16144830D01*
X11123568Y-16144830D01*
X11123829Y-16144596D01*
X11141147Y-16123994D01*
X11155389Y-16101157D01*
X11155530Y-16100837D01*
X11166130Y-16076862D01*
X11166130Y-16076861D01*
X11166271Y-16076542D01*
X11166366Y-16076205D01*
X11166366Y-16076205D01*
X11172817Y-16053331D01*
X11173577Y-16050638D01*
X11177160Y-16023964D01*
X11177497Y-16013218D01*
X11177528Y-16012253D01*
X11177528Y-16012252D01*
X11177536Y-16012000D01*
X11177483Y-16011263D01*
X11177112Y-16006015D01*
X17684559Y-16006015D01*
X17684572Y-16006364D01*
X17684572Y-16006365D01*
X17684804Y-16012253D01*
X17685615Y-16032908D01*
X17686660Y-16038627D01*
X17690201Y-16058020D01*
X17690451Y-16059384D01*
X17690561Y-16059716D01*
X17690561Y-16059716D01*
X17698614Y-16083852D01*
X17698968Y-16084915D01*
X17699125Y-16085228D01*
X17699125Y-16085228D01*
X17699961Y-16086901D01*
X17710998Y-16108990D01*
X17726300Y-16131131D01*
X17744570Y-16150894D01*
X17744841Y-16151115D01*
X17744841Y-16151115D01*
X17765170Y-16167666D01*
X17765441Y-16167887D01*
X17788499Y-16181768D01*
X17813282Y-16192263D01*
X17839297Y-16199161D01*
X17839645Y-16199202D01*
X17839645Y-16199202D01*
X17860181Y-16201632D01*
X17866025Y-16202324D01*
X17866373Y-16202316D01*
X17866374Y-16202316D01*
X17878634Y-16202027D01*
X17892931Y-16201690D01*
X17919480Y-16197271D01*
X17919813Y-16197166D01*
X17919813Y-16197165D01*
X17929437Y-16194122D01*
X17945141Y-16189155D01*
X17945457Y-16189004D01*
X17945457Y-16189004D01*
X17969087Y-16177657D01*
X17969087Y-16177656D01*
X17969403Y-16177505D01*
X17991781Y-16162553D01*
X17992041Y-16162319D01*
X17992042Y-16162319D01*
X18011568Y-16144830D01*
X18011568Y-16144830D01*
X18011829Y-16144596D01*
X18029147Y-16123994D01*
X18043389Y-16101157D01*
X18043530Y-16100837D01*
X18054130Y-16076862D01*
X18054130Y-16076861D01*
X18054271Y-16076542D01*
X18054366Y-16076205D01*
X18054366Y-16076205D01*
X18060817Y-16053331D01*
X18061577Y-16050638D01*
X18065160Y-16023964D01*
X18065497Y-16013218D01*
X18065528Y-16012253D01*
X18065528Y-16012252D01*
X18065536Y-16012000D01*
X18065483Y-16011263D01*
X18065153Y-16006600D01*
X18209081Y-16006600D01*
X18209103Y-16007071D01*
X18209103Y-16007071D01*
X18209873Y-16023710D01*
X18210052Y-16027577D01*
X18210163Y-16028035D01*
X18212608Y-16038183D01*
X18214972Y-16047992D01*
X18223664Y-16067108D01*
X18235814Y-16084236D01*
X18238917Y-16087207D01*
X18250643Y-16098432D01*
X18250643Y-16098432D01*
X18250983Y-16098757D01*
X18268625Y-16110148D01*
X18269062Y-16110325D01*
X18285749Y-16117050D01*
X18288102Y-16117998D01*
X18288564Y-16118088D01*
X18308363Y-16121955D01*
X18308363Y-16121955D01*
X18308712Y-16122023D01*
X18309264Y-16122050D01*
X18324747Y-16122050D01*
X18334354Y-16121133D01*
X18339935Y-16120601D01*
X18339936Y-16120601D01*
X18340405Y-16120556D01*
X18360555Y-16114645D01*
X18379224Y-16105029D01*
X18395738Y-16092058D01*
X18409501Y-16076197D01*
X18420017Y-16058020D01*
X18423499Y-16047992D01*
X18426751Y-16038627D01*
X18426751Y-16038627D01*
X18426905Y-16038183D01*
X18427721Y-16032558D01*
X18429851Y-16017867D01*
X18429851Y-16017867D01*
X18429919Y-16017400D01*
X18429897Y-16016929D01*
X18428970Y-15996894D01*
X18428970Y-15996894D01*
X18428948Y-15996423D01*
X18426504Y-15986284D01*
X18424138Y-15976466D01*
X18424138Y-15976466D01*
X18424028Y-15976008D01*
X18415336Y-15956892D01*
X18403186Y-15939764D01*
X18394712Y-15931651D01*
X18388357Y-15925568D01*
X18388357Y-15925568D01*
X18388017Y-15925242D01*
X18370375Y-15913851D01*
X18369938Y-15913675D01*
X18351336Y-15906178D01*
X18351335Y-15906178D01*
X18350898Y-15906002D01*
X18350369Y-15905898D01*
X18330637Y-15902045D01*
X18330637Y-15902045D01*
X18330288Y-15901977D01*
X18329736Y-15901950D01*
X18314253Y-15901950D01*
X18304646Y-15902867D01*
X18299065Y-15903399D01*
X18299065Y-15903399D01*
X18298595Y-15903444D01*
X18278445Y-15909355D01*
X18259776Y-15918970D01*
X18243262Y-15931942D01*
X18229499Y-15947803D01*
X18218983Y-15965980D01*
X18218829Y-15966424D01*
X18218829Y-15966424D01*
X18214378Y-15979241D01*
X18212095Y-15985817D01*
X18212027Y-15986284D01*
X18211234Y-15991756D01*
X18209081Y-16006600D01*
X18065153Y-16006600D01*
X18064169Y-15992702D01*
X18063635Y-15985153D01*
X18057970Y-15958842D01*
X18056118Y-15953823D01*
X18048776Y-15933921D01*
X18048655Y-15933592D01*
X18047765Y-15931942D01*
X18036041Y-15910214D01*
X18036040Y-15910214D01*
X18035874Y-15909906D01*
X18035468Y-15909355D01*
X18020093Y-15888539D01*
X18019884Y-15888257D01*
X18001003Y-15869077D01*
X17979608Y-15852749D01*
X17956126Y-15839598D01*
X17931025Y-15829887D01*
X17930685Y-15829809D01*
X17930684Y-15829808D01*
X17909848Y-15824979D01*
X17904806Y-15823810D01*
X17883804Y-15821991D01*
X17878342Y-15821518D01*
X17878342Y-15821518D01*
X17877993Y-15821488D01*
X17866421Y-15822125D01*
X17851470Y-15822948D01*
X17851469Y-15822948D01*
X17851120Y-15822967D01*
X17824723Y-15828218D01*
X17799329Y-15837135D01*
X17799019Y-15837296D01*
X17799019Y-15837296D01*
X17794588Y-15839598D01*
X17775446Y-15849542D01*
X17775161Y-15849745D01*
X17775161Y-15849745D01*
X17766312Y-15856069D01*
X17753548Y-15865190D01*
X17749211Y-15869327D01*
X17734327Y-15883526D01*
X17734327Y-15883526D01*
X17734074Y-15883767D01*
X17717412Y-15904903D01*
X17703894Y-15928176D01*
X17693790Y-15953121D01*
X17687302Y-15979241D01*
X17684559Y-16006015D01*
X11177112Y-16006015D01*
X11176169Y-15992702D01*
X11175635Y-15985153D01*
X11169970Y-15958842D01*
X11168118Y-15953823D01*
X11160776Y-15933921D01*
X11160655Y-15933592D01*
X11159765Y-15931942D01*
X11148041Y-15910214D01*
X11148040Y-15910214D01*
X11147874Y-15909906D01*
X11147468Y-15909355D01*
X11132093Y-15888539D01*
X11131884Y-15888257D01*
X11113003Y-15869077D01*
X11091608Y-15852749D01*
X11068126Y-15839598D01*
X11043025Y-15829887D01*
X11042685Y-15829809D01*
X11042684Y-15829808D01*
X11021848Y-15824979D01*
X11016806Y-15823810D01*
X10995804Y-15821991D01*
X10990342Y-15821518D01*
X10990342Y-15821518D01*
X10989993Y-15821488D01*
X10978421Y-15822125D01*
X10963470Y-15822948D01*
X10963469Y-15822948D01*
X10963120Y-15822967D01*
X10936723Y-15828218D01*
X10911329Y-15837135D01*
X10911019Y-15837296D01*
X10911019Y-15837296D01*
X10906588Y-15839598D01*
X10887446Y-15849542D01*
X10887161Y-15849745D01*
X10887161Y-15849745D01*
X10878312Y-15856069D01*
X10865548Y-15865190D01*
X10861211Y-15869327D01*
X10846327Y-15883526D01*
X10846327Y-15883526D01*
X10846074Y-15883767D01*
X10829412Y-15904903D01*
X10815894Y-15928176D01*
X10805790Y-15953121D01*
X10799302Y-15979241D01*
X10796559Y-16006015D01*
X9694944Y-16006015D01*
X9694912Y-16005666D01*
X9693733Y-15992702D01*
X9693732Y-15992702D01*
X9693689Y-15992220D01*
X9687872Y-15972457D01*
X9678327Y-15954200D01*
X9672898Y-15947447D01*
X9665722Y-15938522D01*
X9665722Y-15938522D01*
X9665419Y-15938145D01*
X9659625Y-15933283D01*
X9650009Y-15925214D01*
X9650008Y-15925214D01*
X9649637Y-15924902D01*
X9647724Y-15923851D01*
X9643474Y-15921514D01*
X9631584Y-15914978D01*
X9631123Y-15914831D01*
X9631122Y-15914831D01*
X9612408Y-15908895D01*
X9611947Y-15908748D01*
X9611466Y-15908694D01*
X9611466Y-15908694D01*
X9596189Y-15906981D01*
X9596189Y-15906981D01*
X9595914Y-15906950D01*
X9584816Y-15906950D01*
X9584576Y-15906973D01*
X9584576Y-15906973D01*
X9569978Y-15908405D01*
X9569978Y-15908405D01*
X9569497Y-15908452D01*
X9569035Y-15908592D01*
X9569034Y-15908592D01*
X9557787Y-15911987D01*
X9549775Y-15914406D01*
X9531585Y-15924078D01*
X9515620Y-15937099D01*
X9502488Y-15952972D01*
X9502258Y-15953398D01*
X9495215Y-15966424D01*
X9492690Y-15971094D01*
X9492547Y-15971556D01*
X9488230Y-15985503D01*
X9486598Y-15990775D01*
X9486547Y-15991255D01*
X9486547Y-15991256D01*
X9486395Y-15992702D01*
X9484444Y-16011263D01*
X9230000Y-16011263D01*
X9230000Y-15631000D01*
X10313440Y-15631000D01*
X10313470Y-15631387D01*
X10315426Y-15656237D01*
X10315478Y-15656899D01*
X10315569Y-15657277D01*
X10320526Y-15677924D01*
X10321543Y-15682161D01*
X10331485Y-15706163D01*
X10345059Y-15728314D01*
X10345312Y-15728610D01*
X10345312Y-15728610D01*
X10348393Y-15732217D01*
X10361931Y-15748069D01*
X10381686Y-15764941D01*
X10403837Y-15778515D01*
X10427839Y-15788457D01*
X10428216Y-15788548D01*
X10428217Y-15788548D01*
X10440681Y-15791540D01*
X10453101Y-15794522D01*
X10453487Y-15794552D01*
X10453488Y-15794553D01*
X10478613Y-15796530D01*
X10479000Y-15796560D01*
X10479388Y-15796530D01*
X10504512Y-15794553D01*
X10504513Y-15794552D01*
X10504899Y-15794522D01*
X10517319Y-15791540D01*
X10529783Y-15788548D01*
X10529784Y-15788548D01*
X10530161Y-15788457D01*
X10554163Y-15778515D01*
X10576314Y-15764941D01*
X10596069Y-15748069D01*
X10609607Y-15732217D01*
X10612688Y-15728610D01*
X10612688Y-15728610D01*
X10612941Y-15728314D01*
X10626515Y-15706163D01*
X10636457Y-15682161D01*
X10637475Y-15677924D01*
X10642432Y-15657277D01*
X10642522Y-15656899D01*
X10642574Y-15656237D01*
X10644530Y-15631387D01*
X10644560Y-15631000D01*
X10821440Y-15631000D01*
X10821470Y-15631387D01*
X10823426Y-15656237D01*
X10823478Y-15656899D01*
X10823569Y-15657277D01*
X10828526Y-15677924D01*
X10829543Y-15682161D01*
X10839485Y-15706163D01*
X10853059Y-15728314D01*
X10853312Y-15728610D01*
X10853312Y-15728610D01*
X10856393Y-15732217D01*
X10869931Y-15748069D01*
X10889686Y-15764941D01*
X10911837Y-15778515D01*
X10935839Y-15788457D01*
X10936216Y-15788548D01*
X10936217Y-15788548D01*
X10948681Y-15791540D01*
X10961101Y-15794522D01*
X10961487Y-15794552D01*
X10961488Y-15794553D01*
X10986613Y-15796530D01*
X10987000Y-15796560D01*
X10987388Y-15796530D01*
X11012512Y-15794553D01*
X11012513Y-15794552D01*
X11012899Y-15794522D01*
X11025319Y-15791540D01*
X11037783Y-15788548D01*
X11037784Y-15788548D01*
X11038161Y-15788457D01*
X11059921Y-15779444D01*
X14189490Y-15779444D01*
X14189582Y-15780144D01*
X14189582Y-15780144D01*
X14189708Y-15781112D01*
X14191163Y-15792239D01*
X14191447Y-15792884D01*
X14191447Y-15792885D01*
X14196076Y-15803405D01*
X14196360Y-15804051D01*
X14200512Y-15808990D01*
X14204210Y-15813389D01*
X14204210Y-15813389D01*
X14204664Y-15813929D01*
X14215406Y-15821080D01*
X14216079Y-15821290D01*
X14216079Y-15821290D01*
X14221385Y-15822948D01*
X14227723Y-15824928D01*
X14234174Y-15825046D01*
X14239920Y-15825151D01*
X14239920Y-15825151D01*
X14240625Y-15825164D01*
X14241306Y-15824979D01*
X14241306Y-15824979D01*
X14245703Y-15823780D01*
X14253075Y-15821770D01*
X14264072Y-15815018D01*
X14272732Y-15805451D01*
X14278359Y-15793837D01*
X14280500Y-15781112D01*
X14280513Y-15780000D01*
X14280434Y-15779444D01*
X14334490Y-15779444D01*
X14334582Y-15780144D01*
X14334582Y-15780144D01*
X14334708Y-15781112D01*
X14336163Y-15792239D01*
X14336447Y-15792884D01*
X14336447Y-15792885D01*
X14341076Y-15803405D01*
X14341360Y-15804051D01*
X14345512Y-15808990D01*
X14349210Y-15813389D01*
X14349210Y-15813389D01*
X14349664Y-15813929D01*
X14360406Y-15821080D01*
X14361079Y-15821290D01*
X14361079Y-15821290D01*
X14366385Y-15822948D01*
X14372723Y-15824928D01*
X14379174Y-15825046D01*
X14384920Y-15825151D01*
X14384920Y-15825151D01*
X14385625Y-15825164D01*
X14386306Y-15824979D01*
X14386306Y-15824979D01*
X14390703Y-15823780D01*
X14398075Y-15821770D01*
X14409072Y-15815018D01*
X14417732Y-15805451D01*
X14423359Y-15793837D01*
X14425500Y-15781112D01*
X14425513Y-15780000D01*
X14423684Y-15767226D01*
X14418343Y-15755479D01*
X14409919Y-15745703D01*
X14409328Y-15745319D01*
X14409327Y-15745319D01*
X14399682Y-15739068D01*
X14399091Y-15738684D01*
X14398415Y-15738482D01*
X14398415Y-15738482D01*
X14394133Y-15737202D01*
X14386727Y-15734987D01*
X14379064Y-15734940D01*
X14374528Y-15734912D01*
X14373823Y-15734908D01*
X14373145Y-15735101D01*
X14373145Y-15735101D01*
X14362093Y-15738260D01*
X14362093Y-15738260D01*
X14361415Y-15738454D01*
X14350502Y-15745340D01*
X14341960Y-15755012D01*
X14336475Y-15766693D01*
X14334490Y-15779444D01*
X14280434Y-15779444D01*
X14278684Y-15767226D01*
X14273343Y-15755479D01*
X14264919Y-15745703D01*
X14264328Y-15745319D01*
X14264327Y-15745319D01*
X14254682Y-15739068D01*
X14254091Y-15738684D01*
X14253415Y-15738482D01*
X14253415Y-15738482D01*
X14249133Y-15737202D01*
X14241727Y-15734987D01*
X14234064Y-15734940D01*
X14229528Y-15734912D01*
X14228823Y-15734908D01*
X14228145Y-15735101D01*
X14228145Y-15735101D01*
X14217093Y-15738260D01*
X14217093Y-15738260D01*
X14216415Y-15738454D01*
X14205502Y-15745340D01*
X14196960Y-15755012D01*
X14191475Y-15766693D01*
X14189490Y-15779444D01*
X11059921Y-15779444D01*
X11062163Y-15778515D01*
X11084314Y-15764941D01*
X11104069Y-15748069D01*
X11117607Y-15732217D01*
X11120688Y-15728610D01*
X11120688Y-15728610D01*
X11120941Y-15728314D01*
X11134515Y-15706163D01*
X11141441Y-15689444D01*
X12784490Y-15689444D01*
X12784582Y-15690144D01*
X12784582Y-15690144D01*
X12784708Y-15691112D01*
X12786163Y-15702239D01*
X12786447Y-15702884D01*
X12786447Y-15702885D01*
X12791076Y-15713405D01*
X12791360Y-15714051D01*
X12795512Y-15718990D01*
X12799210Y-15723389D01*
X12799210Y-15723389D01*
X12799664Y-15723929D01*
X12810406Y-15731080D01*
X12811079Y-15731290D01*
X12811079Y-15731290D01*
X12815437Y-15732651D01*
X12822723Y-15734928D01*
X12829174Y-15735046D01*
X12834920Y-15735151D01*
X12834920Y-15735151D01*
X12835625Y-15735164D01*
X12836306Y-15734979D01*
X12836306Y-15734979D01*
X12840483Y-15733840D01*
X12848075Y-15731770D01*
X12859072Y-15725018D01*
X12867732Y-15715451D01*
X12873359Y-15703837D01*
X12875500Y-15691112D01*
X12875513Y-15690000D01*
X12875076Y-15686944D01*
X12934490Y-15686944D01*
X12934582Y-15687644D01*
X12934582Y-15687644D01*
X12934708Y-15688612D01*
X12936163Y-15699739D01*
X12936447Y-15700384D01*
X12936447Y-15700385D01*
X12938990Y-15706163D01*
X12941360Y-15711551D01*
X12945078Y-15715973D01*
X12949210Y-15720889D01*
X12949210Y-15720889D01*
X12949664Y-15721429D01*
X12960406Y-15728580D01*
X12961079Y-15728790D01*
X12961079Y-15728790D01*
X12966565Y-15730504D01*
X12972723Y-15732428D01*
X12979174Y-15732546D01*
X12984920Y-15732651D01*
X12984920Y-15732651D01*
X12985625Y-15732664D01*
X12986306Y-15732479D01*
X12986306Y-15732479D01*
X12991438Y-15731080D01*
X12998075Y-15729270D01*
X13009072Y-15722518D01*
X13017732Y-15712951D01*
X13021840Y-15704472D01*
X13023051Y-15701972D01*
X13023051Y-15701972D01*
X13023359Y-15701337D01*
X13025143Y-15690730D01*
X13025436Y-15688989D01*
X13025436Y-15688989D01*
X13025500Y-15688612D01*
X13025513Y-15687500D01*
X13023684Y-15674726D01*
X13018343Y-15662979D01*
X13012073Y-15655703D01*
X13010380Y-15653737D01*
X13010380Y-15653737D01*
X13009919Y-15653203D01*
X13009328Y-15652819D01*
X13009327Y-15652819D01*
X12999682Y-15646568D01*
X12999091Y-15646184D01*
X12998415Y-15645982D01*
X12998415Y-15645982D01*
X12994133Y-15644702D01*
X12986727Y-15642487D01*
X12979064Y-15642440D01*
X12974528Y-15642412D01*
X12973823Y-15642408D01*
X12973145Y-15642601D01*
X12973145Y-15642601D01*
X12962093Y-15645760D01*
X12962093Y-15645760D01*
X12961415Y-15645954D01*
X12950502Y-15652840D01*
X12941960Y-15662512D01*
X12936475Y-15674193D01*
X12934490Y-15686944D01*
X12875076Y-15686944D01*
X12873684Y-15677226D01*
X12868343Y-15665479D01*
X12859919Y-15655703D01*
X12859328Y-15655319D01*
X12859327Y-15655319D01*
X12849682Y-15649068D01*
X12849091Y-15648684D01*
X12848415Y-15648482D01*
X12848415Y-15648482D01*
X12842014Y-15646568D01*
X12836727Y-15644987D01*
X12829064Y-15644940D01*
X12824528Y-15644912D01*
X12823823Y-15644908D01*
X12823145Y-15645101D01*
X12823145Y-15645101D01*
X12812093Y-15648260D01*
X12812093Y-15648260D01*
X12811415Y-15648454D01*
X12800502Y-15655340D01*
X12791960Y-15665012D01*
X12786475Y-15676693D01*
X12784490Y-15689444D01*
X11141441Y-15689444D01*
X11144457Y-15682161D01*
X11145475Y-15677924D01*
X11150432Y-15657277D01*
X11150522Y-15656899D01*
X11150574Y-15656237D01*
X11152530Y-15631387D01*
X11152560Y-15631000D01*
X17327940Y-15631000D01*
X17327970Y-15631387D01*
X17329926Y-15656237D01*
X17329978Y-15656899D01*
X17330069Y-15657277D01*
X17335026Y-15677924D01*
X17336043Y-15682161D01*
X17345985Y-15706163D01*
X17359559Y-15728314D01*
X17359812Y-15728610D01*
X17359812Y-15728610D01*
X17362893Y-15732217D01*
X17376431Y-15748069D01*
X17396186Y-15764941D01*
X17418337Y-15778515D01*
X17442339Y-15788457D01*
X17442716Y-15788548D01*
X17442717Y-15788548D01*
X17455181Y-15791540D01*
X17467601Y-15794522D01*
X17467987Y-15794552D01*
X17467988Y-15794553D01*
X17493113Y-15796530D01*
X17493500Y-15796560D01*
X17493888Y-15796530D01*
X17519012Y-15794553D01*
X17519013Y-15794552D01*
X17519399Y-15794522D01*
X17531819Y-15791540D01*
X17544283Y-15788548D01*
X17544284Y-15788548D01*
X17544661Y-15788457D01*
X17568663Y-15778515D01*
X17590814Y-15764941D01*
X17610569Y-15748069D01*
X17624107Y-15732217D01*
X17627188Y-15728610D01*
X17627188Y-15728610D01*
X17627441Y-15728314D01*
X17641015Y-15706163D01*
X17650957Y-15682161D01*
X17651975Y-15677924D01*
X17656932Y-15657277D01*
X17657022Y-15656899D01*
X17657074Y-15656237D01*
X17659030Y-15631387D01*
X17659060Y-15631000D01*
X17657022Y-15605101D01*
X17652289Y-15585387D01*
X17651048Y-15580217D01*
X17651048Y-15580216D01*
X17650957Y-15579839D01*
X17641015Y-15555837D01*
X17627441Y-15533686D01*
X17610569Y-15513931D01*
X17600231Y-15505101D01*
X17591110Y-15497312D01*
X17591110Y-15497312D01*
X17590814Y-15497059D01*
X17568663Y-15483485D01*
X17544661Y-15473543D01*
X17544284Y-15473452D01*
X17544283Y-15473452D01*
X17527063Y-15469318D01*
X17519399Y-15467478D01*
X17519013Y-15467447D01*
X17519012Y-15467447D01*
X17493888Y-15465470D01*
X17493500Y-15465440D01*
X17493113Y-15465470D01*
X17467988Y-15467447D01*
X17467987Y-15467447D01*
X17467601Y-15467478D01*
X17459937Y-15469318D01*
X17442717Y-15473452D01*
X17442716Y-15473452D01*
X17442339Y-15473543D01*
X17418337Y-15483485D01*
X17396186Y-15497059D01*
X17395890Y-15497312D01*
X17395890Y-15497312D01*
X17386769Y-15505101D01*
X17376431Y-15513931D01*
X17359559Y-15533686D01*
X17345985Y-15555837D01*
X17336043Y-15579839D01*
X17335952Y-15580216D01*
X17335952Y-15580217D01*
X17334711Y-15585387D01*
X17329978Y-15605101D01*
X17327940Y-15631000D01*
X11152560Y-15631000D01*
X11150522Y-15605101D01*
X11145789Y-15585387D01*
X11144548Y-15580217D01*
X11144548Y-15580216D01*
X11144457Y-15579839D01*
X11134515Y-15555837D01*
X11130598Y-15549444D01*
X16676990Y-15549444D01*
X16677082Y-15550144D01*
X16677082Y-15550144D01*
X16677208Y-15551112D01*
X16678663Y-15562239D01*
X16678947Y-15562884D01*
X16678947Y-15562885D01*
X16679646Y-15564472D01*
X16683860Y-15574051D01*
X16688012Y-15578990D01*
X16691710Y-15583389D01*
X16691710Y-15583389D01*
X16692164Y-15583929D01*
X16702906Y-15591080D01*
X16703579Y-15591290D01*
X16703579Y-15591290D01*
X16709065Y-15593004D01*
X16715223Y-15594928D01*
X16721674Y-15595046D01*
X16727420Y-15595151D01*
X16727420Y-15595151D01*
X16728125Y-15595164D01*
X16728806Y-15594979D01*
X16728806Y-15594979D01*
X16732983Y-15593840D01*
X16740575Y-15591770D01*
X16751572Y-15585018D01*
X16752555Y-15583932D01*
X16757862Y-15580887D01*
X16763945Y-15581542D01*
X16766494Y-15583196D01*
X16766710Y-15583389D01*
X16767164Y-15583929D01*
X16767751Y-15584320D01*
X16767751Y-15584320D01*
X16769354Y-15585387D01*
X16777906Y-15591080D01*
X16778579Y-15591290D01*
X16778579Y-15591290D01*
X16784065Y-15593004D01*
X16790223Y-15594928D01*
X16796674Y-15595046D01*
X16802420Y-15595151D01*
X16802420Y-15595151D01*
X16803126Y-15595164D01*
X16803806Y-15594979D01*
X16803806Y-15594979D01*
X16807983Y-15593840D01*
X16815576Y-15591770D01*
X16826572Y-15585018D01*
X16828222Y-15583196D01*
X16834759Y-15575973D01*
X16834759Y-15575973D01*
X16835232Y-15575451D01*
X16840859Y-15563837D01*
X16842144Y-15556196D01*
X16842936Y-15551489D01*
X16842936Y-15551489D01*
X16843000Y-15551112D01*
X16843013Y-15550000D01*
X16841184Y-15537226D01*
X16835843Y-15525479D01*
X16829806Y-15518472D01*
X16827880Y-15516237D01*
X16827880Y-15516237D01*
X16827419Y-15515703D01*
X16826828Y-15515319D01*
X16826827Y-15515319D01*
X16817182Y-15509068D01*
X16816591Y-15508684D01*
X16815915Y-15508482D01*
X16815915Y-15508482D01*
X16811634Y-15507202D01*
X16804227Y-15504987D01*
X16796564Y-15504940D01*
X16792028Y-15504912D01*
X16791323Y-15504908D01*
X16790645Y-15505101D01*
X16790645Y-15505101D01*
X16779594Y-15508260D01*
X16779593Y-15508260D01*
X16778916Y-15508454D01*
X16768002Y-15515340D01*
X16767535Y-15515868D01*
X16767535Y-15515869D01*
X16767468Y-15515944D01*
X16767397Y-15515986D01*
X16766998Y-15516326D01*
X16766939Y-15516256D01*
X16762199Y-15519054D01*
X16756108Y-15518472D01*
X16753524Y-15516571D01*
X16753411Y-15516701D01*
X16752880Y-15516237D01*
X16752419Y-15515703D01*
X16751828Y-15515319D01*
X16751827Y-15515319D01*
X16742182Y-15509068D01*
X16741591Y-15508684D01*
X16740915Y-15508482D01*
X16740915Y-15508482D01*
X16736633Y-15507202D01*
X16729227Y-15504987D01*
X16721564Y-15504940D01*
X16717028Y-15504912D01*
X16716323Y-15504908D01*
X16715645Y-15505101D01*
X16715645Y-15505101D01*
X16704593Y-15508260D01*
X16704593Y-15508260D01*
X16703915Y-15508454D01*
X16693002Y-15515340D01*
X16684460Y-15525012D01*
X16678975Y-15536693D01*
X16676990Y-15549444D01*
X11130598Y-15549444D01*
X11120941Y-15533686D01*
X11104069Y-15513931D01*
X11093731Y-15505101D01*
X11084610Y-15497312D01*
X11084610Y-15497312D01*
X11084314Y-15497059D01*
X11062163Y-15483485D01*
X11052199Y-15479357D01*
X11047547Y-15475384D01*
X11046118Y-15469434D01*
X11048460Y-15463782D01*
X11052806Y-15460837D01*
X11071371Y-15454534D01*
X11071969Y-15454287D01*
X11097346Y-15441772D01*
X11097907Y-15441448D01*
X11121434Y-15425728D01*
X11121947Y-15425334D01*
X11123148Y-15424281D01*
X11123715Y-15423327D01*
X17801677Y-15423327D01*
X17801732Y-15423676D01*
X17801882Y-15423869D01*
X17803553Y-15425334D01*
X17804066Y-15425728D01*
X17827593Y-15441448D01*
X17828154Y-15441772D01*
X17853532Y-15454287D01*
X17854129Y-15454534D01*
X17880924Y-15463630D01*
X17881547Y-15463797D01*
X17909301Y-15469318D01*
X17909941Y-15469402D01*
X17938177Y-15471253D01*
X17938824Y-15471253D01*
X17967059Y-15469402D01*
X17967699Y-15469318D01*
X17995453Y-15463797D01*
X17996076Y-15463630D01*
X18022871Y-15454534D01*
X18023469Y-15454287D01*
X18048846Y-15441772D01*
X18049407Y-15441448D01*
X18072934Y-15425728D01*
X18073447Y-15425334D01*
X18074648Y-15424281D01*
X18075330Y-15423135D01*
X18075297Y-15422783D01*
X18075160Y-15422581D01*
X17939609Y-15287030D01*
X17938420Y-15286424D01*
X17937917Y-15286504D01*
X17802282Y-15422139D01*
X17801677Y-15423327D01*
X11123715Y-15423327D01*
X11123830Y-15423135D01*
X11123797Y-15422783D01*
X11123660Y-15422581D01*
X10988109Y-15287030D01*
X10986920Y-15286424D01*
X10986417Y-15286504D01*
X10850782Y-15422139D01*
X10850177Y-15423327D01*
X10850232Y-15423676D01*
X10850382Y-15423869D01*
X10852053Y-15425334D01*
X10852566Y-15425728D01*
X10876093Y-15441448D01*
X10876654Y-15441772D01*
X10902032Y-15454287D01*
X10902629Y-15454534D01*
X10921194Y-15460837D01*
X10926097Y-15464497D01*
X10927911Y-15470341D01*
X10925945Y-15476135D01*
X10921801Y-15479357D01*
X10911837Y-15483485D01*
X10889686Y-15497059D01*
X10889390Y-15497312D01*
X10889390Y-15497312D01*
X10880269Y-15505101D01*
X10869931Y-15513931D01*
X10853059Y-15533686D01*
X10839485Y-15555837D01*
X10829543Y-15579839D01*
X10829452Y-15580216D01*
X10829452Y-15580217D01*
X10828211Y-15585387D01*
X10823478Y-15605101D01*
X10821440Y-15631000D01*
X10644560Y-15631000D01*
X10642522Y-15605101D01*
X10637789Y-15585387D01*
X10636548Y-15580217D01*
X10636548Y-15580216D01*
X10636457Y-15579839D01*
X10626515Y-15555837D01*
X10612941Y-15533686D01*
X10596069Y-15513931D01*
X10585731Y-15505101D01*
X10576610Y-15497312D01*
X10576610Y-15497312D01*
X10576314Y-15497059D01*
X10554163Y-15483485D01*
X10530161Y-15473543D01*
X10529784Y-15473452D01*
X10529783Y-15473452D01*
X10512563Y-15469318D01*
X10504899Y-15467478D01*
X10504513Y-15467447D01*
X10504512Y-15467447D01*
X10479388Y-15465470D01*
X10479000Y-15465440D01*
X10478613Y-15465470D01*
X10453488Y-15467447D01*
X10453487Y-15467447D01*
X10453101Y-15467478D01*
X10445437Y-15469318D01*
X10428217Y-15473452D01*
X10428216Y-15473452D01*
X10427839Y-15473543D01*
X10403837Y-15483485D01*
X10381686Y-15497059D01*
X10381390Y-15497312D01*
X10381390Y-15497312D01*
X10372269Y-15505101D01*
X10361931Y-15513931D01*
X10345059Y-15533686D01*
X10331485Y-15555837D01*
X10321543Y-15579839D01*
X10321452Y-15580216D01*
X10321452Y-15580217D01*
X10320211Y-15585387D01*
X10315478Y-15605101D01*
X10313440Y-15631000D01*
X9230000Y-15631000D01*
X9230000Y-15249263D01*
X9992444Y-15249263D01*
X9992960Y-15254929D01*
X9993886Y-15265106D01*
X9994311Y-15269780D01*
X10000128Y-15289543D01*
X10009673Y-15307800D01*
X10011240Y-15309749D01*
X10021280Y-15322236D01*
X10022582Y-15323855D01*
X10022953Y-15324167D01*
X10022953Y-15324167D01*
X10029549Y-15329702D01*
X10038363Y-15337098D01*
X10038788Y-15337331D01*
X10038788Y-15337331D01*
X10044526Y-15340486D01*
X10056416Y-15347022D01*
X10056878Y-15347169D01*
X10056878Y-15347169D01*
X10073460Y-15352429D01*
X10076053Y-15353252D01*
X10076534Y-15353306D01*
X10076535Y-15353306D01*
X10091811Y-15355019D01*
X10091811Y-15355019D01*
X10092086Y-15355050D01*
X10103184Y-15355050D01*
X10103424Y-15355026D01*
X10103424Y-15355026D01*
X10118022Y-15353595D01*
X10118022Y-15353595D01*
X10118503Y-15353548D01*
X10118966Y-15353408D01*
X10118966Y-15353408D01*
X10135803Y-15348325D01*
X10138225Y-15347593D01*
X10156415Y-15337922D01*
X10172380Y-15324901D01*
X10185512Y-15309027D01*
X10192545Y-15296020D01*
X10195080Y-15291331D01*
X10195080Y-15291331D01*
X10195310Y-15290905D01*
X10199132Y-15278559D01*
X10201259Y-15271687D01*
X10201259Y-15271687D01*
X10201402Y-15271225D01*
X10201506Y-15270244D01*
X10203505Y-15251218D01*
X10203505Y-15251218D01*
X10203556Y-15250737D01*
X10203518Y-15250323D01*
X10765747Y-15250323D01*
X10767598Y-15278559D01*
X10767682Y-15279199D01*
X10773203Y-15306953D01*
X10773370Y-15307576D01*
X10782466Y-15334371D01*
X10782713Y-15334968D01*
X10795228Y-15360346D01*
X10795552Y-15360907D01*
X10811272Y-15384434D01*
X10811666Y-15384947D01*
X10812719Y-15386147D01*
X10813865Y-15386830D01*
X10814217Y-15386797D01*
X10814419Y-15386660D01*
X10949970Y-15251109D01*
X10950495Y-15250080D01*
X11023424Y-15250080D01*
X11023504Y-15250583D01*
X11159139Y-15386218D01*
X11160327Y-15386823D01*
X11160676Y-15386768D01*
X11160869Y-15386618D01*
X11162335Y-15384947D01*
X11162728Y-15384434D01*
X11178449Y-15360907D01*
X11178772Y-15360346D01*
X11191287Y-15334968D01*
X11191534Y-15334371D01*
X11200630Y-15307576D01*
X11200797Y-15306953D01*
X11206318Y-15279199D01*
X11206402Y-15278559D01*
X11208253Y-15250323D01*
X17717247Y-15250323D01*
X17719098Y-15278559D01*
X17719182Y-15279199D01*
X17724703Y-15306953D01*
X17724870Y-15307576D01*
X17733966Y-15334371D01*
X17734213Y-15334968D01*
X17746728Y-15360346D01*
X17747052Y-15360907D01*
X17762772Y-15384434D01*
X17763166Y-15384947D01*
X17764219Y-15386147D01*
X17765365Y-15386830D01*
X17765717Y-15386797D01*
X17765919Y-15386660D01*
X17901470Y-15251109D01*
X17901995Y-15250080D01*
X17974924Y-15250080D01*
X17975004Y-15250583D01*
X18110639Y-15386218D01*
X18111827Y-15386823D01*
X18112176Y-15386768D01*
X18112369Y-15386618D01*
X18113835Y-15384947D01*
X18114228Y-15384434D01*
X18129949Y-15360907D01*
X18130272Y-15360346D01*
X18142787Y-15334968D01*
X18143034Y-15334371D01*
X18152130Y-15307576D01*
X18152297Y-15306953D01*
X18157818Y-15279199D01*
X18157902Y-15278559D01*
X18159753Y-15250323D01*
X18159753Y-15249676D01*
X18159420Y-15244600D01*
X18717081Y-15244600D01*
X18717103Y-15245071D01*
X18717103Y-15245071D01*
X18717366Y-15250737D01*
X18718052Y-15265577D01*
X18718163Y-15266035D01*
X18720608Y-15276183D01*
X18722972Y-15285992D01*
X18723167Y-15286421D01*
X18723167Y-15286421D01*
X18724376Y-15289079D01*
X18731664Y-15305108D01*
X18743814Y-15322236D01*
X18746917Y-15325207D01*
X18758643Y-15336432D01*
X18758643Y-15336432D01*
X18758983Y-15336757D01*
X18776625Y-15348148D01*
X18777062Y-15348325D01*
X18793749Y-15355050D01*
X18796102Y-15355998D01*
X18796564Y-15356088D01*
X18816363Y-15359955D01*
X18816363Y-15359955D01*
X18816712Y-15360023D01*
X18817264Y-15360050D01*
X18832747Y-15360050D01*
X18842354Y-15359133D01*
X18847935Y-15358601D01*
X18847936Y-15358601D01*
X18848405Y-15358556D01*
X18868555Y-15352645D01*
X18887224Y-15343029D01*
X18903738Y-15330058D01*
X18917501Y-15314197D01*
X18928017Y-15296020D01*
X18931321Y-15286504D01*
X18934751Y-15276627D01*
X18934751Y-15276627D01*
X18934905Y-15276183D01*
X18935694Y-15270744D01*
X18937851Y-15255867D01*
X18937851Y-15255867D01*
X18937919Y-15255400D01*
X18937897Y-15254929D01*
X18936970Y-15234894D01*
X18936970Y-15234894D01*
X18936948Y-15234423D01*
X18934504Y-15224284D01*
X18932138Y-15214466D01*
X18932138Y-15214466D01*
X18932028Y-15214008D01*
X18931556Y-15212970D01*
X18923531Y-15195321D01*
X18923336Y-15194892D01*
X18911186Y-15177764D01*
X18898510Y-15165629D01*
X18896357Y-15163568D01*
X18896357Y-15163568D01*
X18896017Y-15163242D01*
X18878375Y-15151851D01*
X18867754Y-15147571D01*
X18859336Y-15144178D01*
X18859335Y-15144178D01*
X18858898Y-15144002D01*
X18858369Y-15143898D01*
X18838637Y-15140045D01*
X18838637Y-15140045D01*
X18838288Y-15139977D01*
X18837736Y-15139950D01*
X18822253Y-15139950D01*
X18812646Y-15140867D01*
X18807065Y-15141399D01*
X18807065Y-15141399D01*
X18806595Y-15141444D01*
X18786445Y-15147355D01*
X18767776Y-15156970D01*
X18751262Y-15169942D01*
X18737499Y-15185803D01*
X18726983Y-15203980D01*
X18726829Y-15204424D01*
X18726829Y-15204424D01*
X18723342Y-15214466D01*
X18720095Y-15223817D01*
X18720027Y-15224284D01*
X18719234Y-15229756D01*
X18717081Y-15244600D01*
X18159420Y-15244600D01*
X18157902Y-15221441D01*
X18157818Y-15220801D01*
X18152297Y-15193047D01*
X18152130Y-15192424D01*
X18143034Y-15165629D01*
X18142787Y-15165031D01*
X18130272Y-15139654D01*
X18129949Y-15139093D01*
X18114228Y-15115566D01*
X18113835Y-15115053D01*
X18112781Y-15113852D01*
X18111635Y-15113170D01*
X18111283Y-15113203D01*
X18111081Y-15113340D01*
X17975530Y-15248891D01*
X17974924Y-15250080D01*
X17901995Y-15250080D01*
X17902076Y-15249920D01*
X17901996Y-15249417D01*
X17766361Y-15113782D01*
X17765173Y-15113177D01*
X17764824Y-15113232D01*
X17764631Y-15113382D01*
X17763166Y-15115053D01*
X17762772Y-15115566D01*
X17747052Y-15139093D01*
X17746728Y-15139654D01*
X17734213Y-15165031D01*
X17733966Y-15165629D01*
X17724870Y-15192424D01*
X17724703Y-15193047D01*
X17719182Y-15220801D01*
X17719098Y-15221441D01*
X17717247Y-15249676D01*
X17717247Y-15250323D01*
X11208253Y-15250323D01*
X11208253Y-15249676D01*
X11206402Y-15221441D01*
X11206318Y-15220801D01*
X11200797Y-15193047D01*
X11200630Y-15192424D01*
X11191534Y-15165629D01*
X11191287Y-15165031D01*
X11178772Y-15139654D01*
X11178449Y-15139093D01*
X11162728Y-15115566D01*
X11162335Y-15115053D01*
X11161281Y-15113852D01*
X11160135Y-15113170D01*
X11159783Y-15113203D01*
X11159581Y-15113340D01*
X11024030Y-15248891D01*
X11023424Y-15250080D01*
X10950495Y-15250080D01*
X10950576Y-15249920D01*
X10950496Y-15249417D01*
X10814861Y-15113782D01*
X10813673Y-15113177D01*
X10813324Y-15113232D01*
X10813131Y-15113382D01*
X10811666Y-15115053D01*
X10811272Y-15115566D01*
X10795552Y-15139093D01*
X10795228Y-15139654D01*
X10782713Y-15165031D01*
X10782466Y-15165629D01*
X10773370Y-15192424D01*
X10773203Y-15193047D01*
X10767682Y-15220801D01*
X10767598Y-15221441D01*
X10765747Y-15249676D01*
X10765747Y-15250323D01*
X10203518Y-15250323D01*
X10202955Y-15244133D01*
X10201733Y-15230702D01*
X10201732Y-15230702D01*
X10201689Y-15230220D01*
X10195872Y-15210457D01*
X10186327Y-15192200D01*
X10180898Y-15185447D01*
X10173722Y-15176522D01*
X10173722Y-15176522D01*
X10173419Y-15176145D01*
X10171808Y-15174793D01*
X10158009Y-15163214D01*
X10158008Y-15163214D01*
X10157637Y-15162902D01*
X10155724Y-15161851D01*
X10151474Y-15159514D01*
X10139584Y-15152978D01*
X10139123Y-15152831D01*
X10139122Y-15152831D01*
X10120408Y-15146895D01*
X10119947Y-15146748D01*
X10119466Y-15146694D01*
X10119466Y-15146694D01*
X10104189Y-15144981D01*
X10104189Y-15144981D01*
X10103914Y-15144950D01*
X10092816Y-15144950D01*
X10092576Y-15144973D01*
X10092576Y-15144973D01*
X10077978Y-15146405D01*
X10077978Y-15146405D01*
X10077497Y-15146452D01*
X10077035Y-15146592D01*
X10077034Y-15146592D01*
X10065787Y-15149987D01*
X10057775Y-15152406D01*
X10039585Y-15162078D01*
X10023620Y-15175099D01*
X10010488Y-15190972D01*
X10010258Y-15191398D01*
X10003215Y-15204424D01*
X10000690Y-15209094D01*
X9999303Y-15213576D01*
X9996270Y-15223373D01*
X9994598Y-15228775D01*
X9994547Y-15229255D01*
X9994547Y-15229256D01*
X9994395Y-15230702D01*
X9992444Y-15249263D01*
X9230000Y-15249263D01*
X9230000Y-15076865D01*
X10850170Y-15076865D01*
X10850203Y-15077217D01*
X10850340Y-15077419D01*
X10985891Y-15212970D01*
X10987080Y-15213576D01*
X10987583Y-15213496D01*
X11123218Y-15077861D01*
X11123725Y-15076865D01*
X17801670Y-15076865D01*
X17801703Y-15077217D01*
X17801840Y-15077419D01*
X17937391Y-15212970D01*
X17938580Y-15213576D01*
X17939083Y-15213496D01*
X18074718Y-15077861D01*
X18075323Y-15076673D01*
X18075268Y-15076324D01*
X18075118Y-15076131D01*
X18073447Y-15074665D01*
X18072934Y-15074272D01*
X18049407Y-15058551D01*
X18048846Y-15058228D01*
X18023469Y-15045713D01*
X18022871Y-15045466D01*
X17996076Y-15036370D01*
X17995453Y-15036203D01*
X17967699Y-15030682D01*
X17967059Y-15030598D01*
X17938824Y-15028747D01*
X17938177Y-15028747D01*
X17909941Y-15030598D01*
X17909301Y-15030682D01*
X17881547Y-15036203D01*
X17880924Y-15036370D01*
X17854129Y-15045466D01*
X17853532Y-15045713D01*
X17828154Y-15058228D01*
X17827593Y-15058551D01*
X17804066Y-15074272D01*
X17803553Y-15074665D01*
X17802353Y-15075719D01*
X17801670Y-15076865D01*
X11123725Y-15076865D01*
X11123823Y-15076673D01*
X11123768Y-15076324D01*
X11123618Y-15076131D01*
X11121947Y-15074665D01*
X11121434Y-15074272D01*
X11097907Y-15058551D01*
X11097346Y-15058228D01*
X11071969Y-15045713D01*
X11071371Y-15045466D01*
X11044576Y-15036370D01*
X11043953Y-15036203D01*
X11016199Y-15030682D01*
X11015559Y-15030598D01*
X10987324Y-15028747D01*
X10986677Y-15028747D01*
X10958441Y-15030598D01*
X10957801Y-15030682D01*
X10930047Y-15036203D01*
X10929424Y-15036370D01*
X10902629Y-15045466D01*
X10902032Y-15045713D01*
X10876654Y-15058228D01*
X10876093Y-15058551D01*
X10852566Y-15074272D01*
X10852053Y-15074665D01*
X10850853Y-15075719D01*
X10850170Y-15076865D01*
X9230000Y-15076865D01*
X9230000Y-14806000D01*
X18344940Y-14806000D01*
X18346978Y-14831899D01*
X18353043Y-14857161D01*
X18362985Y-14881163D01*
X18376559Y-14903314D01*
X18393431Y-14923069D01*
X18413186Y-14939941D01*
X18435337Y-14953515D01*
X18459339Y-14963457D01*
X18459716Y-14963548D01*
X18459717Y-14963548D01*
X18473193Y-14966783D01*
X18484601Y-14969522D01*
X18484987Y-14969552D01*
X18484988Y-14969553D01*
X18510113Y-14971530D01*
X18510500Y-14971560D01*
X18510888Y-14971530D01*
X18536012Y-14969553D01*
X18536013Y-14969552D01*
X18536399Y-14969522D01*
X18547807Y-14966783D01*
X18561283Y-14963548D01*
X18561284Y-14963548D01*
X18561661Y-14963457D01*
X18585663Y-14953515D01*
X18607814Y-14939941D01*
X18627569Y-14923069D01*
X18644441Y-14903314D01*
X18658015Y-14881163D01*
X18667957Y-14857161D01*
X18674022Y-14831899D01*
X18676060Y-14806000D01*
X18674022Y-14780101D01*
X18667957Y-14754839D01*
X18658015Y-14730837D01*
X18644441Y-14708686D01*
X18627569Y-14688931D01*
X18607814Y-14672059D01*
X18585663Y-14658485D01*
X18561661Y-14648543D01*
X18561284Y-14648452D01*
X18561283Y-14648452D01*
X18547807Y-14645217D01*
X18536399Y-14642478D01*
X18536013Y-14642447D01*
X18536012Y-14642447D01*
X18510888Y-14640470D01*
X18510500Y-14640440D01*
X18510113Y-14640470D01*
X18484988Y-14642447D01*
X18484987Y-14642447D01*
X18484601Y-14642478D01*
X18473193Y-14645217D01*
X18459717Y-14648452D01*
X18459716Y-14648452D01*
X18459339Y-14648543D01*
X18435337Y-14658485D01*
X18413186Y-14672059D01*
X18393431Y-14688931D01*
X18376559Y-14708686D01*
X18362985Y-14730837D01*
X18353043Y-14754839D01*
X18346978Y-14780101D01*
X18344940Y-14806000D01*
X9230000Y-14806000D01*
X9230000Y-14199444D01*
X9399490Y-14199444D01*
X9399582Y-14200144D01*
X9399582Y-14200144D01*
X9399708Y-14201112D01*
X9401163Y-14212239D01*
X9401447Y-14212884D01*
X9401447Y-14212885D01*
X9402146Y-14214472D01*
X9406361Y-14224051D01*
X9410512Y-14228990D01*
X9414210Y-14233389D01*
X9414210Y-14233389D01*
X9414664Y-14233929D01*
X9425406Y-14241080D01*
X9426079Y-14241290D01*
X9426079Y-14241290D01*
X9431565Y-14243004D01*
X9437723Y-14244928D01*
X9444174Y-14245046D01*
X9449920Y-14245151D01*
X9449920Y-14245151D01*
X9450626Y-14245164D01*
X9451306Y-14244979D01*
X9451306Y-14244979D01*
X9455483Y-14243840D01*
X9463076Y-14241770D01*
X9474072Y-14235018D01*
X9482732Y-14225451D01*
X9488359Y-14213837D01*
X9490500Y-14201112D01*
X9490513Y-14200000D01*
X9488684Y-14187226D01*
X9483343Y-14175479D01*
X9474919Y-14165703D01*
X9474328Y-14165319D01*
X9474327Y-14165319D01*
X9464682Y-14159068D01*
X9464091Y-14158684D01*
X9463415Y-14158482D01*
X9463415Y-14158482D01*
X9459134Y-14157202D01*
X9451727Y-14154987D01*
X9444064Y-14154940D01*
X9439528Y-14154912D01*
X9438823Y-14154908D01*
X9438145Y-14155101D01*
X9438145Y-14155101D01*
X9427094Y-14158260D01*
X9427093Y-14158260D01*
X9426416Y-14158454D01*
X9415502Y-14165340D01*
X9406960Y-14175012D01*
X9401475Y-14186693D01*
X9399490Y-14199444D01*
X9230000Y-14199444D01*
X9230000Y-14069444D01*
X9899490Y-14069444D01*
X9899582Y-14070144D01*
X9899582Y-14070144D01*
X9899708Y-14071112D01*
X9901163Y-14082239D01*
X9901447Y-14082884D01*
X9901447Y-14082885D01*
X9902146Y-14084472D01*
X9906361Y-14094051D01*
X9910512Y-14098990D01*
X9914210Y-14103389D01*
X9914210Y-14103389D01*
X9914664Y-14103929D01*
X9925406Y-14111080D01*
X9926079Y-14111290D01*
X9926079Y-14111290D01*
X9931565Y-14113004D01*
X9937723Y-14114928D01*
X9944174Y-14115046D01*
X9949920Y-14115151D01*
X9949920Y-14115151D01*
X9950626Y-14115164D01*
X9951306Y-14114979D01*
X9951306Y-14114979D01*
X9955483Y-14113840D01*
X9963076Y-14111770D01*
X9974072Y-14105018D01*
X9982732Y-14095451D01*
X9988359Y-14083837D01*
X9990500Y-14071112D01*
X9990513Y-14070000D01*
X9988684Y-14057226D01*
X9983343Y-14045479D01*
X9974919Y-14035703D01*
X9974328Y-14035319D01*
X9974327Y-14035319D01*
X9964682Y-14029068D01*
X9964091Y-14028684D01*
X9963415Y-14028482D01*
X9963415Y-14028482D01*
X9959134Y-14027202D01*
X9951727Y-14024987D01*
X9944064Y-14024940D01*
X9939528Y-14024912D01*
X9938823Y-14024908D01*
X9938145Y-14025101D01*
X9938145Y-14025101D01*
X9927094Y-14028260D01*
X9927093Y-14028260D01*
X9926416Y-14028454D01*
X9915502Y-14035340D01*
X9906960Y-14045012D01*
X9901475Y-14056693D01*
X9899490Y-14069444D01*
X9230000Y-14069444D01*
X9230000Y-13819444D01*
X9824490Y-13819444D01*
X9824582Y-13820144D01*
X9824582Y-13820144D01*
X9824708Y-13821112D01*
X9826163Y-13832239D01*
X9826447Y-13832884D01*
X9826447Y-13832885D01*
X9827146Y-13834472D01*
X9831361Y-13844051D01*
X9835512Y-13848990D01*
X9839210Y-13853389D01*
X9839210Y-13853389D01*
X9839664Y-13853929D01*
X9850406Y-13861080D01*
X9851079Y-13861290D01*
X9851079Y-13861290D01*
X9856565Y-13863004D01*
X9862723Y-13864928D01*
X9869174Y-13865046D01*
X9874920Y-13865151D01*
X9874920Y-13865151D01*
X9875626Y-13865164D01*
X9876306Y-13864979D01*
X9876306Y-13864979D01*
X9880483Y-13863840D01*
X9888076Y-13861770D01*
X9899072Y-13855018D01*
X9907732Y-13845451D01*
X9913359Y-13833837D01*
X9915500Y-13821112D01*
X9915513Y-13820000D01*
X9913684Y-13807226D01*
X9908343Y-13795479D01*
X9899919Y-13785703D01*
X9899328Y-13785319D01*
X9899327Y-13785319D01*
X9889682Y-13779068D01*
X9889091Y-13778684D01*
X9888415Y-13778482D01*
X9888415Y-13778482D01*
X9884134Y-13777202D01*
X9876727Y-13774987D01*
X9869064Y-13774940D01*
X9864528Y-13774912D01*
X9863823Y-13774908D01*
X9863145Y-13775101D01*
X9863145Y-13775101D01*
X9852094Y-13778260D01*
X9852093Y-13778260D01*
X9851416Y-13778454D01*
X9840502Y-13785340D01*
X9831960Y-13795012D01*
X9826475Y-13806693D01*
X9824490Y-13819444D01*
X9230000Y-13819444D01*
X9230000Y-13695961D01*
X15427973Y-13695961D01*
X15429647Y-13708756D01*
X15429930Y-13709401D01*
X15429931Y-13709401D01*
X15430629Y-13710989D01*
X15434844Y-13720568D01*
X15438996Y-13725507D01*
X15442693Y-13729906D01*
X15442694Y-13729906D01*
X15443147Y-13730446D01*
X15453889Y-13737596D01*
X15454562Y-13737806D01*
X15454562Y-13737806D01*
X15460048Y-13739520D01*
X15466207Y-13741444D01*
X15472658Y-13741563D01*
X15478404Y-13741668D01*
X15478404Y-13741668D01*
X15479109Y-13741681D01*
X15479789Y-13741495D01*
X15479789Y-13741495D01*
X15483966Y-13740357D01*
X15491559Y-13738287D01*
X15502556Y-13731534D01*
X15511216Y-13721967D01*
X15516842Y-13710354D01*
X15518983Y-13697629D01*
X15518984Y-13697537D01*
X15521359Y-13691977D01*
X15526610Y-13688837D01*
X15528997Y-13688590D01*
X15531437Y-13688635D01*
X15531437Y-13688635D01*
X15532142Y-13688648D01*
X15532822Y-13688462D01*
X15532823Y-13688462D01*
X15536999Y-13687323D01*
X15544592Y-13685253D01*
X15555589Y-13678501D01*
X15564249Y-13668934D01*
X15569875Y-13657321D01*
X15571533Y-13647467D01*
X15571953Y-13644972D01*
X15571953Y-13644972D01*
X15572016Y-13644595D01*
X15572030Y-13643483D01*
X15570200Y-13630709D01*
X15564859Y-13618962D01*
X15556436Y-13609186D01*
X15555844Y-13608803D01*
X15555844Y-13608802D01*
X15546199Y-13602551D01*
X15545607Y-13602167D01*
X15544932Y-13601965D01*
X15544931Y-13601965D01*
X15538802Y-13600132D01*
X15533244Y-13598470D01*
X15525581Y-13598423D01*
X15521045Y-13598395D01*
X15520340Y-13598391D01*
X15519662Y-13598585D01*
X15519662Y-13598585D01*
X15508610Y-13601743D01*
X15508610Y-13601744D01*
X15507932Y-13601937D01*
X15497018Y-13608823D01*
X15488476Y-13618496D01*
X15482992Y-13630177D01*
X15481007Y-13642927D01*
X15480712Y-13642881D01*
X15479159Y-13647467D01*
X15474164Y-13651001D01*
X15471162Y-13651448D01*
X15468012Y-13651429D01*
X15467306Y-13651424D01*
X15466629Y-13651618D01*
X15466629Y-13651618D01*
X15455577Y-13654777D01*
X15455577Y-13654777D01*
X15454899Y-13654970D01*
X15443985Y-13661856D01*
X15435443Y-13671529D01*
X15429959Y-13683210D01*
X15427973Y-13695961D01*
X9230000Y-13695961D01*
X9230000Y-13518526D01*
X11969452Y-13518526D01*
X11971176Y-13539055D01*
X11971309Y-13539520D01*
X11971309Y-13539520D01*
X11973854Y-13548394D01*
X11976854Y-13558859D01*
X11986271Y-13577182D01*
X11999068Y-13593327D01*
X11999436Y-13593640D01*
X11999436Y-13593640D01*
X12005111Y-13598470D01*
X12014756Y-13606679D01*
X12015179Y-13606915D01*
X12015179Y-13606915D01*
X12019525Y-13609344D01*
X12032740Y-13616730D01*
X12033200Y-13616879D01*
X12051872Y-13622946D01*
X12051873Y-13622946D01*
X12052333Y-13623096D01*
X12072789Y-13625535D01*
X12073272Y-13625498D01*
X12073272Y-13625498D01*
X12080054Y-13624976D01*
X12093330Y-13623955D01*
X12113172Y-13618414D01*
X12113604Y-13618197D01*
X12113604Y-13618196D01*
X12131129Y-13609344D01*
X12131129Y-13609344D01*
X12131561Y-13609126D01*
X12132229Y-13608603D01*
X12147413Y-13596741D01*
X12147414Y-13596740D01*
X12147795Y-13596442D01*
X12161256Y-13580847D01*
X12163123Y-13577561D01*
X12171193Y-13563355D01*
X12171193Y-13563355D01*
X12171432Y-13562934D01*
X12172034Y-13561126D01*
X12176832Y-13546701D01*
X13441804Y-13546701D01*
X13444881Y-13560352D01*
X13445123Y-13561126D01*
X13453218Y-13581062D01*
X13453584Y-13581786D01*
X13464827Y-13600132D01*
X13465306Y-13600787D01*
X13479393Y-13617050D01*
X13479973Y-13617618D01*
X13496529Y-13631363D01*
X13497192Y-13631827D01*
X13515771Y-13642684D01*
X13516501Y-13643033D01*
X13536604Y-13650710D01*
X13537381Y-13650936D01*
X13548064Y-13653109D01*
X13549385Y-13652959D01*
X13549600Y-13652140D01*
X13549600Y-13652095D01*
X13600400Y-13652095D01*
X13600812Y-13653364D01*
X13600965Y-13653475D01*
X13601488Y-13653524D01*
X13602929Y-13653339D01*
X13603720Y-13653171D01*
X13624330Y-13646988D01*
X13625085Y-13646692D01*
X13644409Y-13637225D01*
X13645105Y-13636810D01*
X13662623Y-13624315D01*
X13663241Y-13623792D01*
X13678483Y-13608603D01*
X13679009Y-13607986D01*
X13691565Y-13590512D01*
X13691982Y-13589818D01*
X13701516Y-13570527D01*
X13701814Y-13569774D01*
X13708070Y-13549184D01*
X13708241Y-13548394D01*
X13708430Y-13546955D01*
X13708187Y-13545643D01*
X13708057Y-13545519D01*
X13707529Y-13545400D01*
X13601968Y-13545400D01*
X13600699Y-13545812D01*
X13600400Y-13546224D01*
X13600400Y-13652095D01*
X13549600Y-13652095D01*
X13549600Y-13546968D01*
X13549188Y-13545699D01*
X13548776Y-13545400D01*
X13443079Y-13545400D01*
X13441846Y-13545801D01*
X13441804Y-13546701D01*
X12176832Y-13546701D01*
X12177782Y-13543845D01*
X12177782Y-13543845D01*
X12177935Y-13543386D01*
X12180517Y-13522947D01*
X12180558Y-13520000D01*
X12180414Y-13518526D01*
X16469452Y-13518526D01*
X16471176Y-13539055D01*
X16471309Y-13539520D01*
X16471309Y-13539520D01*
X16473854Y-13548394D01*
X16476854Y-13558859D01*
X16486271Y-13577182D01*
X16499068Y-13593327D01*
X16499436Y-13593640D01*
X16499436Y-13593640D01*
X16505111Y-13598470D01*
X16514756Y-13606679D01*
X16515179Y-13606915D01*
X16515179Y-13606915D01*
X16519525Y-13609344D01*
X16532740Y-13616730D01*
X16533200Y-13616879D01*
X16551872Y-13622946D01*
X16551873Y-13622946D01*
X16552333Y-13623096D01*
X16572789Y-13625535D01*
X16573272Y-13625498D01*
X16573272Y-13625498D01*
X16580054Y-13624976D01*
X16593330Y-13623955D01*
X16613172Y-13618414D01*
X16613604Y-13618197D01*
X16613604Y-13618196D01*
X16631129Y-13609344D01*
X16631129Y-13609344D01*
X16631561Y-13609126D01*
X16632229Y-13608603D01*
X16647413Y-13596741D01*
X16647414Y-13596740D01*
X16647795Y-13596442D01*
X16661256Y-13580847D01*
X16663123Y-13577561D01*
X16671193Y-13563355D01*
X16671193Y-13563355D01*
X16671432Y-13562934D01*
X16672034Y-13561126D01*
X16677782Y-13543845D01*
X16677782Y-13543845D01*
X16677935Y-13543386D01*
X16680517Y-13522947D01*
X16680558Y-13520000D01*
X16678548Y-13499497D01*
X16672593Y-13479775D01*
X16662922Y-13461585D01*
X16649901Y-13445620D01*
X16639723Y-13437200D01*
X16634400Y-13432796D01*
X16634400Y-13432796D01*
X16634027Y-13432488D01*
X16615905Y-13422690D01*
X16607507Y-13420090D01*
X16596687Y-13416741D01*
X16596687Y-13416741D01*
X16596225Y-13416598D01*
X16595745Y-13416547D01*
X16595744Y-13416547D01*
X16576218Y-13414495D01*
X16576218Y-13414495D01*
X16575737Y-13414444D01*
X16569735Y-13414990D01*
X16555702Y-13416267D01*
X16555702Y-13416268D01*
X16555220Y-13416311D01*
X16535457Y-13422128D01*
X16535029Y-13422352D01*
X16535029Y-13422352D01*
X16533943Y-13422920D01*
X16517200Y-13431673D01*
X16516823Y-13431976D01*
X16501522Y-13444278D01*
X16501522Y-13444278D01*
X16501145Y-13444581D01*
X16500833Y-13444953D01*
X16500833Y-13444953D01*
X16499958Y-13445995D01*
X16487902Y-13460363D01*
X16487669Y-13460788D01*
X16487669Y-13460788D01*
X16486995Y-13462013D01*
X16477978Y-13478416D01*
X16471748Y-13498053D01*
X16471694Y-13498534D01*
X16471694Y-13498534D01*
X16471586Y-13499497D01*
X16469452Y-13518526D01*
X12180414Y-13518526D01*
X12178548Y-13499497D01*
X12176749Y-13493538D01*
X13441406Y-13493538D01*
X13441576Y-13494346D01*
X13441757Y-13494510D01*
X13442179Y-13494600D01*
X13707078Y-13494600D01*
X13708273Y-13494212D01*
X13708306Y-13493246D01*
X13704095Y-13476481D01*
X13703833Y-13475713D01*
X13695253Y-13455981D01*
X13694870Y-13455266D01*
X13683183Y-13437200D01*
X13682688Y-13436557D01*
X13668206Y-13420643D01*
X13667614Y-13420090D01*
X13650727Y-13406753D01*
X13650052Y-13406305D01*
X13631214Y-13395906D01*
X13630475Y-13395574D01*
X13610192Y-13388391D01*
X13609408Y-13388184D01*
X13602459Y-13386946D01*
X13597062Y-13384064D01*
X13594389Y-13378560D01*
X13595462Y-13372537D01*
X13599871Y-13368294D01*
X13601533Y-13367664D01*
X13605987Y-13366421D01*
X13613172Y-13364414D01*
X13613604Y-13364197D01*
X13613604Y-13364196D01*
X13631129Y-13355344D01*
X13631129Y-13355344D01*
X13631561Y-13355126D01*
X13635094Y-13352365D01*
X13647413Y-13342741D01*
X13647414Y-13342740D01*
X13647795Y-13342442D01*
X13661256Y-13326847D01*
X13663123Y-13323561D01*
X13671193Y-13309355D01*
X13671193Y-13309355D01*
X13671432Y-13308934D01*
X13672788Y-13304859D01*
X13677782Y-13289845D01*
X13677782Y-13289845D01*
X13677935Y-13289386D01*
X13680517Y-13268947D01*
X13680558Y-13266000D01*
X13680414Y-13264526D01*
X16469452Y-13264526D01*
X16471176Y-13285055D01*
X16476854Y-13304859D01*
X16486271Y-13323182D01*
X16499068Y-13339327D01*
X16499436Y-13339640D01*
X16499436Y-13339640D01*
X16510702Y-13349228D01*
X16514756Y-13352679D01*
X16515179Y-13352915D01*
X16515179Y-13352915D01*
X16519134Y-13355126D01*
X16532740Y-13362730D01*
X16533200Y-13362879D01*
X16551872Y-13368946D01*
X16551873Y-13368946D01*
X16552333Y-13369096D01*
X16572789Y-13371535D01*
X16573272Y-13371498D01*
X16573272Y-13371498D01*
X16580054Y-13370976D01*
X16593330Y-13369955D01*
X16613172Y-13364414D01*
X16613604Y-13364197D01*
X16613604Y-13364196D01*
X16631129Y-13355344D01*
X16631129Y-13355344D01*
X16631561Y-13355126D01*
X16635094Y-13352365D01*
X16647413Y-13342741D01*
X16647414Y-13342740D01*
X16647795Y-13342442D01*
X16661256Y-13326847D01*
X16663123Y-13323561D01*
X16671193Y-13309355D01*
X16671193Y-13309355D01*
X16671432Y-13308934D01*
X16672788Y-13304859D01*
X16677782Y-13289845D01*
X16677782Y-13289845D01*
X16677935Y-13289386D01*
X16680517Y-13268947D01*
X16680558Y-13266000D01*
X16678548Y-13245497D01*
X16672593Y-13225775D01*
X16662922Y-13207585D01*
X16649901Y-13191620D01*
X16634027Y-13178488D01*
X16615905Y-13168690D01*
X16609585Y-13166733D01*
X16596687Y-13162741D01*
X16596687Y-13162741D01*
X16596225Y-13162598D01*
X16595745Y-13162547D01*
X16595744Y-13162547D01*
X16576218Y-13160495D01*
X16576218Y-13160495D01*
X16575737Y-13160444D01*
X16570488Y-13160922D01*
X16555702Y-13162267D01*
X16555702Y-13162268D01*
X16555220Y-13162311D01*
X16535457Y-13168128D01*
X16535029Y-13168352D01*
X16535029Y-13168352D01*
X16533943Y-13168920D01*
X16517200Y-13177673D01*
X16516823Y-13177976D01*
X16501522Y-13190278D01*
X16501522Y-13190278D01*
X16501145Y-13190581D01*
X16500833Y-13190953D01*
X16500833Y-13190953D01*
X16499958Y-13191995D01*
X16487902Y-13206363D01*
X16487669Y-13206788D01*
X16487669Y-13206788D01*
X16486995Y-13208013D01*
X16477978Y-13224416D01*
X16471748Y-13244053D01*
X16471694Y-13244534D01*
X16471694Y-13244534D01*
X16471586Y-13245497D01*
X16469452Y-13264526D01*
X13680414Y-13264526D01*
X13678548Y-13245497D01*
X13672593Y-13225775D01*
X13662922Y-13207585D01*
X13649901Y-13191620D01*
X13634027Y-13178488D01*
X13615905Y-13168690D01*
X13609585Y-13166733D01*
X13596687Y-13162741D01*
X13596687Y-13162741D01*
X13596225Y-13162598D01*
X13595745Y-13162547D01*
X13595744Y-13162547D01*
X13576218Y-13160495D01*
X13576218Y-13160495D01*
X13575737Y-13160444D01*
X13570488Y-13160922D01*
X13555702Y-13162267D01*
X13555702Y-13162268D01*
X13555220Y-13162311D01*
X13535457Y-13168128D01*
X13535029Y-13168352D01*
X13535029Y-13168352D01*
X13533943Y-13168920D01*
X13517200Y-13177673D01*
X13516823Y-13177976D01*
X13501522Y-13190278D01*
X13501522Y-13190278D01*
X13501145Y-13190581D01*
X13500833Y-13190953D01*
X13500833Y-13190953D01*
X13499958Y-13191995D01*
X13487902Y-13206363D01*
X13487669Y-13206788D01*
X13487669Y-13206788D01*
X13486995Y-13208013D01*
X13477978Y-13224416D01*
X13471748Y-13244053D01*
X13471694Y-13244534D01*
X13471694Y-13244534D01*
X13471586Y-13245497D01*
X13469452Y-13264526D01*
X13471176Y-13285055D01*
X13476854Y-13304859D01*
X13486271Y-13323182D01*
X13499068Y-13339327D01*
X13499436Y-13339640D01*
X13499436Y-13339640D01*
X13510702Y-13349228D01*
X13514756Y-13352679D01*
X13515179Y-13352915D01*
X13515179Y-13352915D01*
X13519134Y-13355126D01*
X13532740Y-13362730D01*
X13548194Y-13367751D01*
X13553144Y-13371348D01*
X13555035Y-13377167D01*
X13553144Y-13382986D01*
X13548194Y-13386582D01*
X13546633Y-13386953D01*
X13543823Y-13387383D01*
X13543034Y-13387571D01*
X13522581Y-13394256D01*
X13521835Y-13394569D01*
X13502748Y-13404505D01*
X13502063Y-13404937D01*
X13484854Y-13417857D01*
X13484249Y-13418395D01*
X13469383Y-13433951D01*
X13468873Y-13434581D01*
X13456747Y-13452357D01*
X13456347Y-13453061D01*
X13447287Y-13472579D01*
X13447007Y-13473339D01*
X13441406Y-13493538D01*
X12176749Y-13493538D01*
X12172593Y-13479775D01*
X12162922Y-13461585D01*
X12149901Y-13445620D01*
X12139723Y-13437200D01*
X12134400Y-13432796D01*
X12134400Y-13432796D01*
X12134027Y-13432488D01*
X12115905Y-13422690D01*
X12107507Y-13420090D01*
X12096687Y-13416741D01*
X12096687Y-13416741D01*
X12096225Y-13416598D01*
X12095745Y-13416547D01*
X12095744Y-13416547D01*
X12076218Y-13414495D01*
X12076218Y-13414495D01*
X12075737Y-13414444D01*
X12069735Y-13414990D01*
X12055702Y-13416267D01*
X12055702Y-13416268D01*
X12055220Y-13416311D01*
X12035457Y-13422128D01*
X12035029Y-13422352D01*
X12035029Y-13422352D01*
X12033943Y-13422920D01*
X12017200Y-13431673D01*
X12016823Y-13431976D01*
X12001522Y-13444278D01*
X12001522Y-13444278D01*
X12001145Y-13444581D01*
X12000833Y-13444953D01*
X12000833Y-13444953D01*
X11999958Y-13445995D01*
X11987902Y-13460363D01*
X11987669Y-13460788D01*
X11987669Y-13460788D01*
X11986995Y-13462013D01*
X11977978Y-13478416D01*
X11971748Y-13498053D01*
X11971694Y-13498534D01*
X11971694Y-13498534D01*
X11971586Y-13499497D01*
X11969452Y-13518526D01*
X9230000Y-13518526D01*
X9230000Y-13038701D01*
X11941804Y-13038701D01*
X11944881Y-13052352D01*
X11945123Y-13053126D01*
X11953218Y-13073062D01*
X11953584Y-13073786D01*
X11964827Y-13092132D01*
X11965306Y-13092787D01*
X11979393Y-13109050D01*
X11979973Y-13109618D01*
X11996529Y-13123363D01*
X11997192Y-13123827D01*
X12015771Y-13134684D01*
X12016501Y-13135033D01*
X12036604Y-13142710D01*
X12037381Y-13142936D01*
X12047799Y-13145055D01*
X12053124Y-13148068D01*
X12055662Y-13153636D01*
X12054442Y-13159632D01*
X12049931Y-13163765D01*
X12048621Y-13164254D01*
X12035457Y-13168128D01*
X12035029Y-13168352D01*
X12035029Y-13168352D01*
X12033943Y-13168920D01*
X12017200Y-13177673D01*
X12016823Y-13177976D01*
X12001522Y-13190278D01*
X12001522Y-13190278D01*
X12001145Y-13190581D01*
X12000833Y-13190953D01*
X12000833Y-13190953D01*
X11999958Y-13191995D01*
X11987902Y-13206363D01*
X11987669Y-13206788D01*
X11987669Y-13206788D01*
X11986995Y-13208013D01*
X11977978Y-13224416D01*
X11971748Y-13244053D01*
X11971694Y-13244534D01*
X11971694Y-13244534D01*
X11971586Y-13245497D01*
X11969452Y-13264526D01*
X11971176Y-13285055D01*
X11976854Y-13304859D01*
X11986271Y-13323182D01*
X11999068Y-13339327D01*
X11999436Y-13339640D01*
X11999436Y-13339640D01*
X12010702Y-13349228D01*
X12014756Y-13352679D01*
X12015179Y-13352915D01*
X12015179Y-13352915D01*
X12019134Y-13355126D01*
X12032740Y-13362730D01*
X12033200Y-13362879D01*
X12051872Y-13368946D01*
X12051873Y-13368946D01*
X12052333Y-13369096D01*
X12072789Y-13371535D01*
X12073272Y-13371498D01*
X12073272Y-13371498D01*
X12080054Y-13370976D01*
X12093330Y-13369955D01*
X12113172Y-13364414D01*
X12113604Y-13364197D01*
X12113604Y-13364196D01*
X12131129Y-13355344D01*
X12131129Y-13355344D01*
X12131561Y-13355126D01*
X12135094Y-13352365D01*
X12147413Y-13342741D01*
X12147414Y-13342740D01*
X12147795Y-13342442D01*
X12161256Y-13326847D01*
X12163123Y-13323561D01*
X12171193Y-13309355D01*
X12171193Y-13309355D01*
X12171432Y-13308934D01*
X12172788Y-13304859D01*
X12177782Y-13289845D01*
X12177782Y-13289845D01*
X12177935Y-13289386D01*
X12180517Y-13268947D01*
X12180558Y-13266000D01*
X12178548Y-13245497D01*
X12172593Y-13225775D01*
X12162922Y-13207585D01*
X12149901Y-13191620D01*
X12134027Y-13178488D01*
X12115905Y-13168690D01*
X12110504Y-13167018D01*
X12102206Y-13164449D01*
X12097206Y-13160922D01*
X12095235Y-13155130D01*
X12097044Y-13149285D01*
X12101943Y-13145620D01*
X12103075Y-13145308D01*
X12103720Y-13145171D01*
X12124330Y-13138988D01*
X12125085Y-13138692D01*
X12144409Y-13129225D01*
X12145105Y-13128810D01*
X12162623Y-13116315D01*
X12163241Y-13115792D01*
X12178483Y-13100603D01*
X12179009Y-13099986D01*
X12191565Y-13082512D01*
X12191982Y-13081818D01*
X12201516Y-13062527D01*
X12201814Y-13061774D01*
X12208070Y-13041184D01*
X12208241Y-13040394D01*
X12208430Y-13038955D01*
X12208187Y-13037643D01*
X12208057Y-13037519D01*
X12207529Y-13037400D01*
X11943079Y-13037400D01*
X11941846Y-13037801D01*
X11941804Y-13038701D01*
X9230000Y-13038701D01*
X9230000Y-12985538D01*
X11941406Y-12985538D01*
X11941576Y-12986346D01*
X11941757Y-12986510D01*
X11942179Y-12986600D01*
X12207078Y-12986600D01*
X12208273Y-12986212D01*
X12208306Y-12985246D01*
X12204095Y-12968481D01*
X12203833Y-12967713D01*
X12195253Y-12947981D01*
X12194870Y-12947266D01*
X12183183Y-12929200D01*
X12182688Y-12928557D01*
X12168206Y-12912643D01*
X12167614Y-12912090D01*
X12150727Y-12898753D01*
X12150052Y-12898305D01*
X12131214Y-12887906D01*
X12130475Y-12887574D01*
X12115532Y-12882282D01*
X12110677Y-12878557D01*
X12108940Y-12872691D01*
X12110982Y-12866923D01*
X12116025Y-12863458D01*
X12118836Y-12863050D01*
X12161975Y-12863050D01*
X12164599Y-12862528D01*
X12166867Y-12862077D01*
X12166867Y-12862077D01*
X12167823Y-12861887D01*
X12174455Y-12857455D01*
X12178887Y-12850823D01*
X12180050Y-12844975D01*
X12180050Y-12784701D01*
X13441804Y-12784701D01*
X13444881Y-12798352D01*
X13445123Y-12799126D01*
X13453218Y-12819062D01*
X13453584Y-12819786D01*
X13464827Y-12838132D01*
X13465306Y-12838787D01*
X13479393Y-12855050D01*
X13479973Y-12855618D01*
X13496529Y-12869363D01*
X13497192Y-12869827D01*
X13515771Y-12880684D01*
X13516501Y-12881033D01*
X13536604Y-12888710D01*
X13537381Y-12888936D01*
X13547799Y-12891055D01*
X13553124Y-12894068D01*
X13555662Y-12899636D01*
X13554442Y-12905632D01*
X13549931Y-12909765D01*
X13548621Y-12910254D01*
X13535457Y-12914128D01*
X13535029Y-12914352D01*
X13535029Y-12914352D01*
X13533943Y-12914920D01*
X13517200Y-12923673D01*
X13516823Y-12923976D01*
X13501522Y-12936278D01*
X13501522Y-12936278D01*
X13501145Y-12936581D01*
X13500833Y-12936953D01*
X13500833Y-12936953D01*
X13499958Y-12937995D01*
X13487902Y-12952363D01*
X13487669Y-12952788D01*
X13487669Y-12952788D01*
X13486995Y-12954013D01*
X13477978Y-12970416D01*
X13471748Y-12990053D01*
X13471694Y-12990534D01*
X13471694Y-12990534D01*
X13471586Y-12991497D01*
X13469452Y-13010526D01*
X13471176Y-13031055D01*
X13471309Y-13031520D01*
X13471309Y-13031520D01*
X13473854Y-13040394D01*
X13476854Y-13050859D01*
X13486271Y-13069182D01*
X13499068Y-13085327D01*
X13499436Y-13085640D01*
X13499436Y-13085640D01*
X13507064Y-13092132D01*
X13514756Y-13098679D01*
X13515179Y-13098915D01*
X13515179Y-13098915D01*
X13519134Y-13101126D01*
X13532740Y-13108730D01*
X13533200Y-13108879D01*
X13551872Y-13114946D01*
X13551873Y-13114946D01*
X13552333Y-13115096D01*
X13572789Y-13117535D01*
X13573272Y-13117498D01*
X13573272Y-13117498D01*
X13580054Y-13116976D01*
X13593330Y-13115955D01*
X13613172Y-13110414D01*
X13613604Y-13110197D01*
X13613604Y-13110196D01*
X13631129Y-13101344D01*
X13631129Y-13101344D01*
X13631561Y-13101126D01*
X13632229Y-13100603D01*
X13647413Y-13088741D01*
X13647414Y-13088740D01*
X13647795Y-13088442D01*
X13661256Y-13072847D01*
X13663123Y-13069561D01*
X13671193Y-13055355D01*
X13671193Y-13055355D01*
X13671432Y-13054934D01*
X13672034Y-13053126D01*
X13677782Y-13035845D01*
X13677782Y-13035845D01*
X13677935Y-13035386D01*
X13680517Y-13014947D01*
X13680558Y-13012000D01*
X13680414Y-13010526D01*
X16469452Y-13010526D01*
X16471176Y-13031055D01*
X16471309Y-13031520D01*
X16471309Y-13031520D01*
X16473854Y-13040394D01*
X16476854Y-13050859D01*
X16486271Y-13069182D01*
X16499068Y-13085327D01*
X16499436Y-13085640D01*
X16499436Y-13085640D01*
X16507064Y-13092132D01*
X16514756Y-13098679D01*
X16515179Y-13098915D01*
X16515179Y-13098915D01*
X16519134Y-13101126D01*
X16532740Y-13108730D01*
X16533200Y-13108879D01*
X16551872Y-13114946D01*
X16551873Y-13114946D01*
X16552333Y-13115096D01*
X16572789Y-13117535D01*
X16573272Y-13117498D01*
X16573272Y-13117498D01*
X16580054Y-13116976D01*
X16593330Y-13115955D01*
X16613172Y-13110414D01*
X16613604Y-13110197D01*
X16613604Y-13110196D01*
X16631129Y-13101344D01*
X16631129Y-13101344D01*
X16631561Y-13101126D01*
X16632229Y-13100603D01*
X16647413Y-13088741D01*
X16647414Y-13088740D01*
X16647795Y-13088442D01*
X16661256Y-13072847D01*
X16663123Y-13069561D01*
X16671193Y-13055355D01*
X16671193Y-13055355D01*
X16671432Y-13054934D01*
X16672034Y-13053126D01*
X16677782Y-13035845D01*
X16677782Y-13035845D01*
X16677935Y-13035386D01*
X16680517Y-13014947D01*
X16680558Y-13012000D01*
X16678548Y-12991497D01*
X16672593Y-12971775D01*
X16662922Y-12953585D01*
X16649901Y-12937620D01*
X16639723Y-12929200D01*
X16634400Y-12924796D01*
X16634400Y-12924796D01*
X16634027Y-12924488D01*
X16615905Y-12914690D01*
X16607507Y-12912090D01*
X16596687Y-12908741D01*
X16596687Y-12908741D01*
X16596225Y-12908598D01*
X16595745Y-12908547D01*
X16595744Y-12908547D01*
X16576218Y-12906495D01*
X16576218Y-12906495D01*
X16575737Y-12906444D01*
X16570488Y-12906922D01*
X16555702Y-12908267D01*
X16555702Y-12908268D01*
X16555220Y-12908311D01*
X16535457Y-12914128D01*
X16535029Y-12914352D01*
X16535029Y-12914352D01*
X16533943Y-12914920D01*
X16517200Y-12923673D01*
X16516823Y-12923976D01*
X16501522Y-12936278D01*
X16501522Y-12936278D01*
X16501145Y-12936581D01*
X16500833Y-12936953D01*
X16500833Y-12936953D01*
X16499958Y-12937995D01*
X16487902Y-12952363D01*
X16487669Y-12952788D01*
X16487669Y-12952788D01*
X16486995Y-12954013D01*
X16477978Y-12970416D01*
X16471748Y-12990053D01*
X16471694Y-12990534D01*
X16471694Y-12990534D01*
X16471586Y-12991497D01*
X16469452Y-13010526D01*
X13680414Y-13010526D01*
X13678548Y-12991497D01*
X13672593Y-12971775D01*
X13662922Y-12953585D01*
X13649901Y-12937620D01*
X13639723Y-12929200D01*
X13634400Y-12924796D01*
X13634400Y-12924796D01*
X13634027Y-12924488D01*
X13615905Y-12914690D01*
X13607507Y-12912090D01*
X13602206Y-12910449D01*
X13597206Y-12906922D01*
X13595235Y-12901130D01*
X13597044Y-12895285D01*
X13601943Y-12891620D01*
X13603075Y-12891308D01*
X13603720Y-12891171D01*
X13624330Y-12884988D01*
X13625085Y-12884692D01*
X13644409Y-12875225D01*
X13645105Y-12874810D01*
X13662623Y-12862315D01*
X13663241Y-12861792D01*
X13678483Y-12846603D01*
X13679009Y-12845986D01*
X13691565Y-12828512D01*
X13691982Y-12827818D01*
X13701516Y-12808527D01*
X13701814Y-12807774D01*
X13708070Y-12787184D01*
X13708241Y-12786394D01*
X13708430Y-12784955D01*
X13708187Y-12783643D01*
X13708057Y-12783519D01*
X13707529Y-12783400D01*
X13443079Y-12783400D01*
X13441846Y-12783801D01*
X13441804Y-12784701D01*
X12180050Y-12784701D01*
X12180050Y-12756526D01*
X16469452Y-12756526D01*
X16471176Y-12777055D01*
X16471309Y-12777520D01*
X16471309Y-12777520D01*
X16476129Y-12794328D01*
X16476854Y-12796859D01*
X16486271Y-12815182D01*
X16499068Y-12831327D01*
X16499436Y-12831640D01*
X16499436Y-12831640D01*
X16510702Y-12841228D01*
X16514756Y-12844679D01*
X16515179Y-12844915D01*
X16515179Y-12844915D01*
X16522849Y-12849202D01*
X16532740Y-12854730D01*
X16533200Y-12854879D01*
X16551872Y-12860946D01*
X16551873Y-12860946D01*
X16552333Y-12861096D01*
X16572789Y-12863535D01*
X16573272Y-12863498D01*
X16573272Y-12863498D01*
X16580326Y-12862955D01*
X16593330Y-12861955D01*
X16613172Y-12856414D01*
X16613604Y-12856197D01*
X16613604Y-12856196D01*
X16631129Y-12847344D01*
X16631129Y-12847344D01*
X16631561Y-12847126D01*
X16632229Y-12846603D01*
X16647413Y-12834741D01*
X16647414Y-12834740D01*
X16647795Y-12834442D01*
X16661256Y-12818847D01*
X16661496Y-12818426D01*
X16671193Y-12801355D01*
X16671193Y-12801355D01*
X16671432Y-12800934D01*
X16672034Y-12799126D01*
X16677782Y-12781845D01*
X16677782Y-12781845D01*
X16677935Y-12781386D01*
X16678906Y-12773697D01*
X16680482Y-12761223D01*
X16680517Y-12760947D01*
X16680532Y-12759893D01*
X16680544Y-12759022D01*
X16680558Y-12758000D01*
X16680288Y-12755245D01*
X16678595Y-12737978D01*
X16678595Y-12737978D01*
X16678548Y-12737497D01*
X16678052Y-12735855D01*
X16675012Y-12725787D01*
X16672593Y-12717775D01*
X16662922Y-12699585D01*
X16649901Y-12683620D01*
X16647677Y-12681780D01*
X16634400Y-12670796D01*
X16634400Y-12670796D01*
X16634027Y-12670488D01*
X16615905Y-12660690D01*
X16607507Y-12658090D01*
X16600804Y-12656015D01*
X17689559Y-12656015D01*
X17689572Y-12656364D01*
X17689572Y-12656365D01*
X17689804Y-12662253D01*
X17690615Y-12682908D01*
X17693286Y-12697533D01*
X17695201Y-12708020D01*
X17695451Y-12709384D01*
X17695561Y-12709716D01*
X17695561Y-12709716D01*
X17702842Y-12731538D01*
X17703968Y-12734915D01*
X17704125Y-12735228D01*
X17704125Y-12735228D01*
X17704778Y-12736534D01*
X17715998Y-12758990D01*
X17731300Y-12781131D01*
X17749570Y-12800894D01*
X17749841Y-12801115D01*
X17749841Y-12801115D01*
X17767585Y-12815561D01*
X17770441Y-12817887D01*
X17770740Y-12818067D01*
X17770740Y-12818067D01*
X17772393Y-12819062D01*
X17793499Y-12831768D01*
X17818282Y-12842263D01*
X17844297Y-12849161D01*
X17844645Y-12849202D01*
X17844645Y-12849202D01*
X17865181Y-12851632D01*
X17871025Y-12852324D01*
X17871373Y-12852316D01*
X17871374Y-12852316D01*
X17883634Y-12852027D01*
X17897931Y-12851690D01*
X17924480Y-12847271D01*
X17924813Y-12847166D01*
X17924813Y-12847165D01*
X17934437Y-12844122D01*
X17950141Y-12839155D01*
X17950457Y-12839004D01*
X17950457Y-12839004D01*
X17974087Y-12827657D01*
X17974087Y-12827656D01*
X17974403Y-12827505D01*
X17989749Y-12817251D01*
X17996489Y-12812747D01*
X17996490Y-12812747D01*
X17996781Y-12812553D01*
X17997041Y-12812319D01*
X17997042Y-12812319D01*
X18016568Y-12794830D01*
X18016568Y-12794830D01*
X18016829Y-12794596D01*
X18034147Y-12773994D01*
X18048389Y-12751157D01*
X18048530Y-12750837D01*
X18059130Y-12726862D01*
X18059130Y-12726861D01*
X18059271Y-12726542D01*
X18059366Y-12726205D01*
X18059366Y-12726205D01*
X18065817Y-12703331D01*
X18066577Y-12700638D01*
X18070160Y-12673964D01*
X18070168Y-12673710D01*
X18070528Y-12662253D01*
X18070528Y-12662252D01*
X18070536Y-12662000D01*
X18070483Y-12661263D01*
X18070153Y-12656600D01*
X18214081Y-12656600D01*
X18214103Y-12657071D01*
X18214103Y-12657071D01*
X18214873Y-12673710D01*
X18215052Y-12677577D01*
X18215163Y-12678035D01*
X18218834Y-12693266D01*
X18219972Y-12697992D01*
X18220167Y-12698421D01*
X18220167Y-12698421D01*
X18220697Y-12699585D01*
X18228664Y-12717108D01*
X18240814Y-12734236D01*
X18243917Y-12737207D01*
X18255643Y-12748432D01*
X18255643Y-12748432D01*
X18255983Y-12748757D01*
X18273625Y-12760148D01*
X18274062Y-12760325D01*
X18290749Y-12767050D01*
X18293102Y-12767998D01*
X18293564Y-12768088D01*
X18313363Y-12771955D01*
X18313363Y-12771955D01*
X18313712Y-12772023D01*
X18314264Y-12772050D01*
X18329747Y-12772050D01*
X18339354Y-12771133D01*
X18344935Y-12770601D01*
X18344936Y-12770601D01*
X18345405Y-12770556D01*
X18365555Y-12764645D01*
X18384224Y-12755029D01*
X18400738Y-12742058D01*
X18414501Y-12726197D01*
X18425017Y-12708020D01*
X18427946Y-12699585D01*
X18431751Y-12688627D01*
X18431751Y-12688627D01*
X18431905Y-12688183D01*
X18431973Y-12687716D01*
X18434851Y-12667867D01*
X18434851Y-12667867D01*
X18434919Y-12667400D01*
X18434778Y-12664366D01*
X18433970Y-12646894D01*
X18433970Y-12646894D01*
X18433948Y-12646423D01*
X18431504Y-12636284D01*
X18429138Y-12626466D01*
X18429138Y-12626466D01*
X18429028Y-12626008D01*
X18428743Y-12625383D01*
X18420531Y-12607321D01*
X18420336Y-12606892D01*
X18419912Y-12606294D01*
X18408459Y-12590148D01*
X18408186Y-12589764D01*
X18398449Y-12580442D01*
X18393357Y-12575568D01*
X18393357Y-12575568D01*
X18393017Y-12575242D01*
X18375375Y-12563851D01*
X18369693Y-12561561D01*
X18356336Y-12556178D01*
X18356335Y-12556178D01*
X18355898Y-12556002D01*
X18355369Y-12555898D01*
X18335637Y-12552045D01*
X18335637Y-12552045D01*
X18335288Y-12551977D01*
X18334736Y-12551950D01*
X18319253Y-12551950D01*
X18309646Y-12552867D01*
X18304065Y-12553399D01*
X18304065Y-12553399D01*
X18303595Y-12553444D01*
X18283445Y-12559355D01*
X18264776Y-12568970D01*
X18248262Y-12581942D01*
X18234499Y-12597803D01*
X18223983Y-12615980D01*
X18223829Y-12616424D01*
X18223829Y-12616424D01*
X18219378Y-12629241D01*
X18217095Y-12635817D01*
X18217027Y-12636284D01*
X18214393Y-12654448D01*
X18214081Y-12656600D01*
X18070153Y-12656600D01*
X18069155Y-12642505D01*
X18068635Y-12635153D01*
X18062970Y-12608842D01*
X18062643Y-12607955D01*
X18053776Y-12583921D01*
X18053655Y-12583592D01*
X18052765Y-12581942D01*
X18041041Y-12560214D01*
X18041040Y-12560214D01*
X18040874Y-12559906D01*
X18040468Y-12559355D01*
X18025093Y-12538539D01*
X18024884Y-12538257D01*
X18006003Y-12519077D01*
X17989746Y-12506670D01*
X17984887Y-12502962D01*
X17984887Y-12502961D01*
X17984608Y-12502749D01*
X17961126Y-12489598D01*
X17936025Y-12479887D01*
X17935685Y-12479809D01*
X17935684Y-12479808D01*
X17919442Y-12476044D01*
X17909806Y-12473810D01*
X17888804Y-12471991D01*
X17883342Y-12471518D01*
X17883342Y-12471518D01*
X17882993Y-12471488D01*
X17871421Y-12472125D01*
X17856470Y-12472948D01*
X17856469Y-12472948D01*
X17856120Y-12472967D01*
X17829723Y-12478218D01*
X17804329Y-12487135D01*
X17804019Y-12487296D01*
X17804019Y-12487296D01*
X17799588Y-12489598D01*
X17780446Y-12499542D01*
X17780161Y-12499745D01*
X17780161Y-12499745D01*
X17773818Y-12504278D01*
X17758548Y-12515190D01*
X17754211Y-12519327D01*
X17739327Y-12533526D01*
X17739327Y-12533526D01*
X17739074Y-12533767D01*
X17722412Y-12554903D01*
X17708894Y-12578176D01*
X17705129Y-12587472D01*
X17699076Y-12602414D01*
X17698790Y-12603121D01*
X17692302Y-12629241D01*
X17692266Y-12629590D01*
X17689719Y-12654448D01*
X17689559Y-12656015D01*
X16600804Y-12656015D01*
X16596687Y-12654741D01*
X16596687Y-12654741D01*
X16596225Y-12654598D01*
X16595745Y-12654547D01*
X16595744Y-12654547D01*
X16576218Y-12652495D01*
X16576218Y-12652495D01*
X16575737Y-12652444D01*
X16570180Y-12652950D01*
X16555702Y-12654267D01*
X16555702Y-12654268D01*
X16555220Y-12654311D01*
X16535457Y-12660128D01*
X16535029Y-12660352D01*
X16535029Y-12660352D01*
X16531389Y-12662255D01*
X16517200Y-12669673D01*
X16516823Y-12669976D01*
X16501522Y-12682278D01*
X16501522Y-12682278D01*
X16501145Y-12682581D01*
X16500833Y-12682953D01*
X16500833Y-12682953D01*
X16496072Y-12688627D01*
X16487902Y-12698363D01*
X16487669Y-12698788D01*
X16487669Y-12698788D01*
X16486995Y-12700013D01*
X16477978Y-12716416D01*
X16477831Y-12716877D01*
X16477831Y-12716878D01*
X16476785Y-12720177D01*
X16471748Y-12736053D01*
X16471694Y-12736534D01*
X16471694Y-12736534D01*
X16469653Y-12754738D01*
X16469452Y-12756526D01*
X12180050Y-12756526D01*
X12180050Y-12731538D01*
X13441406Y-12731538D01*
X13441576Y-12732346D01*
X13441757Y-12732510D01*
X13442179Y-12732600D01*
X13707078Y-12732600D01*
X13708273Y-12732212D01*
X13708306Y-12731246D01*
X13704095Y-12714481D01*
X13703833Y-12713713D01*
X13695253Y-12693981D01*
X13694870Y-12693266D01*
X13683183Y-12675200D01*
X13682688Y-12674557D01*
X13668206Y-12658643D01*
X13667614Y-12658090D01*
X13650727Y-12644753D01*
X13650052Y-12644305D01*
X13631214Y-12633906D01*
X13630475Y-12633574D01*
X13610192Y-12626391D01*
X13609408Y-12626184D01*
X13602459Y-12624946D01*
X13597062Y-12622064D01*
X13594389Y-12616560D01*
X13595462Y-12610537D01*
X13599871Y-12606294D01*
X13601533Y-12605664D01*
X13609650Y-12603398D01*
X13613172Y-12602414D01*
X13613604Y-12602197D01*
X13613604Y-12602196D01*
X13631129Y-12593344D01*
X13631129Y-12593344D01*
X13631561Y-12593126D01*
X13635094Y-12590365D01*
X13647413Y-12580741D01*
X13647414Y-12580740D01*
X13647795Y-12580442D01*
X13649472Y-12578500D01*
X13653731Y-12573565D01*
X13661256Y-12564847D01*
X13661677Y-12564107D01*
X13671193Y-12547355D01*
X13671193Y-12547355D01*
X13671432Y-12546934D01*
X13672788Y-12542859D01*
X13677782Y-12527845D01*
X13677782Y-12527845D01*
X13677935Y-12527386D01*
X13680517Y-12506947D01*
X13680558Y-12504000D01*
X13680456Y-12502962D01*
X13680414Y-12502526D01*
X16469452Y-12502526D01*
X16471176Y-12523055D01*
X16471309Y-12523520D01*
X16471309Y-12523520D01*
X16475616Y-12538539D01*
X16476854Y-12542859D01*
X16486271Y-12561182D01*
X16499068Y-12577327D01*
X16499436Y-12577640D01*
X16499436Y-12577640D01*
X16504149Y-12581651D01*
X16514756Y-12590679D01*
X16515179Y-12590915D01*
X16515179Y-12590915D01*
X16519134Y-12593126D01*
X16532740Y-12600730D01*
X16533200Y-12600879D01*
X16551872Y-12606946D01*
X16551873Y-12606946D01*
X16552333Y-12607096D01*
X16572789Y-12609535D01*
X16573272Y-12609498D01*
X16573272Y-12609498D01*
X16580054Y-12608976D01*
X16593330Y-12607955D01*
X16613172Y-12602414D01*
X16613604Y-12602197D01*
X16613604Y-12602196D01*
X16631129Y-12593344D01*
X16631129Y-12593344D01*
X16631561Y-12593126D01*
X16635094Y-12590365D01*
X16647413Y-12580741D01*
X16647414Y-12580740D01*
X16647795Y-12580442D01*
X16649472Y-12578500D01*
X16653731Y-12573565D01*
X16661256Y-12564847D01*
X16661677Y-12564107D01*
X16671193Y-12547355D01*
X16671193Y-12547355D01*
X16671432Y-12546934D01*
X16672788Y-12542859D01*
X16677782Y-12527845D01*
X16677782Y-12527845D01*
X16677935Y-12527386D01*
X16680517Y-12506947D01*
X16680558Y-12504000D01*
X16680456Y-12502962D01*
X16678595Y-12483978D01*
X16678595Y-12483978D01*
X16678548Y-12483497D01*
X16677434Y-12479808D01*
X16672733Y-12464238D01*
X16672593Y-12463775D01*
X16662922Y-12445585D01*
X16649901Y-12429620D01*
X16649094Y-12428953D01*
X16634400Y-12416796D01*
X16634400Y-12416796D01*
X16634027Y-12416488D01*
X16615905Y-12406690D01*
X16609585Y-12404733D01*
X16596687Y-12400741D01*
X16596687Y-12400741D01*
X16596225Y-12400598D01*
X16595745Y-12400547D01*
X16595744Y-12400547D01*
X16576218Y-12398495D01*
X16576218Y-12398495D01*
X16575737Y-12398444D01*
X16569735Y-12398990D01*
X16555702Y-12400267D01*
X16555702Y-12400268D01*
X16555220Y-12400311D01*
X16535457Y-12406128D01*
X16535029Y-12406352D01*
X16535029Y-12406352D01*
X16533943Y-12406920D01*
X16517200Y-12415673D01*
X16516823Y-12415976D01*
X16501522Y-12428278D01*
X16501522Y-12428278D01*
X16501145Y-12428581D01*
X16500833Y-12428953D01*
X16500833Y-12428953D01*
X16492983Y-12438309D01*
X16487902Y-12444363D01*
X16487669Y-12444788D01*
X16487669Y-12444788D01*
X16486995Y-12446013D01*
X16477978Y-12462416D01*
X16477831Y-12462877D01*
X16477831Y-12462878D01*
X16472965Y-12478218D01*
X16471748Y-12482053D01*
X16471694Y-12482534D01*
X16471694Y-12482534D01*
X16469764Y-12499745D01*
X16469452Y-12502526D01*
X13680414Y-12502526D01*
X13678595Y-12483978D01*
X13678595Y-12483978D01*
X13678548Y-12483497D01*
X13677434Y-12479808D01*
X13672733Y-12464238D01*
X13672593Y-12463775D01*
X13662922Y-12445585D01*
X13649901Y-12429620D01*
X13649094Y-12428953D01*
X13634400Y-12416796D01*
X13634400Y-12416796D01*
X13634027Y-12416488D01*
X13615905Y-12406690D01*
X13609585Y-12404733D01*
X13596687Y-12400741D01*
X13596687Y-12400741D01*
X13596225Y-12400598D01*
X13595745Y-12400547D01*
X13595744Y-12400547D01*
X13576218Y-12398495D01*
X13576218Y-12398495D01*
X13575737Y-12398444D01*
X13569735Y-12398990D01*
X13555702Y-12400267D01*
X13555702Y-12400268D01*
X13555220Y-12400311D01*
X13535457Y-12406128D01*
X13535029Y-12406352D01*
X13535029Y-12406352D01*
X13533943Y-12406920D01*
X13517200Y-12415673D01*
X13516823Y-12415976D01*
X13501522Y-12428278D01*
X13501522Y-12428278D01*
X13501145Y-12428581D01*
X13500833Y-12428953D01*
X13500833Y-12428953D01*
X13492983Y-12438309D01*
X13487902Y-12444363D01*
X13487669Y-12444788D01*
X13487669Y-12444788D01*
X13486995Y-12446013D01*
X13477978Y-12462416D01*
X13477831Y-12462877D01*
X13477831Y-12462878D01*
X13472965Y-12478218D01*
X13471748Y-12482053D01*
X13471694Y-12482534D01*
X13471694Y-12482534D01*
X13469764Y-12499745D01*
X13469452Y-12502526D01*
X13471176Y-12523055D01*
X13471309Y-12523520D01*
X13471309Y-12523520D01*
X13475616Y-12538539D01*
X13476854Y-12542859D01*
X13486271Y-12561182D01*
X13499068Y-12577327D01*
X13499436Y-12577640D01*
X13499436Y-12577640D01*
X13504149Y-12581651D01*
X13514756Y-12590679D01*
X13515179Y-12590915D01*
X13515179Y-12590915D01*
X13519134Y-12593126D01*
X13532740Y-12600730D01*
X13548194Y-12605751D01*
X13553144Y-12609348D01*
X13555035Y-12615167D01*
X13553144Y-12620986D01*
X13548194Y-12624582D01*
X13546633Y-12624953D01*
X13543823Y-12625383D01*
X13543034Y-12625571D01*
X13522581Y-12632256D01*
X13521835Y-12632569D01*
X13502748Y-12642505D01*
X13502063Y-12642937D01*
X13484854Y-12655857D01*
X13484249Y-12656395D01*
X13469383Y-12671951D01*
X13468873Y-12672581D01*
X13456747Y-12690357D01*
X13456347Y-12691061D01*
X13447287Y-12710579D01*
X13447007Y-12711339D01*
X13441406Y-12731538D01*
X12180050Y-12731538D01*
X12180050Y-12671025D01*
X12178887Y-12665177D01*
X12174455Y-12658545D01*
X12167823Y-12654113D01*
X12166867Y-12653923D01*
X12166867Y-12653923D01*
X12164599Y-12653472D01*
X12161975Y-12652950D01*
X11988025Y-12652950D01*
X11985400Y-12653472D01*
X11983133Y-12653923D01*
X11983133Y-12653923D01*
X11982177Y-12654113D01*
X11975545Y-12658545D01*
X11971113Y-12665177D01*
X11969950Y-12671025D01*
X11969950Y-12844975D01*
X11971113Y-12850823D01*
X11975545Y-12857455D01*
X11982177Y-12861887D01*
X11983133Y-12862077D01*
X11983133Y-12862077D01*
X11985400Y-12862528D01*
X11988025Y-12863050D01*
X12031424Y-12863050D01*
X12037243Y-12864941D01*
X12040840Y-12869891D01*
X12040840Y-12876009D01*
X12037243Y-12880959D01*
X12034500Y-12882360D01*
X12022581Y-12886256D01*
X12021835Y-12886569D01*
X12002748Y-12896505D01*
X12002063Y-12896937D01*
X11984854Y-12909857D01*
X11984249Y-12910395D01*
X11969383Y-12925951D01*
X11968873Y-12926581D01*
X11956747Y-12944357D01*
X11956347Y-12945061D01*
X11947287Y-12964579D01*
X11947007Y-12965339D01*
X11941406Y-12985538D01*
X9230000Y-12985538D01*
X9230000Y-12661263D01*
X9484444Y-12661263D01*
X9484727Y-12664366D01*
X9485886Y-12677106D01*
X9486311Y-12681780D01*
X9492128Y-12701543D01*
X9501673Y-12719800D01*
X9503240Y-12721749D01*
X9513558Y-12734582D01*
X9514582Y-12735855D01*
X9514953Y-12736167D01*
X9514953Y-12736167D01*
X9521549Y-12741702D01*
X9530363Y-12749098D01*
X9530788Y-12749331D01*
X9530788Y-12749331D01*
X9533528Y-12750837D01*
X9548416Y-12759022D01*
X9548878Y-12759169D01*
X9548878Y-12759169D01*
X9565460Y-12764429D01*
X9568053Y-12765252D01*
X9568534Y-12765306D01*
X9568535Y-12765306D01*
X9583811Y-12767019D01*
X9583811Y-12767019D01*
X9584086Y-12767050D01*
X9595184Y-12767050D01*
X9595424Y-12767026D01*
X9595424Y-12767026D01*
X9610022Y-12765595D01*
X9610022Y-12765595D01*
X9610503Y-12765548D01*
X9610966Y-12765408D01*
X9610966Y-12765408D01*
X9627803Y-12760325D01*
X9630225Y-12759593D01*
X9648415Y-12749922D01*
X9664380Y-12736901D01*
X9664988Y-12736167D01*
X9677204Y-12721400D01*
X9677204Y-12721400D01*
X9677512Y-12721027D01*
X9684545Y-12708020D01*
X9687080Y-12703331D01*
X9687080Y-12703331D01*
X9687310Y-12702905D01*
X9690977Y-12691061D01*
X9693259Y-12683687D01*
X9693259Y-12683687D01*
X9693402Y-12683225D01*
X9693506Y-12682244D01*
X9695505Y-12663218D01*
X9695505Y-12663218D01*
X9695556Y-12662737D01*
X9694944Y-12656015D01*
X10796559Y-12656015D01*
X10796572Y-12656364D01*
X10796572Y-12656365D01*
X10796804Y-12662253D01*
X10797615Y-12682908D01*
X10800286Y-12697533D01*
X10802201Y-12708020D01*
X10802451Y-12709384D01*
X10802561Y-12709716D01*
X10802561Y-12709716D01*
X10809842Y-12731538D01*
X10810968Y-12734915D01*
X10811125Y-12735228D01*
X10811125Y-12735228D01*
X10811778Y-12736534D01*
X10822998Y-12758990D01*
X10838300Y-12781131D01*
X10856570Y-12800894D01*
X10856841Y-12801115D01*
X10856841Y-12801115D01*
X10874585Y-12815561D01*
X10877441Y-12817887D01*
X10877740Y-12818067D01*
X10877740Y-12818067D01*
X10879393Y-12819062D01*
X10900499Y-12831768D01*
X10925282Y-12842263D01*
X10951297Y-12849161D01*
X10951645Y-12849202D01*
X10951645Y-12849202D01*
X10972181Y-12851632D01*
X10978025Y-12852324D01*
X10978373Y-12852316D01*
X10978374Y-12852316D01*
X10990634Y-12852027D01*
X11004931Y-12851690D01*
X11031480Y-12847271D01*
X11031813Y-12847166D01*
X11031813Y-12847165D01*
X11041437Y-12844122D01*
X11057141Y-12839155D01*
X11057457Y-12839004D01*
X11057457Y-12839004D01*
X11081087Y-12827657D01*
X11081087Y-12827656D01*
X11081403Y-12827505D01*
X11096749Y-12817251D01*
X11103489Y-12812747D01*
X11103490Y-12812747D01*
X11103781Y-12812553D01*
X11104041Y-12812319D01*
X11104042Y-12812319D01*
X11123568Y-12794830D01*
X11123568Y-12794830D01*
X11123829Y-12794596D01*
X11141147Y-12773994D01*
X11155389Y-12751157D01*
X11155530Y-12750837D01*
X11166130Y-12726862D01*
X11166130Y-12726861D01*
X11166271Y-12726542D01*
X11166366Y-12726205D01*
X11166366Y-12726205D01*
X11172817Y-12703331D01*
X11173577Y-12700638D01*
X11177160Y-12673964D01*
X11177168Y-12673710D01*
X11177528Y-12662253D01*
X11177528Y-12662252D01*
X11177536Y-12662000D01*
X11177483Y-12661263D01*
X11176155Y-12642505D01*
X11175635Y-12635153D01*
X11169970Y-12608842D01*
X11169643Y-12607955D01*
X11160776Y-12583921D01*
X11160655Y-12583592D01*
X11159765Y-12581942D01*
X11148041Y-12560214D01*
X11148040Y-12560214D01*
X11147874Y-12559906D01*
X11147468Y-12559355D01*
X11132093Y-12538539D01*
X11131884Y-12538257D01*
X11113003Y-12519077D01*
X11096746Y-12506670D01*
X11091887Y-12502962D01*
X11091887Y-12502961D01*
X11091608Y-12502749D01*
X11068126Y-12489598D01*
X11043025Y-12479887D01*
X11042685Y-12479809D01*
X11042684Y-12479808D01*
X11026442Y-12476044D01*
X11016806Y-12473810D01*
X10995804Y-12471991D01*
X10990342Y-12471518D01*
X10990342Y-12471518D01*
X10989993Y-12471488D01*
X10978421Y-12472125D01*
X10963470Y-12472948D01*
X10963469Y-12472948D01*
X10963120Y-12472967D01*
X10936723Y-12478218D01*
X10911329Y-12487135D01*
X10911019Y-12487296D01*
X10911019Y-12487296D01*
X10906588Y-12489598D01*
X10887446Y-12499542D01*
X10887161Y-12499745D01*
X10887161Y-12499745D01*
X10880818Y-12504278D01*
X10865548Y-12515190D01*
X10861211Y-12519327D01*
X10846327Y-12533526D01*
X10846327Y-12533526D01*
X10846074Y-12533767D01*
X10829412Y-12554903D01*
X10815894Y-12578176D01*
X10812129Y-12587472D01*
X10806076Y-12602414D01*
X10805790Y-12603121D01*
X10799302Y-12629241D01*
X10799266Y-12629590D01*
X10796719Y-12654448D01*
X10796559Y-12656015D01*
X9694944Y-12656015D01*
X9694801Y-12654448D01*
X9693733Y-12642702D01*
X9693732Y-12642702D01*
X9693689Y-12642220D01*
X9687872Y-12622457D01*
X9678327Y-12604200D01*
X9669423Y-12593126D01*
X9665722Y-12588522D01*
X9665722Y-12588522D01*
X9665419Y-12588145D01*
X9659625Y-12583283D01*
X9650009Y-12575214D01*
X9650008Y-12575214D01*
X9649637Y-12574902D01*
X9647724Y-12573851D01*
X9643474Y-12571514D01*
X9631584Y-12564978D01*
X9631123Y-12564831D01*
X9631122Y-12564831D01*
X9612408Y-12558895D01*
X9611947Y-12558748D01*
X9611466Y-12558694D01*
X9611466Y-12558694D01*
X9596189Y-12556981D01*
X9596189Y-12556981D01*
X9595914Y-12556950D01*
X9584816Y-12556950D01*
X9584576Y-12556973D01*
X9584576Y-12556973D01*
X9569978Y-12558405D01*
X9569978Y-12558405D01*
X9569497Y-12558452D01*
X9569035Y-12558592D01*
X9569034Y-12558592D01*
X9560456Y-12561182D01*
X9549775Y-12564406D01*
X9531585Y-12574078D01*
X9515620Y-12587099D01*
X9502488Y-12602972D01*
X9502258Y-12603398D01*
X9495215Y-12616424D01*
X9492690Y-12621094D01*
X9492547Y-12621556D01*
X9488230Y-12635503D01*
X9486598Y-12640775D01*
X9486547Y-12641255D01*
X9486547Y-12641256D01*
X9484495Y-12660781D01*
X9484444Y-12661263D01*
X9230000Y-12661263D01*
X9230000Y-12281000D01*
X10313440Y-12281000D01*
X10315478Y-12306899D01*
X10321543Y-12332161D01*
X10331485Y-12356163D01*
X10345059Y-12378314D01*
X10361931Y-12398069D01*
X10381686Y-12414941D01*
X10403837Y-12428515D01*
X10427839Y-12438457D01*
X10428216Y-12438548D01*
X10428217Y-12438548D01*
X10441693Y-12441783D01*
X10453101Y-12444522D01*
X10453487Y-12444552D01*
X10453488Y-12444553D01*
X10478613Y-12446530D01*
X10479000Y-12446560D01*
X10479388Y-12446530D01*
X10504512Y-12444553D01*
X10504513Y-12444552D01*
X10504899Y-12444522D01*
X10516307Y-12441783D01*
X10529783Y-12438548D01*
X10529784Y-12438548D01*
X10530161Y-12438457D01*
X10554163Y-12428515D01*
X10576314Y-12414941D01*
X10596069Y-12398069D01*
X10612941Y-12378314D01*
X10626515Y-12356163D01*
X10636457Y-12332161D01*
X10642522Y-12306899D01*
X10644560Y-12281000D01*
X10821440Y-12281000D01*
X10823478Y-12306899D01*
X10829543Y-12332161D01*
X10839485Y-12356163D01*
X10853059Y-12378314D01*
X10869931Y-12398069D01*
X10889686Y-12414941D01*
X10911837Y-12428515D01*
X10935839Y-12438457D01*
X10936216Y-12438548D01*
X10936217Y-12438548D01*
X10949693Y-12441783D01*
X10961101Y-12444522D01*
X10961487Y-12444552D01*
X10961488Y-12444553D01*
X10986613Y-12446530D01*
X10987000Y-12446560D01*
X10987388Y-12446530D01*
X11012512Y-12444553D01*
X11012513Y-12444552D01*
X11012899Y-12444522D01*
X11024307Y-12441783D01*
X11037783Y-12438548D01*
X11037784Y-12438548D01*
X11038161Y-12438457D01*
X11062163Y-12428515D01*
X11084314Y-12414941D01*
X11104069Y-12398069D01*
X11120941Y-12378314D01*
X11134515Y-12356163D01*
X11142463Y-12336975D01*
X13469950Y-12336975D01*
X13471113Y-12342823D01*
X13475545Y-12349455D01*
X13482177Y-12353887D01*
X13483133Y-12354077D01*
X13483133Y-12354077D01*
X13485400Y-12354528D01*
X13488025Y-12355050D01*
X13661975Y-12355050D01*
X13664599Y-12354528D01*
X13666867Y-12354077D01*
X13666867Y-12354077D01*
X13667823Y-12353887D01*
X13674455Y-12349455D01*
X13678887Y-12342823D01*
X13680050Y-12336975D01*
X16469950Y-12336975D01*
X16471113Y-12342823D01*
X16475545Y-12349455D01*
X16482177Y-12353887D01*
X16483133Y-12354077D01*
X16483133Y-12354077D01*
X16485400Y-12354528D01*
X16488025Y-12355050D01*
X16661975Y-12355050D01*
X16664599Y-12354528D01*
X16666867Y-12354077D01*
X16666867Y-12354077D01*
X16667823Y-12353887D01*
X16674455Y-12349455D01*
X16678887Y-12342823D01*
X16680050Y-12336975D01*
X16680050Y-12281000D01*
X17332940Y-12281000D01*
X17334978Y-12306899D01*
X17341043Y-12332161D01*
X17350985Y-12356163D01*
X17364559Y-12378314D01*
X17381431Y-12398069D01*
X17401186Y-12414941D01*
X17423337Y-12428515D01*
X17447339Y-12438457D01*
X17447716Y-12438548D01*
X17447717Y-12438548D01*
X17461193Y-12441783D01*
X17472601Y-12444522D01*
X17472987Y-12444552D01*
X17472988Y-12444553D01*
X17498113Y-12446530D01*
X17498500Y-12446560D01*
X17498888Y-12446530D01*
X17524012Y-12444553D01*
X17524013Y-12444552D01*
X17524399Y-12444522D01*
X17535807Y-12441783D01*
X17549283Y-12438548D01*
X17549284Y-12438548D01*
X17549661Y-12438457D01*
X17573663Y-12428515D01*
X17595814Y-12414941D01*
X17615569Y-12398069D01*
X17632441Y-12378314D01*
X17646015Y-12356163D01*
X17655957Y-12332161D01*
X17662022Y-12306899D01*
X17664060Y-12281000D01*
X17662022Y-12255101D01*
X17655957Y-12229839D01*
X17646015Y-12205837D01*
X17632441Y-12183686D01*
X17615569Y-12163931D01*
X17595814Y-12147059D01*
X17573663Y-12133485D01*
X17549661Y-12123543D01*
X17549284Y-12123452D01*
X17549283Y-12123452D01*
X17532063Y-12119318D01*
X17524399Y-12117478D01*
X17524013Y-12117447D01*
X17524012Y-12117447D01*
X17498888Y-12115470D01*
X17498500Y-12115440D01*
X17498113Y-12115470D01*
X17472988Y-12117447D01*
X17472987Y-12117447D01*
X17472601Y-12117478D01*
X17464937Y-12119318D01*
X17447717Y-12123452D01*
X17447716Y-12123452D01*
X17447339Y-12123543D01*
X17423337Y-12133485D01*
X17401186Y-12147059D01*
X17381431Y-12163931D01*
X17364559Y-12183686D01*
X17350985Y-12205837D01*
X17341043Y-12229839D01*
X17334978Y-12255101D01*
X17332940Y-12281000D01*
X16680050Y-12281000D01*
X16680050Y-12163025D01*
X16678887Y-12157177D01*
X16674455Y-12150545D01*
X16667823Y-12146113D01*
X16666867Y-12145923D01*
X16666867Y-12145923D01*
X16664599Y-12145472D01*
X16661975Y-12144950D01*
X16488025Y-12144950D01*
X16485400Y-12145472D01*
X16483133Y-12145923D01*
X16483133Y-12145923D01*
X16482177Y-12146113D01*
X16475545Y-12150545D01*
X16471113Y-12157177D01*
X16469950Y-12163025D01*
X16469950Y-12336975D01*
X13680050Y-12336975D01*
X13680050Y-12163025D01*
X13678887Y-12157177D01*
X13674455Y-12150545D01*
X13667823Y-12146113D01*
X13666867Y-12145923D01*
X13666867Y-12145923D01*
X13664599Y-12145472D01*
X13661975Y-12144950D01*
X13488025Y-12144950D01*
X13485400Y-12145472D01*
X13483133Y-12145923D01*
X13483133Y-12145923D01*
X13482177Y-12146113D01*
X13475545Y-12150545D01*
X13471113Y-12157177D01*
X13469950Y-12163025D01*
X13469950Y-12336975D01*
X11142463Y-12336975D01*
X11144457Y-12332161D01*
X11150522Y-12306899D01*
X11152560Y-12281000D01*
X11150522Y-12255101D01*
X11144457Y-12229839D01*
X11134515Y-12205837D01*
X11120941Y-12183686D01*
X11104069Y-12163931D01*
X11084314Y-12147059D01*
X11062163Y-12133485D01*
X11052199Y-12129357D01*
X11047547Y-12125384D01*
X11046118Y-12119434D01*
X11048460Y-12113782D01*
X11052806Y-12110837D01*
X11071371Y-12104534D01*
X11071969Y-12104287D01*
X11097346Y-12091772D01*
X11097907Y-12091448D01*
X11121434Y-12075728D01*
X11121947Y-12075334D01*
X11123148Y-12074281D01*
X11123715Y-12073327D01*
X17806677Y-12073327D01*
X17806732Y-12073676D01*
X17806882Y-12073869D01*
X17808553Y-12075334D01*
X17809066Y-12075728D01*
X17832593Y-12091448D01*
X17833154Y-12091772D01*
X17858532Y-12104287D01*
X17859129Y-12104534D01*
X17885924Y-12113630D01*
X17886547Y-12113797D01*
X17914301Y-12119318D01*
X17914941Y-12119402D01*
X17943177Y-12121253D01*
X17943824Y-12121253D01*
X17972059Y-12119402D01*
X17972699Y-12119318D01*
X18000453Y-12113797D01*
X18001076Y-12113630D01*
X18027871Y-12104534D01*
X18028469Y-12104287D01*
X18053846Y-12091772D01*
X18054407Y-12091448D01*
X18077934Y-12075728D01*
X18078447Y-12075334D01*
X18079648Y-12074281D01*
X18080330Y-12073135D01*
X18080297Y-12072783D01*
X18080160Y-12072581D01*
X17944609Y-11937030D01*
X17943420Y-11936424D01*
X17942917Y-11936504D01*
X17807282Y-12072139D01*
X17806677Y-12073327D01*
X11123715Y-12073327D01*
X11123830Y-12073135D01*
X11123797Y-12072783D01*
X11123660Y-12072581D01*
X10988109Y-11937030D01*
X10986920Y-11936424D01*
X10986417Y-11936504D01*
X10850782Y-12072139D01*
X10850177Y-12073327D01*
X10850232Y-12073676D01*
X10850382Y-12073869D01*
X10852053Y-12075334D01*
X10852566Y-12075728D01*
X10876093Y-12091448D01*
X10876654Y-12091772D01*
X10902032Y-12104287D01*
X10902629Y-12104534D01*
X10921194Y-12110837D01*
X10926097Y-12114497D01*
X10927911Y-12120341D01*
X10925945Y-12126135D01*
X10921801Y-12129357D01*
X10911837Y-12133485D01*
X10889686Y-12147059D01*
X10869931Y-12163931D01*
X10853059Y-12183686D01*
X10839485Y-12205837D01*
X10829543Y-12229839D01*
X10823478Y-12255101D01*
X10821440Y-12281000D01*
X10644560Y-12281000D01*
X10642522Y-12255101D01*
X10636457Y-12229839D01*
X10626515Y-12205837D01*
X10612941Y-12183686D01*
X10596069Y-12163931D01*
X10576314Y-12147059D01*
X10554163Y-12133485D01*
X10530161Y-12123543D01*
X10529784Y-12123452D01*
X10529783Y-12123452D01*
X10512563Y-12119318D01*
X10504899Y-12117478D01*
X10504513Y-12117447D01*
X10504512Y-12117447D01*
X10479388Y-12115470D01*
X10479000Y-12115440D01*
X10478613Y-12115470D01*
X10453488Y-12117447D01*
X10453487Y-12117447D01*
X10453101Y-12117478D01*
X10445437Y-12119318D01*
X10428217Y-12123452D01*
X10428216Y-12123452D01*
X10427839Y-12123543D01*
X10403837Y-12133485D01*
X10381686Y-12147059D01*
X10361931Y-12163931D01*
X10345059Y-12183686D01*
X10331485Y-12205837D01*
X10321543Y-12229839D01*
X10315478Y-12255101D01*
X10313440Y-12281000D01*
X9230000Y-12281000D01*
X9230000Y-11899263D01*
X9992444Y-11899263D01*
X9992960Y-11904929D01*
X9993886Y-11915106D01*
X9994311Y-11919780D01*
X10000128Y-11939543D01*
X10009673Y-11957800D01*
X10011240Y-11959749D01*
X10021280Y-11972236D01*
X10022582Y-11973855D01*
X10022953Y-11974167D01*
X10022953Y-11974167D01*
X10029549Y-11979702D01*
X10038363Y-11987098D01*
X10038788Y-11987331D01*
X10038788Y-11987331D01*
X10044526Y-11990486D01*
X10056416Y-11997022D01*
X10056878Y-11997169D01*
X10056878Y-11997169D01*
X10073460Y-12002429D01*
X10076053Y-12003252D01*
X10076534Y-12003306D01*
X10076535Y-12003306D01*
X10091811Y-12005019D01*
X10091811Y-12005019D01*
X10092086Y-12005050D01*
X10103184Y-12005050D01*
X10103424Y-12005026D01*
X10103424Y-12005026D01*
X10118022Y-12003595D01*
X10118022Y-12003595D01*
X10118503Y-12003548D01*
X10118966Y-12003408D01*
X10118966Y-12003408D01*
X10135803Y-11998325D01*
X10138225Y-11997593D01*
X10156415Y-11987922D01*
X10172380Y-11974901D01*
X10185512Y-11959027D01*
X10192545Y-11946020D01*
X10195080Y-11941331D01*
X10195080Y-11941331D01*
X10195310Y-11940905D01*
X10199132Y-11928559D01*
X10201259Y-11921687D01*
X10201259Y-11921687D01*
X10201402Y-11921225D01*
X10201506Y-11920244D01*
X10203505Y-11901218D01*
X10203505Y-11901218D01*
X10203556Y-11900737D01*
X10203518Y-11900323D01*
X10765747Y-11900323D01*
X10767598Y-11928559D01*
X10767682Y-11929199D01*
X10773203Y-11956953D01*
X10773370Y-11957576D01*
X10782466Y-11984371D01*
X10782713Y-11984968D01*
X10795228Y-12010346D01*
X10795552Y-12010907D01*
X10811272Y-12034434D01*
X10811666Y-12034947D01*
X10812719Y-12036147D01*
X10813865Y-12036830D01*
X10814217Y-12036797D01*
X10814419Y-12036660D01*
X10949970Y-11901109D01*
X10950495Y-11900080D01*
X11023424Y-11900080D01*
X11023504Y-11900583D01*
X11159139Y-12036218D01*
X11160327Y-12036823D01*
X11160676Y-12036768D01*
X11160869Y-12036618D01*
X11162335Y-12034947D01*
X11162728Y-12034434D01*
X11178449Y-12010907D01*
X11178772Y-12010346D01*
X11191287Y-11984968D01*
X11191534Y-11984371D01*
X11200630Y-11957576D01*
X11200797Y-11956953D01*
X11206318Y-11929199D01*
X11206402Y-11928559D01*
X11208253Y-11900323D01*
X17722247Y-11900323D01*
X17724098Y-11928559D01*
X17724182Y-11929199D01*
X17729703Y-11956953D01*
X17729870Y-11957576D01*
X17738966Y-11984371D01*
X17739213Y-11984968D01*
X17751728Y-12010346D01*
X17752052Y-12010907D01*
X17767772Y-12034434D01*
X17768166Y-12034947D01*
X17769219Y-12036147D01*
X17770365Y-12036830D01*
X17770717Y-12036797D01*
X17770919Y-12036660D01*
X17906470Y-11901109D01*
X17906995Y-11900080D01*
X17979924Y-11900080D01*
X17980004Y-11900583D01*
X18115639Y-12036218D01*
X18116827Y-12036823D01*
X18117176Y-12036768D01*
X18117369Y-12036618D01*
X18118835Y-12034947D01*
X18119228Y-12034434D01*
X18134949Y-12010907D01*
X18135272Y-12010346D01*
X18147787Y-11984968D01*
X18148034Y-11984371D01*
X18157130Y-11957576D01*
X18157297Y-11956953D01*
X18162818Y-11929199D01*
X18162902Y-11928559D01*
X18164753Y-11900323D01*
X18164753Y-11899676D01*
X18164420Y-11894600D01*
X18722081Y-11894600D01*
X18722103Y-11895071D01*
X18722103Y-11895071D01*
X18722366Y-11900737D01*
X18723052Y-11915577D01*
X18723163Y-11916035D01*
X18725608Y-11926183D01*
X18727972Y-11935992D01*
X18728167Y-11936421D01*
X18728167Y-11936421D01*
X18729376Y-11939079D01*
X18736664Y-11955108D01*
X18748814Y-11972236D01*
X18751917Y-11975207D01*
X18763643Y-11986432D01*
X18763643Y-11986432D01*
X18763983Y-11986757D01*
X18781625Y-11998148D01*
X18782062Y-11998325D01*
X18798749Y-12005050D01*
X18801102Y-12005998D01*
X18801564Y-12006088D01*
X18821363Y-12009955D01*
X18821363Y-12009955D01*
X18821712Y-12010023D01*
X18822264Y-12010050D01*
X18837747Y-12010050D01*
X18847354Y-12009133D01*
X18852935Y-12008601D01*
X18852936Y-12008601D01*
X18853405Y-12008556D01*
X18873555Y-12002645D01*
X18892224Y-11993029D01*
X18908738Y-11980058D01*
X18922501Y-11964197D01*
X18933017Y-11946020D01*
X18936321Y-11936504D01*
X18939751Y-11926627D01*
X18939751Y-11926627D01*
X18939905Y-11926183D01*
X18940694Y-11920744D01*
X18942851Y-11905867D01*
X18942851Y-11905867D01*
X18942919Y-11905400D01*
X18942897Y-11904929D01*
X18941970Y-11884894D01*
X18941970Y-11884894D01*
X18941948Y-11884423D01*
X18939504Y-11874284D01*
X18937138Y-11864466D01*
X18937138Y-11864466D01*
X18937028Y-11864008D01*
X18936556Y-11862970D01*
X18928531Y-11845321D01*
X18928336Y-11844892D01*
X18926265Y-11841972D01*
X18916459Y-11828148D01*
X18916186Y-11827764D01*
X18903510Y-11815629D01*
X18901357Y-11813568D01*
X18901357Y-11813568D01*
X18901017Y-11813242D01*
X18883375Y-11801851D01*
X18872754Y-11797571D01*
X18864336Y-11794178D01*
X18864335Y-11794178D01*
X18863898Y-11794002D01*
X18863369Y-11793898D01*
X18843637Y-11790045D01*
X18843637Y-11790045D01*
X18843288Y-11789977D01*
X18842736Y-11789950D01*
X18827253Y-11789950D01*
X18817646Y-11790867D01*
X18812065Y-11791399D01*
X18812065Y-11791399D01*
X18811595Y-11791444D01*
X18791445Y-11797355D01*
X18772776Y-11806970D01*
X18756262Y-11819942D01*
X18742499Y-11835803D01*
X18731983Y-11853980D01*
X18731829Y-11854424D01*
X18731829Y-11854424D01*
X18725573Y-11872441D01*
X18725095Y-11873817D01*
X18725027Y-11874284D01*
X18724234Y-11879756D01*
X18722081Y-11894600D01*
X18164420Y-11894600D01*
X18162902Y-11871441D01*
X18162818Y-11870801D01*
X18157297Y-11843047D01*
X18157130Y-11842424D01*
X18148034Y-11815629D01*
X18147787Y-11815031D01*
X18135272Y-11789654D01*
X18134949Y-11789093D01*
X18119228Y-11765566D01*
X18118835Y-11765053D01*
X18117781Y-11763852D01*
X18116635Y-11763170D01*
X18116283Y-11763203D01*
X18116081Y-11763340D01*
X17980530Y-11898891D01*
X17979924Y-11900080D01*
X17906995Y-11900080D01*
X17907076Y-11899920D01*
X17906996Y-11899417D01*
X17771361Y-11763782D01*
X17770173Y-11763177D01*
X17769824Y-11763232D01*
X17769631Y-11763382D01*
X17768166Y-11765053D01*
X17767772Y-11765566D01*
X17752052Y-11789093D01*
X17751728Y-11789654D01*
X17739213Y-11815031D01*
X17738966Y-11815629D01*
X17729870Y-11842424D01*
X17729703Y-11843047D01*
X17724182Y-11870801D01*
X17724098Y-11871441D01*
X17722247Y-11899676D01*
X17722247Y-11900323D01*
X11208253Y-11900323D01*
X11208253Y-11899676D01*
X11206402Y-11871441D01*
X11206318Y-11870801D01*
X11200797Y-11843047D01*
X11200630Y-11842424D01*
X11195375Y-11826944D01*
X13874490Y-11826944D01*
X13874582Y-11827644D01*
X13874582Y-11827644D01*
X13874708Y-11828612D01*
X13876163Y-11839739D01*
X13876447Y-11840384D01*
X13876447Y-11840385D01*
X13881076Y-11850905D01*
X13881360Y-11851551D01*
X13885512Y-11856490D01*
X13889210Y-11860889D01*
X13889210Y-11860889D01*
X13889664Y-11861429D01*
X13900406Y-11868580D01*
X13901079Y-11868790D01*
X13901079Y-11868790D01*
X13906565Y-11870504D01*
X13912723Y-11872428D01*
X13919174Y-11872546D01*
X13924920Y-11872651D01*
X13924920Y-11872651D01*
X13925625Y-11872664D01*
X13926306Y-11872479D01*
X13926306Y-11872479D01*
X13930483Y-11871340D01*
X13938075Y-11869270D01*
X13949072Y-11862518D01*
X13957732Y-11852951D01*
X13963359Y-11841337D01*
X13965500Y-11828612D01*
X13965513Y-11827500D01*
X13963684Y-11814726D01*
X13960158Y-11806970D01*
X13958635Y-11803621D01*
X13958635Y-11803621D01*
X13958343Y-11802979D01*
X13953497Y-11797355D01*
X13952704Y-11796435D01*
X13950338Y-11790792D01*
X13951740Y-11784836D01*
X13952864Y-11783329D01*
X13957259Y-11778473D01*
X13957259Y-11778473D01*
X13957732Y-11777951D01*
X13963359Y-11766337D01*
X13965500Y-11753612D01*
X13965513Y-11752500D01*
X13963684Y-11739726D01*
X13961846Y-11735685D01*
X13958635Y-11728621D01*
X13958635Y-11728621D01*
X13958343Y-11727979D01*
X13957383Y-11726865D01*
X17806670Y-11726865D01*
X17806703Y-11727217D01*
X17806840Y-11727419D01*
X17942391Y-11862970D01*
X17943580Y-11863576D01*
X17944083Y-11863496D01*
X18079718Y-11727861D01*
X18080323Y-11726673D01*
X18080268Y-11726324D01*
X18080118Y-11726131D01*
X18078447Y-11724665D01*
X18077934Y-11724272D01*
X18054407Y-11708551D01*
X18053846Y-11708228D01*
X18028469Y-11695713D01*
X18027871Y-11695466D01*
X18001076Y-11686370D01*
X18000453Y-11686203D01*
X17972699Y-11680682D01*
X17972059Y-11680598D01*
X17943824Y-11678747D01*
X17943177Y-11678747D01*
X17914941Y-11680598D01*
X17914301Y-11680682D01*
X17886547Y-11686203D01*
X17885924Y-11686370D01*
X17859129Y-11695466D01*
X17858532Y-11695713D01*
X17833154Y-11708228D01*
X17832593Y-11708551D01*
X17809066Y-11724272D01*
X17808553Y-11724665D01*
X17807353Y-11725719D01*
X17806670Y-11726865D01*
X13957383Y-11726865D01*
X13949919Y-11718203D01*
X13949328Y-11717819D01*
X13949327Y-11717819D01*
X13939682Y-11711568D01*
X13939091Y-11711184D01*
X13938415Y-11710982D01*
X13938415Y-11710982D01*
X13933129Y-11709401D01*
X13926727Y-11707487D01*
X13919064Y-11707440D01*
X13914528Y-11707412D01*
X13913823Y-11707408D01*
X13913145Y-11707601D01*
X13913145Y-11707601D01*
X13902093Y-11710760D01*
X13902093Y-11710760D01*
X13901415Y-11710954D01*
X13890502Y-11717840D01*
X13881960Y-11727512D01*
X13876475Y-11739193D01*
X13874490Y-11751944D01*
X13874582Y-11752644D01*
X13874582Y-11752644D01*
X13874708Y-11753612D01*
X13876163Y-11764739D01*
X13876447Y-11765384D01*
X13876447Y-11765385D01*
X13877146Y-11766972D01*
X13881360Y-11776551D01*
X13881814Y-11777091D01*
X13881814Y-11777091D01*
X13882976Y-11778473D01*
X13887058Y-11783329D01*
X13887345Y-11783670D01*
X13889642Y-11789341D01*
X13888167Y-11795279D01*
X13887187Y-11796593D01*
X13882699Y-11801675D01*
X13881960Y-11802512D01*
X13876475Y-11814193D01*
X13874490Y-11826944D01*
X11195375Y-11826944D01*
X11191534Y-11815629D01*
X11191287Y-11815031D01*
X11178772Y-11789654D01*
X11178449Y-11789093D01*
X11162728Y-11765566D01*
X11162335Y-11765053D01*
X11161281Y-11763852D01*
X11160135Y-11763170D01*
X11159783Y-11763203D01*
X11159581Y-11763340D01*
X11024030Y-11898891D01*
X11023424Y-11900080D01*
X10950495Y-11900080D01*
X10950576Y-11899920D01*
X10950496Y-11899417D01*
X10814861Y-11763782D01*
X10813673Y-11763177D01*
X10813324Y-11763232D01*
X10813131Y-11763382D01*
X10811666Y-11765053D01*
X10811272Y-11765566D01*
X10795552Y-11789093D01*
X10795228Y-11789654D01*
X10782713Y-11815031D01*
X10782466Y-11815629D01*
X10773370Y-11842424D01*
X10773203Y-11843047D01*
X10767682Y-11870801D01*
X10767598Y-11871441D01*
X10765747Y-11899676D01*
X10765747Y-11900323D01*
X10203518Y-11900323D01*
X10202955Y-11894133D01*
X10201733Y-11880702D01*
X10201732Y-11880702D01*
X10201689Y-11880220D01*
X10195872Y-11860457D01*
X10186327Y-11842200D01*
X10180898Y-11835447D01*
X10173722Y-11826522D01*
X10173722Y-11826522D01*
X10173419Y-11826145D01*
X10171808Y-11824793D01*
X10158009Y-11813214D01*
X10158008Y-11813214D01*
X10157637Y-11812902D01*
X10155724Y-11811851D01*
X10151474Y-11809514D01*
X10139584Y-11802978D01*
X10139123Y-11802831D01*
X10139122Y-11802831D01*
X10120408Y-11796895D01*
X10119947Y-11796748D01*
X10119466Y-11796694D01*
X10119466Y-11796694D01*
X10104189Y-11794981D01*
X10104189Y-11794981D01*
X10103914Y-11794950D01*
X10092816Y-11794950D01*
X10092576Y-11794973D01*
X10092576Y-11794973D01*
X10077978Y-11796405D01*
X10077978Y-11796405D01*
X10077497Y-11796452D01*
X10077035Y-11796592D01*
X10077034Y-11796592D01*
X10065787Y-11799987D01*
X10057775Y-11802406D01*
X10039585Y-11812078D01*
X10023620Y-11825099D01*
X10023312Y-11825472D01*
X10023312Y-11825472D01*
X10010975Y-11840385D01*
X10010488Y-11840972D01*
X10010258Y-11841398D01*
X10003215Y-11854424D01*
X10000690Y-11859094D01*
X9999303Y-11863576D01*
X9996270Y-11873373D01*
X9994598Y-11878775D01*
X9994547Y-11879255D01*
X9994547Y-11879256D01*
X9994395Y-11880702D01*
X9992444Y-11899263D01*
X9230000Y-11899263D01*
X9230000Y-11726865D01*
X10850170Y-11726865D01*
X10850203Y-11727217D01*
X10850340Y-11727419D01*
X10985891Y-11862970D01*
X10987080Y-11863576D01*
X10987583Y-11863496D01*
X11123218Y-11727861D01*
X11123823Y-11726673D01*
X11123768Y-11726324D01*
X11123618Y-11726131D01*
X11121947Y-11724665D01*
X11121434Y-11724272D01*
X11097907Y-11708551D01*
X11097346Y-11708228D01*
X11072470Y-11695961D01*
X12137973Y-11695961D01*
X12139647Y-11708756D01*
X12139930Y-11709401D01*
X12139931Y-11709401D01*
X12143876Y-11718368D01*
X12144844Y-11720568D01*
X12148996Y-11725507D01*
X12152693Y-11729906D01*
X12152694Y-11729906D01*
X12153147Y-11730446D01*
X12163889Y-11737596D01*
X12164562Y-11737806D01*
X12164562Y-11737806D01*
X12170048Y-11739520D01*
X12176207Y-11741444D01*
X12182658Y-11741563D01*
X12188404Y-11741668D01*
X12188404Y-11741668D01*
X12189109Y-11741681D01*
X12189789Y-11741495D01*
X12189789Y-11741495D01*
X12195677Y-11739890D01*
X12201559Y-11738287D01*
X12212556Y-11731534D01*
X12216258Y-11727444D01*
X12220742Y-11722490D01*
X12220742Y-11722490D01*
X12221216Y-11721967D01*
X12226842Y-11710354D01*
X12228983Y-11697629D01*
X12228984Y-11697537D01*
X12231359Y-11691977D01*
X12236610Y-11688837D01*
X12238997Y-11688590D01*
X12241437Y-11688635D01*
X12241437Y-11688635D01*
X12242142Y-11688648D01*
X12242822Y-11688462D01*
X12242823Y-11688462D01*
X12246999Y-11687323D01*
X12254592Y-11685253D01*
X12265589Y-11678501D01*
X12274249Y-11668934D01*
X12279875Y-11657321D01*
X12280104Y-11655961D01*
X13597973Y-11655961D01*
X13599647Y-11668756D01*
X13599930Y-11669401D01*
X13599931Y-11669401D01*
X13604560Y-11679922D01*
X13604844Y-11680568D01*
X13606528Y-11682571D01*
X13612693Y-11689906D01*
X13612694Y-11689906D01*
X13613147Y-11690446D01*
X13623889Y-11697596D01*
X13624562Y-11697806D01*
X13624562Y-11697806D01*
X13630048Y-11699520D01*
X13636207Y-11701444D01*
X13642658Y-11701563D01*
X13648404Y-11701668D01*
X13648404Y-11701668D01*
X13649109Y-11701681D01*
X13649789Y-11701495D01*
X13649789Y-11701495D01*
X13653966Y-11700357D01*
X13661559Y-11698287D01*
X13672556Y-11691534D01*
X13675180Y-11688635D01*
X13680742Y-11682490D01*
X13680742Y-11682490D01*
X13681216Y-11681967D01*
X13684655Y-11674868D01*
X13686535Y-11670989D01*
X13686535Y-11670989D01*
X13686842Y-11670354D01*
X13688983Y-11657629D01*
X13688984Y-11657537D01*
X13691359Y-11651977D01*
X13696610Y-11648837D01*
X13698997Y-11648590D01*
X13701437Y-11648635D01*
X13701437Y-11648635D01*
X13702142Y-11648648D01*
X13702822Y-11648462D01*
X13702823Y-11648462D01*
X13706999Y-11647323D01*
X13714592Y-11645253D01*
X13725589Y-11638501D01*
X13732642Y-11630709D01*
X13733776Y-11629457D01*
X13733776Y-11629457D01*
X13734249Y-11628934D01*
X13737860Y-11621480D01*
X13739568Y-11617956D01*
X13739568Y-11617956D01*
X13739875Y-11617321D01*
X13742016Y-11604595D01*
X13742030Y-11603483D01*
X13740200Y-11590709D01*
X13734859Y-11578962D01*
X13726436Y-11569186D01*
X13725844Y-11568803D01*
X13725844Y-11568802D01*
X13716199Y-11562551D01*
X13715607Y-11562167D01*
X13714932Y-11561965D01*
X13714931Y-11561965D01*
X13710650Y-11560685D01*
X13703244Y-11558470D01*
X13695581Y-11558423D01*
X13691045Y-11558395D01*
X13690340Y-11558391D01*
X13689662Y-11558585D01*
X13689662Y-11558585D01*
X13678610Y-11561743D01*
X13678610Y-11561744D01*
X13677932Y-11561937D01*
X13667018Y-11568823D01*
X13658476Y-11578496D01*
X13652992Y-11590177D01*
X13651007Y-11602927D01*
X13650712Y-11602881D01*
X13649159Y-11607467D01*
X13644164Y-11611001D01*
X13641162Y-11611448D01*
X13638012Y-11611429D01*
X13637306Y-11611424D01*
X13636629Y-11611618D01*
X13636629Y-11611618D01*
X13625577Y-11614777D01*
X13625577Y-11614777D01*
X13624899Y-11614970D01*
X13613985Y-11621856D01*
X13605443Y-11631529D01*
X13599959Y-11643210D01*
X13597973Y-11655961D01*
X12280104Y-11655961D01*
X12281337Y-11648635D01*
X12281953Y-11644972D01*
X12281953Y-11644972D01*
X12282016Y-11644595D01*
X12282030Y-11643483D01*
X12280200Y-11630709D01*
X12274859Y-11618962D01*
X12268947Y-11612100D01*
X12266896Y-11609721D01*
X12266896Y-11609720D01*
X12266436Y-11609186D01*
X12265844Y-11608803D01*
X12265844Y-11608802D01*
X12258763Y-11604213D01*
X12255607Y-11602167D01*
X12254932Y-11601965D01*
X12254931Y-11601965D01*
X12250650Y-11600685D01*
X12243244Y-11598470D01*
X12235581Y-11598423D01*
X12231045Y-11598395D01*
X12230340Y-11598391D01*
X12229662Y-11598585D01*
X12229662Y-11598585D01*
X12218610Y-11601743D01*
X12218610Y-11601744D01*
X12217932Y-11601937D01*
X12207018Y-11608823D01*
X12198476Y-11618496D01*
X12192992Y-11630177D01*
X12191007Y-11642927D01*
X12190712Y-11642881D01*
X12189159Y-11647467D01*
X12184164Y-11651001D01*
X12181162Y-11651448D01*
X12178012Y-11651429D01*
X12177306Y-11651424D01*
X12176629Y-11651618D01*
X12176629Y-11651618D01*
X12165577Y-11654777D01*
X12165577Y-11654777D01*
X12164899Y-11654970D01*
X12153985Y-11661856D01*
X12145443Y-11671529D01*
X12139959Y-11683210D01*
X12137973Y-11695961D01*
X11072470Y-11695961D01*
X11071969Y-11695713D01*
X11071371Y-11695466D01*
X11044576Y-11686370D01*
X11043953Y-11686203D01*
X11016199Y-11680682D01*
X11015559Y-11680598D01*
X10987324Y-11678747D01*
X10986677Y-11678747D01*
X10958441Y-11680598D01*
X10957801Y-11680682D01*
X10930047Y-11686203D01*
X10929424Y-11686370D01*
X10902629Y-11695466D01*
X10902032Y-11695713D01*
X10876654Y-11708228D01*
X10876093Y-11708551D01*
X10852566Y-11724272D01*
X10852053Y-11724665D01*
X10850853Y-11725719D01*
X10850170Y-11726865D01*
X9230000Y-11726865D01*
X9230000Y-11456000D01*
X18349940Y-11456000D01*
X18351978Y-11481899D01*
X18358043Y-11507161D01*
X18367985Y-11531163D01*
X18381559Y-11553314D01*
X18398431Y-11573069D01*
X18418186Y-11589941D01*
X18440337Y-11603515D01*
X18464339Y-11613457D01*
X18464716Y-11613548D01*
X18464717Y-11613548D01*
X18470642Y-11614970D01*
X18489601Y-11619522D01*
X18489987Y-11619552D01*
X18489988Y-11619553D01*
X18513219Y-11621381D01*
X18514481Y-11621480D01*
X18515113Y-11621530D01*
X18515500Y-11621560D01*
X18515888Y-11621530D01*
X18516519Y-11621480D01*
X18517781Y-11621381D01*
X18541012Y-11619553D01*
X18541013Y-11619552D01*
X18541399Y-11619522D01*
X18560358Y-11614970D01*
X18566283Y-11613548D01*
X18566284Y-11613548D01*
X18566661Y-11613457D01*
X18590663Y-11603515D01*
X18612814Y-11589941D01*
X18632569Y-11573069D01*
X18649441Y-11553314D01*
X18663015Y-11531163D01*
X18672957Y-11507161D01*
X18679022Y-11481899D01*
X18681060Y-11456000D01*
X18679022Y-11430101D01*
X18672957Y-11404839D01*
X18663015Y-11380837D01*
X18649441Y-11358686D01*
X18632569Y-11338931D01*
X18612814Y-11322059D01*
X18590663Y-11308485D01*
X18566661Y-11298543D01*
X18566284Y-11298452D01*
X18566283Y-11298452D01*
X18552807Y-11295217D01*
X18541399Y-11292478D01*
X18541013Y-11292447D01*
X18541012Y-11292447D01*
X18515888Y-11290470D01*
X18515500Y-11290440D01*
X18515113Y-11290470D01*
X18489988Y-11292447D01*
X18489987Y-11292447D01*
X18489601Y-11292478D01*
X18478193Y-11295217D01*
X18464717Y-11298452D01*
X18464716Y-11298452D01*
X18464339Y-11298543D01*
X18440337Y-11308485D01*
X18418186Y-11322059D01*
X18398431Y-11338931D01*
X18381559Y-11358686D01*
X18367985Y-11380837D01*
X18358043Y-11404839D01*
X18351978Y-11430101D01*
X18349940Y-11456000D01*
X9230000Y-11456000D01*
X9230000Y-11207123D01*
X9231891Y-11201303D01*
X9234505Y-11198822D01*
X9422539Y-11076599D01*
X9427935Y-11075000D01*
X11275000Y-11075000D01*
X11276285Y-11074036D01*
X11276285Y-11074036D01*
X11472360Y-10926980D01*
X11478300Y-10925000D01*
X14300000Y-10925000D01*
X14432288Y-10309033D01*
X14458320Y-10187821D01*
X14461391Y-10182529D01*
X14466986Y-10180052D01*
X14468000Y-10180000D01*
X18795503Y-10180000D01*
X18801322Y-10181891D01*
G37*
G04 #@! TD.AperFunction*
M02*
